SplineFontDB: 3.0
FontName: ShareTech-Regular
FullName: Share Tech
FamilyName: Share Tech
Weight: Book
Copyright: Copyright (c) 2012, Carrois Type Design, Ralph du Carrois (post@carrois.com www.carrois.com), with Reserved Font Name 'Share'
Version: 1.002
ItalicAngle: 0
UnderlinePosition: -61
UnderlineWidth: 75
Ascent: 800
Descent: 200
sfntRevision: 0x00010083
LayerCount: 2
Layer: 0 1 "Back"  1
Layer: 1 1 "Fore"  0
XUID: [1021 627 619215526 12309115]
FSType: 0
OS2Version: 3
OS2_WeightWidthSlopeOnly: 0
OS2_UseTypoMetrics: 1
CreationTime: 1130492160
ModificationTime: 1350611407
PfmFamily: 17
TTFWeight: 400
TTFWidth: 5
LineGap: 0
VLineGap: 0
Panose: 2 0 5 6 4 0 0 2 0 4
OS2TypoAscent: 885
OS2TypoAOffset: 0
OS2TypoDescent: -242
OS2TypoDOffset: 0
OS2TypoLinegap: 0
OS2WinAscent: 885
OS2WinAOffset: 0
OS2WinDescent: 242
OS2WinDOffset: 0
HheadAscent: 885
HheadAOffset: 0
HheadDescent: -242
HheadDOffset: 0
OS2SubXSize: 650
OS2SubYSize: 600
OS2SubXOff: 0
OS2SubYOff: 75
OS2SupXSize: 650
OS2SupYSize: 600
OS2SupXOff: 0
OS2SupYOff: 350
OS2StrikeYSize: 75
OS2StrikeYPos: 300
OS2Vendor: 'pyrs'
OS2CodePages: 20000001.00000000
OS2UnicodeRanges: 800000af.4000204a.00000000.00000000
Lookup: 1 0 0 "'aalt' Access All Alternates in Latin lookup 0"  {"'aalt' Access All Alternates in Latin lookup 0 subtable"  } ['aalt' ('latn' <'dflt' > ) ]
Lookup: 4 0 0 "'frac' Diagonal Fractions in Latin lookup 1"  {"'frac' Diagonal Fractions in Latin lookup 1 subtable"  } ['frac' ('latn' <'dflt' > ) ]
Lookup: 1 0 0 "'numr' Numerators in Latin lookup 2"  {"'numr' Numerators in Latin lookup 2 subtable"  } ['numr' ('latn' <'dflt' > ) ]
Lookup: 4 0 1 "'liga' Standard Ligatures in Latin lookup 3"  {"'liga' Standard Ligatures in Latin lookup 3 subtable"  } ['liga' ('latn' <'dflt' > ) ]
Lookup: 1 0 0 "'ordn' Ordinals in Latin lookup 4"  {"'ordn' Ordinals in Latin lookup 4 subtable"  } ['ordn' ('latn' <'dflt' > ) ]

StartChar: .notdef
Encoding: 65536 -1 0
Width: 502
Flags: W
LayerCount: 2
Fore
SplineSet
65 0 m 1,0,-1
 65 700 l 1,1,-1
 437 700 l 1,2,-1
 437 0 l 1,3,-1
 65 0 l 1,0,-1
140 72 m 1,4,-1
 362 72 l 1,5,-1
 362 628 l 1,6,-1
 140 628 l 1,7,-1
 140 72 l 1,4,-1
EndSplineSet
EndChar

StartChar: exclam
Encoding: 33 33 5
Width: 250
GlyphClass: 2
Flags: W
LayerCount: 2
Fore
SplineSet
175 0 m 1,0,-1
 75 0 l 1,1,-1
 75 100 l 1,2,-1
 175 100 l 1,3,-1
 175 0 l 1,0,-1
167 208 m 1,4,-1
 82 208 l 1,5,-1
 82 700 l 1,6,-1
 167 700 l 1,7,-1
 167 208 l 1,4,-1
EndSplineSet
EndChar

StartChar: quotedbl
Encoding: 34 34 6
Width: 360
GlyphClass: 2
Flags: W
LayerCount: 2
Fore
SplineSet
55 700 m 1,0,-1
 150 700 l 1,1,-1
 150 610 l 1,2,-1
 130 453 l 1,3,-1
 75 453 l 1,4,-1
 55 610 l 1,5,-1
 55 700 l 1,0,-1
210 700 m 1,6,-1
 305 700 l 1,7,-1
 305 610 l 1,8,-1
 285 453 l 1,9,-1
 230 453 l 1,10,-1
 210 610 l 1,11,-1
 210 700 l 1,6,-1
EndSplineSet
EndChar

StartChar: numbersign
Encoding: 35 35 7
Width: 470
GlyphClass: 2
Flags: W
LayerCount: 2
Fore
SplineSet
273 255 m 1,0,-1
 273 455 l 1,1,-1
 193 455 l 1,2,-1
 193 255 l 1,3,-1
 273 255 l 1,0,-1
423 180 m 1,4,-1
 353 180 l 1,5,-1
 353 0 l 1,6,-1
 273 0 l 1,7,-1
 273 180 l 1,8,-1
 193 180 l 1,9,-1
 193 0 l 1,10,-1
 113 0 l 1,11,-1
 113 180 l 1,12,-1
 43 180 l 1,13,-1
 43 255 l 1,14,-1
 113 255 l 1,15,-1
 113 455 l 1,16,-1
 43 455 l 1,17,-1
 43 530 l 1,18,-1
 113 530 l 1,19,-1
 113 700 l 1,20,-1
 193 700 l 1,21,-1
 193 530 l 1,22,-1
 273 530 l 1,23,-1
 273 700 l 1,24,-1
 353 700 l 1,25,-1
 353 530 l 1,26,-1
 423 530 l 1,27,-1
 423 455 l 1,28,-1
 353 455 l 1,29,-1
 353 255 l 1,30,-1
 423 255 l 1,31,-1
 423 180 l 1,4,-1
EndSplineSet
EndChar

StartChar: dollar
Encoding: 36 36 8
Width: 470
GlyphClass: 2
Flags: W
LayerCount: 2
Fore
SplineSet
277 -110 m 1,0,-1
 192 -110 l 1,1,-1
 192 0 l 1,2,-1
 87 0 l 1,3,-1
 87 76 l 1,4,-1
 229 76 l 2,5,6
 266 76 266 76 289 98 c 128,-1,7
 312 120 312 120 312 151 c 2,8,-1
 312 235 l 2,9,10
 312 265 312 265 296.5 283.5 c 128,-1,11
 281 302 281 302 250 302 c 2,12,-1
 230 302 l 2,13,14
 156 302 156 302 113 345.5 c 128,-1,15
 70 389 70 389 70 472 c 2,16,-1
 70 500 l 2,17,18
 70 638 70 638 192 664 c 1,19,-1
 192 780 l 1,20,-1
 277 780 l 1,21,-1
 277 670 l 1,22,-1
 383 670 l 1,23,-1
 383 594 l 1,24,-1
 240 594 l 2,25,26
 203 594 203 594 180 572 c 128,-1,27
 157 550 157 550 157 519 c 2,28,-1
 157 453 l 2,29,30
 157 422 157 422 177 401.5 c 128,-1,31
 197 381 197 381 229 381 c 2,32,-1
 249 381 l 2,33,34
 320 381 320 381 359.5 340 c 128,-1,35
 399 299 399 299 399 216 c 2,36,-1
 399 170 l 2,37,38
 399 32 399 32 277 5 c 1,39,-1
 277 -110 l 1,0,-1
EndSplineSet
EndChar

StartChar: percent
Encoding: 37 37 9
Width: 856
GlyphClass: 3
Flags: W
LayerCount: 2
Fore
SplineSet
590 700 m 1,0,-1
 351 0 l 1,1,-1
 267 0 l 1,2,-1
 512 700 l 1,3,-1
 590 700 l 1,0,-1
351 412 m 2,4,5
 351 349 351 349 319 316.5 c 128,-1,6
 287 284 287 284 229 284 c 2,7,-1
 211 284 l 2,8,9
 153 284 153 284 121 316.5 c 128,-1,10
 89 349 89 349 89 412 c 2,11,-1
 89 572 l 2,12,13
 89 635 89 635 121 667.5 c 128,-1,14
 153 700 153 700 211 700 c 2,15,-1
 229 700 l 2,16,17
 287 700 287 700 319 667.5 c 128,-1,18
 351 635 351 635 351 572 c 2,19,-1
 351 412 l 2,4,5
281 401 m 2,20,-1
 281 583 l 2,21,22
 281 608 281 608 268 624 c 128,-1,23
 255 640 255 640 229 640 c 2,24,-1
 211 640 l 2,25,26
 185 640 185 640 172 624 c 128,-1,27
 159 608 159 608 159 583 c 2,28,-1
 159 401 l 2,29,30
 159 376 159 376 172 360 c 128,-1,31
 185 344 185 344 211 344 c 2,32,-1
 229 344 l 2,33,34
 255 344 255 344 268 360 c 128,-1,35
 281 376 281 376 281 401 c 2,20,-1
765 128 m 2,36,37
 765 65 765 65 733 32.5 c 128,-1,38
 701 0 701 0 643 0 c 2,39,-1
 625 0 l 2,40,41
 567 0 567 0 535 32.5 c 128,-1,42
 503 65 503 65 503 128 c 2,43,-1
 503 288 l 2,44,45
 503 351 503 351 535 383.5 c 128,-1,46
 567 416 567 416 625 416 c 2,47,-1
 643 416 l 2,48,49
 701 416 701 416 733 383.5 c 128,-1,50
 765 351 765 351 765 288 c 2,51,-1
 765 128 l 2,36,37
695 117 m 2,52,-1
 695 299 l 2,53,54
 695 324 695 324 682 340 c 128,-1,55
 669 356 669 356 643 356 c 2,56,-1
 625 356 l 2,57,58
 599 356 599 356 586 340 c 128,-1,59
 573 324 573 324 573 299 c 2,60,-1
 573 117 l 2,61,62
 573 92 573 92 586 76 c 128,-1,63
 599 60 599 60 625 60 c 2,64,-1
 643 60 l 2,65,66
 669 60 669 60 682 76 c 128,-1,67
 695 92 695 92 695 117 c 2,52,-1
EndSplineSet
Ligature2: "'frac' Diagonal Fractions in Latin lookup 1 subtable" zero fraction zero
Ligature2: "'frac' Diagonal Fractions in Latin lookup 1 subtable" zero slash zero
EndChar

StartChar: ampersand
Encoding: 38 38 10
Width: 507
GlyphClass: 2
Flags: W
LayerCount: 2
Fore
SplineSet
403 0 m 1,0,-1
 239 0 l 2,1,2
 149 0 149 0 109 37.5 c 128,-1,3
 69 75 69 75 69 158 c 2,4,-1
 69 284 l 2,5,6
 69 371 69 371 134 407 c 1,7,8
 79 446 79 446 79 523 c 2,9,-1
 79 544 l 2,10,11
 79 700 79 700 251 700 c 2,12,-1
 357 700 l 1,13,-1
 357 625 l 1,14,-1
 239 625 l 2,15,16
 201 625 201 625 183.5 608 c 128,-1,17
 166 591 166 591 166 553 c 2,18,-1
 166 513 l 2,19,20
 166 480 166 480 187 460 c 128,-1,21
 208 440 208 440 239 440 c 2,22,-1
 482 440 l 1,23,-1
 482 365 l 1,24,-1
 403 365 l 1,25,-1
 403 0 l 1,0,-1
229 365 m 2,26,27
 196 365 196 365 176 345.5 c 128,-1,28
 156 326 156 326 156 293 c 2,29,-1
 156 148 l 2,30,31
 156 110 156 110 174 92.5 c 128,-1,32
 192 75 192 75 230 75 c 2,33,-1
 322 75 l 1,34,-1
 322 365 l 1,35,-1
 229 365 l 2,26,27
EndSplineSet
EndChar

StartChar: quotesingle
Encoding: 39 39 11
Width: 205
GlyphClass: 2
Flags: W
LayerCount: 2
Fore
SplineSet
55 700 m 1,0,-1
 150 700 l 1,1,-1
 150 610 l 1,2,-1
 130 453 l 1,3,-1
 75 453 l 1,4,-1
 55 610 l 1,5,-1
 55 700 l 1,0,-1
EndSplineSet
EndChar

StartChar: parenleft
Encoding: 40 40 12
Width: 320
GlyphClass: 2
Flags: W
LayerCount: 2
Fore
SplineSet
60 505 m 2,0,1
 60 621 60 621 89.5 693 c 128,-1,2
 119 765 119 765 172 820 c 1,3,-1
 260 820 l 1,4,5
 191 736 191 736 168 677.5 c 128,-1,6
 145 619 145 619 145 507 c 2,7,-1
 145 193 l 2,8,9
 145 81 145 81 168 22.5 c 128,-1,10
 191 -36 191 -36 260 -120 c 1,11,-1
 172 -120 l 1,12,13
 119 -65 119 -65 89.5 7 c 128,-1,14
 60 79 60 79 60 195 c 2,15,-1
 60 505 l 2,0,1
EndSplineSet
EndChar

StartChar: parenright
Encoding: 41 41 13
Width: 320
GlyphClass: 2
Flags: W
LayerCount: 2
Fore
SplineSet
260 505 m 2,0,-1
 260 195 l 2,1,2
 260 79 260 79 230.5 7 c 128,-1,3
 201 -65 201 -65 148 -120 c 1,4,-1
 60 -120 l 1,5,6
 129 -36 129 -36 152 22.5 c 128,-1,7
 175 81 175 81 175 193 c 2,8,-1
 175 507 l 2,9,10
 175 619 175 619 152 677.5 c 128,-1,11
 129 736 129 736 60 820 c 1,12,-1
 148 820 l 1,13,14
 201 765 201 765 230.5 693 c 128,-1,15
 260 621 260 621 260 505 c 2,0,-1
EndSplineSet
EndChar

StartChar: asterisk
Encoding: 42 42 14
Width: 480
GlyphClass: 2
Flags: W
LayerCount: 2
Fore
SplineSet
440 546 m 1,0,-1
 293 515 l 1,1,-1
 399 392 l 1,2,-1
 327 340 l 1,3,-1
 239 482 l 1,4,-1
 148 340 l 1,5,-1
 78 393 l 1,6,-1
 185 515 l 1,7,-1
 40 547 l 1,8,-1
 67 627 l 1,9,-1
 208 570 l 1,10,-1
 195 722 l 1,11,-1
 285 722 l 1,12,-1
 272 570 l 1,13,-1
 415 625 l 1,14,-1
 440 546 l 1,0,-1
EndSplineSet
EndChar

StartChar: plus
Encoding: 43 43 15
Width: 550
GlyphClass: 2
Flags: W
LayerCount: 2
Fore
SplineSet
465 275 m 1,0,-1
 315 275 l 1,1,-1
 315 118 l 1,2,-1
 235 118 l 1,3,-1
 235 275 l 1,4,-1
 84 275 l 1,5,-1
 84 350 l 1,6,-1
 235 350 l 1,7,-1
 235 508 l 1,8,-1
 315 508 l 1,9,-1
 315 350 l 1,10,-1
 465 350 l 1,11,-1
 465 275 l 1,0,-1
EndSplineSet
EndChar

StartChar: comma
Encoding: 44 44 16
Width: 230
GlyphClass: 2
Flags: W
LayerCount: 2
Fore
SplineSet
65 100 m 1,0,-1
 165 100 l 1,1,-1
 165 0 l 1,2,-1
 103 -140 l 1,3,-1
 25 -140 l 1,4,-1
 65 0 l 1,5,-1
 65 100 l 1,0,-1
EndSplineSet
EndChar

StartChar: hyphen
Encoding: 45 45 17
Width: 495
GlyphClass: 2
Flags: W
LayerCount: 2
Fore
SplineSet
410 275 m 1,0,-1
 85 275 l 1,1,-1
 85 350 l 1,2,-1
 410 350 l 1,3,-1
 410 275 l 1,0,-1
EndSplineSet
EndChar

StartChar: period
Encoding: 46 46 18
Width: 230
GlyphClass: 2
Flags: W
LayerCount: 2
Fore
SplineSet
165 0 m 1,0,-1
 65 0 l 1,1,-1
 65 100 l 1,2,-1
 165 100 l 1,3,-1
 165 0 l 1,0,-1
EndSplineSet
EndChar

StartChar: slash
Encoding: 47 47 19
Width: 325
GlyphClass: 2
Flags: W
LayerCount: 2
Fore
SplineSet
320 810 m 1,0,-1
 84 -110 l 1,1,-1
 5 -110 l 1,2,-1
 241 810 l 1,3,-1
 320 810 l 1,0,-1
EndSplineSet
Substitution2: "'numr' Numerators in Latin lookup 2 subtable" fraction
Substitution2: "'aalt' Access All Alternates in Latin lookup 0 subtable" fraction
EndChar

StartChar: zero
Encoding: 48 48 20
Width: 470
GlyphClass: 2
Flags: W
LayerCount: 2
Fore
SplineSet
408 170 m 2,0,1
 408 87 408 87 362.5 43.5 c 128,-1,2
 317 0 317 0 240 0 c 2,3,-1
 230 0 l 2,4,5
 153 0 153 0 107.5 43.5 c 128,-1,6
 62 87 62 87 62 170 c 2,7,-1
 62 530 l 2,8,9
 62 614 62 614 107 657 c 128,-1,10
 152 700 152 700 230 700 c 2,11,-1
 240 700 l 2,12,13
 318 700 318 700 363 657 c 128,-1,14
 408 614 408 614 408 530 c 2,15,-1
 408 170 l 2,0,1
323 151 m 2,16,-1
 323 549 l 2,17,18
 323 580 323 580 299.5 602.5 c 128,-1,19
 276 625 276 625 240 625 c 2,20,-1
 230 625 l 2,21,22
 194 625 194 625 170.5 602.5 c 128,-1,23
 147 580 147 580 147 549 c 2,24,-1
 147 151 l 2,25,26
 147 120 147 120 170.5 97.5 c 128,-1,27
 194 75 194 75 230 75 c 2,28,-1
 240 75 l 2,29,30
 276 75 276 75 299.5 97.5 c 128,-1,31
 323 120 323 120 323 151 c 2,16,-1
EndSplineSet
EndChar

StartChar: one
Encoding: 49 49 21
Width: 470
GlyphClass: 2
Flags: W
LayerCount: 2
Fore
SplineSet
397 0 m 1,0,-1
 92 0 l 1,1,-1
 92 75 l 1,2,-1
 213 75 l 1,3,-1
 213 621 l 1,4,-1
 82 569 l 1,5,-1
 82 650 l 1,6,-1
 203 700 l 1,7,-1
 298 700 l 1,8,-1
 298 75 l 1,9,-1
 397 75 l 1,10,-1
 397 0 l 1,0,-1
EndSplineSet
Substitution2: "'sups' Superscript in Latin lookup 5 subtable" onesuperior
Substitution2: "'numr' Numerators in Latin lookup 2 subtable" onesuperior
Substitution2: "'aalt' Access All Alternates in Latin lookup 0 subtable" onesuperior
EndChar

StartChar: two
Encoding: 50 50 22
Width: 470
GlyphClass: 2
Flags: W
LayerCount: 2
Fore
SplineSet
383 0 m 1,0,-1
 63 0 l 1,1,-1
 63 88 l 1,2,-1
 213 316 l 2,3,4
 258 384 258 384 267 406 c 128,-1,5
 276 428 276 428 276 479 c 2,6,-1
 276 549 l 2,7,8
 276 580 276 580 253 602 c 128,-1,9
 230 624 230 624 193 624 c 2,10,-1
 83 624 l 1,11,-1
 83 700 l 1,12,-1
 183 700 l 2,13,14
 270 700 270 700 316.5 657.5 c 128,-1,15
 363 615 363 615 363 530 c 2,16,-1
 363 488 l 2,17,18
 363 418 363 418 352 389 c 128,-1,19
 341 360 341 360 292 285 c 2,20,-1
 154 76 l 1,21,-1
 383 76 l 1,22,-1
 383 0 l 1,0,-1
EndSplineSet
Substitution2: "'sups' Superscript in Latin lookup 5 subtable" twosuperior
Substitution2: "'numr' Numerators in Latin lookup 2 subtable" twosuperior
Substitution2: "'aalt' Access All Alternates in Latin lookup 0 subtable" twosuperior
EndChar

StartChar: three
Encoding: 51 51 23
Width: 470
GlyphClass: 2
Flags: W
LayerCount: 2
Fore
SplineSet
372 158 m 2,0,1
 372 75 372 75 332 37.5 c 128,-1,2
 292 0 292 0 202 0 c 2,3,-1
 84 0 l 1,4,-1
 84 75 l 1,5,-1
 211 75 l 2,6,7
 249 75 249 75 267 92.5 c 128,-1,8
 285 110 285 110 285 148 c 2,9,-1
 285 251 l 2,10,11
 285 284 285 284 265 303.5 c 128,-1,12
 245 323 245 323 212 323 c 2,13,-1
 115 323 l 1,14,-1
 115 398 l 1,15,-1
 202 398 l 2,16,17
 233 398 233 398 254 418 c 128,-1,18
 275 438 275 438 275 471 c 2,19,-1
 275 553 l 2,20,21
 275 591 275 591 257.5 608 c 128,-1,22
 240 625 240 625 202 625 c 2,23,-1
 84 625 l 1,24,-1
 84 700 l 1,25,-1
 190 700 l 2,26,27
 362 700 362 700 362 544 c 2,28,-1
 362 481 l 2,29,30
 362 404 362 404 307 365 c 1,31,32
 372 329 372 329 372 242 c 2,33,-1
 372 158 l 2,0,1
EndSplineSet
Substitution2: "'sups' Superscript in Latin lookup 5 subtable" threesuperior
Substitution2: "'numr' Numerators in Latin lookup 2 subtable" threesuperior
Substitution2: "'aalt' Access All Alternates in Latin lookup 0 subtable" threesuperior
EndChar

StartChar: four
Encoding: 52 52 24
Width: 470
GlyphClass: 2
Flags: W
LayerCount: 2
Fore
SplineSet
422 156 m 1,0,-1
 352 156 l 1,1,-1
 352 0 l 1,2,-1
 267 0 l 1,3,-1
 267 156 l 1,4,-1
 69 156 l 1,5,-1
 69 242 l 1,6,-1
 168 700 l 1,7,-1
 249 700 l 1,8,-1
 155 229 l 1,9,-1
 267 229 l 1,10,-1
 267 457 l 1,11,-1
 352 457 l 1,12,-1
 352 229 l 1,13,-1
 422 229 l 1,14,-1
 422 156 l 1,0,-1
EndSplineSet
EndChar

StartChar: five
Encoding: 53 53 25
Width: 470
GlyphClass: 2
Flags: W
LayerCount: 2
Fore
SplineSet
374 158 m 2,0,1
 374 75 374 75 334 37.5 c 128,-1,2
 294 0 294 0 204 0 c 2,3,-1
 83 0 l 1,4,-1
 83 75 l 1,5,-1
 213 75 l 2,6,7
 251 75 251 75 269 92.5 c 128,-1,8
 287 110 287 110 287 148 c 2,9,-1
 287 275 l 2,10,11
 287 308 287 308 267 327.5 c 128,-1,12
 247 347 247 347 214 347 c 2,13,-1
 93 347 l 1,14,-1
 93 700 l 1,15,-1
 359 700 l 1,16,-1
 359 625 l 1,17,-1
 178 625 l 1,18,-1
 178 422 l 1,19,-1
 209 422 l 2,20,21
 286 422 286 422 330 384 c 128,-1,22
 374 346 374 346 374 266 c 2,23,-1
 374 158 l 2,0,1
EndSplineSet
EndChar

StartChar: six
Encoding: 54 54 26
Width: 470
GlyphClass: 2
Flags: W
LayerCount: 2
Fore
SplineSet
405 170 m 2,0,1
 405 88 405 88 360 44 c 128,-1,2
 315 0 315 0 247 0 c 2,3,-1
 222 0 l 2,4,5
 154 0 154 0 109 44 c 128,-1,6
 64 88 64 88 64 170 c 2,7,-1
 64 530 l 2,8,9
 64 700 64 700 242 700 c 2,10,-1
 357 700 l 1,11,-1
 357 624 l 1,12,-1
 232 624 l 2,13,14
 195 624 195 624 172 602 c 128,-1,15
 149 580 149 580 149 549 c 2,16,-1
 149 440 l 1,17,-1
 237 440 l 2,18,19
 323 440 323 440 364 402 c 128,-1,20
 405 364 405 364 405 280 c 2,21,-1
 405 170 l 2,0,1
247 365 m 2,22,-1
 149 365 l 1,23,-1
 149 151 l 2,24,25
 149 119 149 119 170 97 c 128,-1,26
 191 75 191 75 227 75 c 2,27,-1
 242 75 l 2,28,29
 278 75 278 75 299 97 c 128,-1,30
 320 119 320 119 320 151 c 2,31,-1
 320 299 l 2,32,33
 320 365 320 365 247 365 c 2,22,-1
EndSplineSet
EndChar

StartChar: seven
Encoding: 55 55 27
Width: 470
GlyphClass: 2
Flags: W
LayerCount: 2
Fore
SplineSet
68 625 m 1,0,-1
 68 700 l 1,1,-1
 373 700 l 1,2,-1
 373 603 l 1,3,-1
 212 0 l 1,4,-1
 123 0 l 1,5,-1
 290 625 l 1,6,-1
 68 625 l 1,0,-1
EndSplineSet
EndChar

StartChar: eight
Encoding: 56 56 28
Width: 470
GlyphClass: 2
Flags: W
LayerCount: 2
Fore
SplineSet
414 158 m 2,0,1
 414 75 414 75 374 37.5 c 128,-1,2
 334 0 334 0 244 0 c 2,3,-1
 226 0 l 2,4,5
 136 0 136 0 96 37.5 c 128,-1,6
 56 75 56 75 56 158 c 2,7,-1
 56 242 l 2,8,9
 56 329 56 329 121 365 c 1,10,11
 68 402 68 402 68 481 c 2,12,-1
 68 544 l 2,13,14
 68 700 68 700 230 700 c 2,15,-1
 240 700 l 2,16,17
 402 700 402 700 402 544 c 2,18,-1
 402 481 l 2,19,20
 402 402 402 402 349 365 c 1,21,22
 414 329 414 329 414 242 c 2,23,-1
 414 158 l 2,0,1
327 251 m 2,24,25
 327 284 327 284 307 303.5 c 128,-1,26
 287 323 287 323 254 323 c 2,27,-1
 216 323 l 2,28,29
 183 323 183 323 163 303.5 c 128,-1,30
 143 284 143 284 143 251 c 2,31,-1
 143 148 l 2,32,33
 143 75 143 75 209 75 c 2,34,-1
 253 75 l 2,35,36
 291 75 291 75 309 92.5 c 128,-1,37
 327 110 327 110 327 148 c 2,38,-1
 327 251 l 2,24,25
244 625 m 2,39,-1
 218 625 l 2,40,41
 155 625 155 625 155 553 c 2,42,-1
 155 471 l 2,43,44
 155 439 155 439 173.5 419.5 c 128,-1,45
 192 400 192 400 220 398 c 1,46,-1
 244 398 l 2,47,48
 275 398 275 398 295 418 c 128,-1,49
 315 438 315 438 315 471 c 2,50,-1
 315 553 l 2,51,52
 315 591 315 591 298.5 608 c 128,-1,53
 282 625 282 625 244 625 c 2,39,-1
EndSplineSet
EndChar

StartChar: nine
Encoding: 57 57 29
Width: 470
GlyphClass: 2
Flags: W
LayerCount: 2
Fore
SplineSet
65 530 m 2,0,1
 65 612 65 612 110 656 c 128,-1,2
 155 700 155 700 223 700 c 2,3,-1
 248 700 l 2,4,5
 316 700 316 700 361 656 c 128,-1,6
 406 612 406 612 406 530 c 2,7,-1
 406 170 l 2,8,9
 406 0 406 0 228 0 c 2,10,-1
 123 0 l 1,11,-1
 123 76 l 1,12,-1
 238 76 l 2,13,14
 275 76 275 76 298 98 c 128,-1,15
 321 120 321 120 321 151 c 2,16,-1
 321 260 l 1,17,-1
 233 260 l 2,18,19
 147 260 147 260 106 298 c 128,-1,20
 65 336 65 336 65 420 c 2,21,-1
 65 530 l 2,0,1
223 335 m 2,22,-1
 321 335 l 1,23,-1
 321 549 l 2,24,25
 321 581 321 581 300 603 c 128,-1,26
 279 625 279 625 243 625 c 2,27,-1
 228 625 l 2,28,29
 192 625 192 625 171 603 c 128,-1,30
 150 581 150 581 150 549 c 2,31,-1
 150 401 l 2,32,33
 150 335 150 335 223 335 c 2,22,-1
EndSplineSet
EndChar

StartChar: colon
Encoding: 58 58 30
Width: 230
GlyphClass: 2
Flags: W
LayerCount: 2
Fore
SplineSet
165 0 m 1,0,-1
 65 0 l 1,1,-1
 65 100 l 1,2,-1
 165 100 l 1,3,-1
 165 0 l 1,0,-1
165 400 m 1,4,-1
 65 400 l 1,5,-1
 65 500 l 1,6,-1
 165 500 l 1,7,-1
 165 400 l 1,4,-1
EndSplineSet
EndChar

StartChar: semicolon
Encoding: 59 59 31
Width: 230
GlyphClass: 2
Flags: W
LayerCount: 2
Fore
SplineSet
65 100 m 1,0,-1
 165 100 l 1,1,-1
 165 0 l 1,2,-1
 103 -140 l 1,3,-1
 25 -140 l 1,4,-1
 65 0 l 1,5,-1
 65 100 l 1,0,-1
165 400 m 1,6,-1
 65 400 l 1,7,-1
 65 500 l 1,8,-1
 165 500 l 1,9,-1
 165 400 l 1,6,-1
EndSplineSet
EndChar

StartChar: less
Encoding: 60 60 32
Width: 550
GlyphClass: 2
Flags: W
LayerCount: 2
Fore
SplineSet
465 105 m 1,0,-1
 85 280 l 1,1,-1
 85 385 l 1,2,-1
 465 564 l 1,3,-1
 465 472 l 1,4,-1
 155 336 l 1,5,-1
 465 199 l 1,6,-1
 465 105 l 1,0,-1
EndSplineSet
EndChar

StartChar: equal
Encoding: 61 61 33
Width: 550
GlyphClass: 2
Flags: W
LayerCount: 2
Fore
SplineSet
465 175 m 1,0,-1
 85 175 l 1,1,-1
 85 250 l 1,2,-1
 465 250 l 1,3,-1
 465 175 l 1,0,-1
465 375 m 1,4,-1
 85 375 l 1,5,-1
 85 450 l 1,6,-1
 465 450 l 1,7,-1
 465 375 l 1,4,-1
EndSplineSet
EndChar

StartChar: greater
Encoding: 62 62 34
Width: 550
GlyphClass: 2
Flags: W
LayerCount: 2
Fore
SplineSet
465 280 m 1,0,-1
 85 105 l 1,1,-1
 85 199 l 1,2,-1
 401 336 l 1,3,-1
 85 472 l 1,4,-1
 85 564 l 1,5,-1
 465 385 l 1,6,-1
 465 280 l 1,0,-1
EndSplineSet
EndChar

StartChar: question
Encoding: 63 63 35
Width: 328
GlyphClass: 2
Flags: W
LayerCount: 2
Fore
SplineSet
298 518 m 2,0,1
 298 461 298 461 287.5 437.5 c 128,-1,2
 277 414 277 414 227 358 c 2,3,-1
 179 304 l 1,4,-1
 179 208 l 1,5,-1
 94 208 l 1,6,-1
 94 329 l 1,7,-1
 147 390 l 2,8,9
 194 444 194 444 203.5 460.5 c 128,-1,10
 213 477 213 477 213 509 c 2,11,-1
 213 559 l 2,12,13
 213 624 213 624 140 624 c 2,14,-1
 30 624 l 1,15,-1
 30 700 l 1,16,-1
 130 700 l 2,17,18
 298 700 298 700 298 550 c 2,19,-1
 298 518 l 2,0,1
187 0 m 1,20,-1
 87 0 l 1,21,-1
 87 100 l 1,22,-1
 187 100 l 1,23,-1
 187 0 l 1,20,-1
EndSplineSet
EndChar

StartChar: at
Encoding: 64 64 36
Width: 815
GlyphClass: 2
Flags: W
LayerCount: 2
Fore
SplineSet
561 0 m 1,0,-1
 275 0 l 2,1,2
 188 0 188 0 141.5 42.5 c 128,-1,3
 95 85 95 85 95 170 c 2,4,-1
 95 520 l 2,5,6
 95 606 95 606 142 653 c 128,-1,7
 189 700 189 700 275 700 c 2,8,-1
 540 700 l 2,9,10
 626 700 626 700 673 653 c 128,-1,11
 720 606 720 606 720 520 c 2,12,-1
 720 250 l 2,13,14
 720 115 720 115 593 115 c 0,15,16
 564 115 564 115 533 132 c 128,-1,17
 502 149 502 149 488 184 c 1,18,19
 452 144 452 144 375 144 c 0,20,21
 241 144 241 144 241 275 c 2,22,-1
 241 393 l 2,23,24
 241 473 241 473 285 506 c 128,-1,25
 329 539 329 539 418 539 c 2,26,-1
 552 539 l 1,27,-1
 552 217 l 2,28,29
 552 201 552 201 564 190.5 c 128,-1,30
 576 180 576 180 596 180 c 0,31,32
 637 180 637 180 637 230 c 2,33,-1
 637 540 l 2,34,35
 637 577 637 577 612.5 602 c 128,-1,36
 588 627 588 627 550 627 c 2,37,-1
 265 627 l 2,38,39
 227 627 227 627 202.5 602.5 c 128,-1,40
 178 578 178 578 178 540 c 2,41,-1
 178 150 l 2,42,43
 178 119 178 119 203 96 c 128,-1,44
 228 73 228 73 265 73 c 2,45,-1
 561 73 l 1,46,-1
 561 0 l 1,0,-1
321 279 m 2,47,48
 321 212 321 212 396.5 212 c 128,-1,49
 472 212 472 212 472 264 c 2,50,-1
 472 472 l 1,51,-1
 407 472 l 2,52,53
 362 472 362 472 341.5 454 c 128,-1,54
 321 436 321 436 321 389 c 2,55,-1
 321 279 l 2,47,48
EndSplineSet
EndChar

StartChar: A
Encoding: 65 65 37
Width: 500
GlyphClass: 2
Flags: W
LayerCount: 2
Fore
SplineSet
332 252 m 1,0,-1
 250 634 l 1,1,-1
 169 252 l 1,2,-1
 332 252 l 1,0,-1
475 0 m 1,3,-1
 386 0 l 1,4,-1
 348 177 l 1,5,-1
 153 177 l 1,6,-1
 114 0 l 1,7,-1
 25 0 l 1,8,-1
 194 700 l 1,9,-1
 309 700 l 1,10,-1
 475 0 l 1,3,-1
EndSplineSet
Substitution2: "'ordn' Ordinals in Latin lookup 4 subtable" ordfeminine
Substitution2: "'aalt' Access All Alternates in Latin lookup 0 subtable" ordfeminine
Position2: "'cpsp' Capital Spacing in Latin lookup 0 subtable" dx=5 dy=0 dh=10 dv=0
EndChar

StartChar: B
Encoding: 66 66 38
Width: 520
GlyphClass: 2
Flags: W
LayerCount: 2
Fore
SplineSet
445 158 m 2,0,1
 445 72 445 72 405.5 36 c 128,-1,2
 366 0 366 0 275 0 c 2,3,-1
 85 0 l 1,4,-1
 85 700 l 1,5,-1
 263 700 l 2,6,7
 352 700 352 700 393.5 664 c 128,-1,8
 435 628 435 628 435 544 c 2,9,-1
 435 487 l 2,10,11
 435 410 435 410 380 371 c 1,12,13
 445 335 445 335 445 248 c 2,14,-1
 445 158 l 2,0,1
348 477 m 2,15,-1
 348 553 l 2,16,17
 348 591 348 591 330.5 608 c 128,-1,18
 313 625 313 625 275 625 c 2,19,-1
 172 625 l 1,20,-1
 172 404 l 1,21,-1
 275 404 l 2,22,23
 306 404 306 404 327 424 c 128,-1,24
 348 444 348 444 348 477 c 2,15,-1
358 148 m 2,25,-1
 358 257 l 2,26,27
 358 290 358 290 338 309.5 c 128,-1,28
 318 329 318 329 285 329 c 2,29,-1
 172 329 l 1,30,-1
 172 75 l 1,31,-1
 284 75 l 2,32,33
 322 75 322 75 340 92.5 c 128,-1,34
 358 110 358 110 358 148 c 2,25,-1
EndSplineSet
Position2: "'cpsp' Capital Spacing in Latin lookup 0 subtable" dx=5 dy=0 dh=10 dv=0
EndChar

StartChar: C
Encoding: 67 67 39
Width: 417
GlyphClass: 2
Flags: W
LayerCount: 2
Fore
SplineSet
377 0 m 1,0,-1
 255 0 l 2,1,2
 168 0 168 0 121.5 42.5 c 128,-1,3
 75 85 75 85 75 170 c 2,4,-1
 75 530 l 2,5,6
 75 615 75 615 121.5 657.5 c 128,-1,7
 168 700 168 700 255 700 c 2,8,-1
 377 700 l 1,9,-1
 377 624 l 1,10,-1
 245 624 l 2,11,12
 208 624 208 624 185 602 c 128,-1,13
 162 580 162 580 162 549 c 2,14,-1
 162 151 l 2,15,16
 162 120 162 120 185 98 c 128,-1,17
 208 76 208 76 245 76 c 2,18,-1
 377 76 l 1,19,-1
 377 0 l 1,0,-1
EndSplineSet
Position2: "'cpsp' Capital Spacing in Latin lookup 0 subtable" dx=5 dy=0 dh=10 dv=0
EndChar

StartChar: D
Encoding: 68 68 40
Width: 526
GlyphClass: 2
Flags: W
LayerCount: 2
Fore
SplineSet
451 158 m 2,0,1
 451 72 451 72 411.5 36 c 128,-1,2
 372 0 372 0 281 0 c 2,3,-1
 85 0 l 1,4,-1
 85 700 l 1,5,-1
 269 700 l 2,6,7
 359 700 359 700 405 663.5 c 128,-1,8
 451 627 451 627 451 544 c 2,9,-1
 451 158 l 2,0,1
364 148 m 2,10,-1
 364 553 l 2,11,12
 364 586 364 586 344 605.5 c 128,-1,13
 324 625 324 625 291 625 c 2,14,-1
 172 625 l 1,15,-1
 172 75 l 1,16,-1
 290 75 l 2,17,18
 328 75 328 75 346 92.5 c 128,-1,19
 364 110 364 110 364 148 c 2,10,-1
EndSplineSet
Position2: "'cpsp' Capital Spacing in Latin lookup 0 subtable" dx=5 dy=0 dh=10 dv=0
EndChar

StartChar: E
Encoding: 69 69 41
Width: 473
GlyphClass: 2
Flags: W
LayerCount: 2
Fore
SplineSet
413 0 m 1,0,-1
 85 0 l 1,1,-1
 85 700 l 1,2,-1
 413 700 l 1,3,-1
 413 627 l 1,4,-1
 172 627 l 1,5,-1
 172 398 l 1,6,-1
 388 398 l 1,7,-1
 388 325 l 1,8,-1
 172 325 l 1,9,-1
 172 73 l 1,10,-1
 413 73 l 1,11,-1
 413 0 l 1,0,-1
EndSplineSet
Position2: "'cpsp' Capital Spacing in Latin lookup 0 subtable" dx=5 dy=0 dh=10 dv=0
EndChar

StartChar: F
Encoding: 70 70 42
Width: 458
GlyphClass: 2
Flags: W
LayerCount: 2
Fore
SplineSet
413 627 m 1,0,-1
 172 627 l 1,1,-1
 172 388 l 1,2,-1
 388 388 l 1,3,-1
 388 315 l 1,4,-1
 172 315 l 1,5,-1
 172 0 l 1,6,-1
 85 0 l 1,7,-1
 85 700 l 1,8,-1
 413 700 l 1,9,-1
 413 627 l 1,0,-1
EndSplineSet
Position2: "'cpsp' Capital Spacing in Latin lookup 0 subtable" dx=5 dy=0 dh=10 dv=0
EndChar

StartChar: G
Encoding: 71 71 43
Width: 490
GlyphClass: 2
Flags: W
LayerCount: 2
Fore
SplineSet
420 0 m 1,0,-1
 255 0 l 2,1,2
 168 0 168 0 121.5 42.5 c 128,-1,3
 75 85 75 85 75 170 c 2,4,-1
 75 530 l 2,5,6
 75 615 75 615 121.5 657.5 c 128,-1,7
 168 700 168 700 255 700 c 2,8,-1
 390 700 l 1,9,-1
 390 624 l 1,10,-1
 245 624 l 2,11,12
 208 624 208 624 185 602 c 128,-1,13
 162 580 162 580 162 549 c 2,14,-1
 162 151 l 2,15,16
 162 120 162 120 185 98 c 128,-1,17
 208 76 208 76 245 76 c 2,18,-1
 337 76 l 1,19,-1
 337 293 l 1,20,-1
 253 293 l 1,21,-1
 253 368 l 1,22,-1
 420 368 l 1,23,-1
 420 0 l 1,0,-1
EndSplineSet
Position2: "'cpsp' Capital Spacing in Latin lookup 0 subtable" dx=5 dy=0 dh=10 dv=0
EndChar

StartChar: H
Encoding: 72 72 44
Width: 550
GlyphClass: 2
Flags: W
LayerCount: 2
Fore
SplineSet
465 0 m 1,0,-1
 378 0 l 1,1,-1
 378 322 l 1,2,-1
 172 322 l 1,3,-1
 172 0 l 1,4,-1
 85 0 l 1,5,-1
 85 700 l 1,6,-1
 172 700 l 1,7,-1
 172 396 l 1,8,-1
 378 396 l 1,9,-1
 378 700 l 1,10,-1
 465 700 l 1,11,-1
 465 0 l 1,0,-1
EndSplineSet
Position2: "'cpsp' Capital Spacing in Latin lookup 0 subtable" dx=5 dy=0 dh=10 dv=0
EndChar

StartChar: I
Encoding: 73 73 45
Width: 317
GlyphClass: 2
Flags: W
LayerCount: 2
Fore
SplineSet
272 0 m 1,0,-1
 45 0 l 1,1,-1
 45 73 l 1,2,-1
 115 73 l 1,3,-1
 115 627 l 1,4,-1
 45 627 l 1,5,-1
 45 700 l 1,6,-1
 272 700 l 1,7,-1
 272 627 l 1,8,-1
 202 627 l 1,9,-1
 202 73 l 1,10,-1
 272 73 l 1,11,-1
 272 0 l 1,0,-1
EndSplineSet
Position2: "'cpsp' Capital Spacing in Latin lookup 0 subtable" dx=5 dy=0 dh=10 dv=0
EndChar

StartChar: J
Encoding: 74 74 46
Width: 380
GlyphClass: 2
Flags: W
LayerCount: 2
Fore
SplineSet
305 170 m 2,0,1
 305 85 305 85 258.5 42.5 c 128,-1,2
 212 0 212 0 125 0 c 2,3,-1
 30 0 l 1,4,-1
 30 76 l 1,5,-1
 135 76 l 2,6,7
 172 76 172 76 195 98 c 128,-1,8
 218 120 218 120 218 151 c 2,9,-1
 218 625 l 1,10,-1
 67 625 l 1,11,-1
 67 700 l 1,12,-1
 305 700 l 1,13,-1
 305 170 l 2,0,1
EndSplineSet
Position2: "'cpsp' Capital Spacing in Latin lookup 0 subtable" dx=5 dy=0 dh=10 dv=0
EndChar

StartChar: K
Encoding: 75 75 47
Width: 492
GlyphClass: 2
Flags: W
LayerCount: 2
Fore
SplineSet
172 0 m 1,0,-1
 85 0 l 1,1,-1
 85 700 l 1,2,-1
 172 700 l 1,3,-1
 172 398 l 1,4,-1
 357 700 l 1,5,-1
 452 700 l 1,6,-1
 262 394 l 1,7,-1
 462 0 l 1,8,-1
 364 0 l 1,9,-1
 208 318 l 1,10,-1
 172 258 l 1,11,-1
 172 0 l 1,0,-1
EndSplineSet
Position2: "'cpsp' Capital Spacing in Latin lookup 0 subtable" dx=5 dy=0 dh=10 dv=0
EndChar

StartChar: L
Encoding: 76 76 48
Width: 410
GlyphClass: 2
Flags: W
LayerCount: 2
Fore
SplineSet
395 0 m 1,0,-1
 85 0 l 1,1,-1
 85 700 l 1,2,-1
 172 700 l 1,3,-1
 172 76 l 1,4,-1
 395 76 l 1,5,-1
 395 0 l 1,0,-1
EndSplineSet
Position2: "'cpsp' Capital Spacing in Latin lookup 0 subtable" dx=5 dy=0 dh=10 dv=0
EndChar

StartChar: M
Encoding: 77 77 49
Width: 630
GlyphClass: 2
Flags: W
LayerCount: 2
Fore
SplineSet
545 0 m 1,0,-1
 462 0 l 1,1,-1
 462 628 l 1,2,-1
 355 235 l 1,3,-1
 272 235 l 1,4,-1
 165 628 l 1,5,-1
 165 0 l 1,6,-1
 85 0 l 1,7,-1
 85 700 l 1,8,-1
 226 700 l 1,9,-1
 317 342 l 1,10,-1
 407 700 l 1,11,-1
 545 700 l 1,12,-1
 545 0 l 1,0,-1
EndSplineSet
Position2: "'cpsp' Capital Spacing in Latin lookup 0 subtable" dx=5 dy=0 dh=10 dv=0
EndChar

StartChar: N
Encoding: 78 78 50
Width: 547
GlyphClass: 2
Flags: W
LayerCount: 2
Fore
SplineSet
462 0 m 1,0,-1
 319 0 l 1,1,-1
 166 626 l 1,2,-1
 166 0 l 1,3,-1
 85 0 l 1,4,-1
 85 700 l 1,5,-1
 227 700 l 1,6,-1
 381 74 l 1,7,-1
 381 700 l 1,8,-1
 462 700 l 1,9,-1
 462 0 l 1,0,-1
EndSplineSet
Position2: "'cpsp' Capital Spacing in Latin lookup 0 subtable" dx=5 dy=0 dh=10 dv=0
EndChar

StartChar: O
Encoding: 79 79 51
Width: 544
GlyphClass: 2
Flags: W
LayerCount: 2
Fore
SplineSet
469 170 m 2,0,1
 469 85 469 85 422.5 42.5 c 128,-1,2
 376 0 376 0 289 0 c 2,3,-1
 255 0 l 2,4,5
 168 0 168 0 121.5 42.5 c 128,-1,6
 75 85 75 85 75 170 c 2,7,-1
 75 530 l 2,8,9
 75 615 75 615 121.5 657.5 c 128,-1,10
 168 700 168 700 255 700 c 2,11,-1
 289 700 l 2,12,13
 376 700 376 700 422.5 657.5 c 128,-1,14
 469 615 469 615 469 530 c 2,15,-1
 469 170 l 2,0,1
382 151 m 2,16,-1
 382 549 l 2,17,18
 382 580 382 580 359 602 c 128,-1,19
 336 624 336 624 299 624 c 2,20,-1
 245 624 l 2,21,22
 208 624 208 624 185 602 c 128,-1,23
 162 580 162 580 162 549 c 2,24,-1
 162 151 l 2,25,26
 162 120 162 120 185 98 c 128,-1,27
 208 76 208 76 245 76 c 2,28,-1
 299 76 l 2,29,30
 336 76 336 76 359 98 c 128,-1,31
 382 120 382 120 382 151 c 2,16,-1
EndSplineSet
Substitution2: "'ordn' Ordinals in Latin lookup 4 subtable" ordmasculine
Substitution2: "'aalt' Access All Alternates in Latin lookup 0 subtable" ordmasculine
Position2: "'cpsp' Capital Spacing in Latin lookup 0 subtable" dx=5 dy=0 dh=10 dv=0
EndChar

StartChar: P
Encoding: 80 80 52
Width: 491
GlyphClass: 2
Flags: W
LayerCount: 2
Fore
SplineSet
436 430 m 2,0,1
 436 272 436 272 266 272 c 2,2,-1
 172 272 l 1,3,-1
 172 0 l 1,4,-1
 85 0 l 1,5,-1
 85 700 l 1,6,-1
 264 700 l 2,7,8
 436 700 436 700 436 544 c 2,9,-1
 436 430 l 2,0,1
349 420 m 2,10,-1
 349 553 l 2,11,12
 349 591 349 591 331.5 608 c 128,-1,13
 314 625 314 625 276 625 c 2,14,-1
 172 625 l 1,15,-1
 172 347 l 1,16,-1
 276 347 l 2,17,18
 314 347 314 347 331.5 364.5 c 128,-1,19
 349 382 349 382 349 420 c 2,10,-1
EndSplineSet
Position2: "'cpsp' Capital Spacing in Latin lookup 0 subtable" dx=5 dy=0 dh=10 dv=0
EndChar

StartChar: Q
Encoding: 81 81 53
Width: 544
GlyphClass: 2
Flags: W
LayerCount: 2
Fore
SplineSet
289 0 m 2,0,-1
 255 0 l 2,1,2
 168 0 168 0 121.5 42.5 c 128,-1,3
 75 85 75 85 75 170 c 2,4,-1
 75 530 l 2,5,6
 75 615 75 615 121.5 657.5 c 128,-1,7
 168 700 168 700 255 700 c 2,8,-1
 289 700 l 2,9,10
 376 700 376 700 422.5 657.5 c 128,-1,11
 469 615 469 615 469 530 c 2,12,-1
 469 170 l 2,13,14
 469 110 469 110 445 73 c 1,15,-1
 520 -2 l 1,16,-1
 463 -59 l 1,17,-1
 386 19 l 1,18,19
 347 0 347 0 289 0 c 2,0,-1
382 151 m 2,20,-1
 382 549 l 2,21,22
 382 580 382 580 359 602 c 128,-1,23
 336 624 336 624 299 624 c 2,24,-1
 245 624 l 2,25,26
 208 624 208 624 185 602 c 128,-1,27
 162 580 162 580 162 549 c 2,28,-1
 162 151 l 2,29,30
 162 120 162 120 185 98 c 128,-1,31
 208 76 208 76 245 76 c 2,32,-1
 299 76 l 2,33,34
 337 76 337 76 359.5 95.5 c 128,-1,35
 382 115 382 115 382 151 c 2,20,-1
EndSplineSet
Position2: "'cpsp' Capital Spacing in Latin lookup 0 subtable" dx=5 dy=0 dh=10 dv=0
EndChar

StartChar: R
Encoding: 82 82 54
Width: 520
GlyphClass: 2
Flags: W
LayerCount: 2
Fore
SplineSet
172 290 m 1,0,-1
 172 0 l 1,1,-1
 85 0 l 1,2,-1
 85 700 l 1,3,-1
 264 700 l 2,4,5
 436 700 436 700 436 544 c 2,6,-1
 436 448 l 2,7,8
 436 335 436 335 346 307 c 1,9,-1
 485 0 l 1,10,-1
 390 0 l 1,11,-1
 261 290 l 1,12,-1
 172 290 l 1,0,-1
349 438 m 2,13,-1
 349 553 l 2,14,15
 349 591 349 591 331.5 608 c 128,-1,16
 314 625 314 625 276 625 c 2,17,-1
 172 625 l 1,18,-1
 172 365 l 1,19,-1
 276 365 l 2,20,21
 314 365 314 365 331.5 382.5 c 128,-1,22
 349 400 349 400 349 438 c 2,13,-1
EndSplineSet
Position2: "'cpsp' Capital Spacing in Latin lookup 0 subtable" dx=5 dy=0 dh=10 dv=0
EndChar

StartChar: S
Encoding: 83 83 55
Width: 439
GlyphClass: 2
Flags: W
LayerCount: 2
Fore
SplineSet
384 170 m 2,0,1
 384 85 384 85 337.5 42.5 c 128,-1,2
 291 0 291 0 204 0 c 2,3,-1
 72 0 l 1,4,-1
 72 76 l 1,5,-1
 214 76 l 2,6,7
 251 76 251 76 274 98 c 128,-1,8
 297 120 297 120 297 151 c 2,9,-1
 297 255 l 2,10,11
 297 285 297 285 281.5 303.5 c 128,-1,12
 266 322 266 322 235 322 c 2,13,-1
 215 322 l 2,14,15
 141 322 141 322 98 365.5 c 128,-1,16
 55 409 55 409 55 492 c 2,17,-1
 55 530 l 2,18,19
 55 615 55 615 101.5 657.5 c 128,-1,20
 148 700 148 700 235 700 c 2,21,-1
 368 700 l 1,22,-1
 368 624 l 1,23,-1
 225 624 l 2,24,25
 188 624 188 624 165 602 c 128,-1,26
 142 580 142 580 142 549 c 2,27,-1
 142 473 l 2,28,29
 142 442 142 442 162 421.5 c 128,-1,30
 182 401 182 401 214 401 c 2,31,-1
 234 401 l 2,32,33
 305 401 305 401 344.5 360 c 128,-1,34
 384 319 384 319 384 236 c 2,35,-1
 384 170 l 2,0,1
EndSplineSet
Position2: "'cpsp' Capital Spacing in Latin lookup 0 subtable" dx=5 dy=0 dh=10 dv=0
EndChar

StartChar: T
Encoding: 84 84 56
Width: 425
GlyphClass: 2
Flags: W
LayerCount: 2
Fore
SplineSet
410 624 m 1,0,-1
 256 624 l 1,1,-1
 256 0 l 1,2,-1
 169 0 l 1,3,-1
 169 624 l 1,4,-1
 15 624 l 1,5,-1
 15 700 l 1,6,-1
 410 700 l 1,7,-1
 410 624 l 1,0,-1
EndSplineSet
Position2: "'cpsp' Capital Spacing in Latin lookup 0 subtable" dx=5 dy=0 dh=10 dv=0
EndChar

StartChar: U
Encoding: 85 85 57
Width: 535
GlyphClass: 2
Flags: W
LayerCount: 2
Fore
SplineSet
455 170 m 2,0,1
 455 85 455 85 408.5 42.5 c 128,-1,2
 362 0 362 0 275 0 c 2,3,-1
 260 0 l 2,4,5
 173 0 173 0 126.5 42.5 c 128,-1,6
 80 85 80 85 80 170 c 2,7,-1
 80 700 l 1,8,-1
 167 700 l 1,9,-1
 167 151 l 2,10,11
 167 120 167 120 190 98 c 128,-1,12
 213 76 213 76 250 76 c 2,13,-1
 285 76 l 2,14,15
 322 76 322 76 345 98 c 128,-1,16
 368 120 368 120 368 151 c 2,17,-1
 368 700 l 1,18,-1
 455 700 l 1,19,-1
 455 170 l 2,0,1
EndSplineSet
Position2: "'cpsp' Capital Spacing in Latin lookup 0 subtable" dx=5 dy=0 dh=10 dv=0
EndChar

StartChar: V
Encoding: 86 86 58
Width: 473
GlyphClass: 2
Flags: W
LayerCount: 2
Fore
SplineSet
438 700 m 1,0,-1
 291 0 l 1,1,-1
 172 0 l 1,2,-1
 35 700 l 1,3,-1
 123 700 l 1,4,-1
 233 88 l 1,5,-1
 352 700 l 1,6,-1
 438 700 l 1,0,-1
EndSplineSet
Position2: "'cpsp' Capital Spacing in Latin lookup 0 subtable" dx=5 dy=0 dh=10 dv=0
EndChar

StartChar: W
Encoding: 87 87 59
Width: 589
GlyphClass: 2
Flags: W
LayerCount: 2
Fore
SplineSet
539 700 m 1,0,-1
 505 0 l 1,1,-1
 369 0 l 1,2,-1
 302 304 l 1,3,-1
 229 0 l 1,4,-1
 99 0 l 1,5,-1
 65 700 l 1,6,-1
 142 700 l 1,7,-1
 172 55 l 1,8,-1
 262 405 l 1,9,-1
 344 405 l 1,10,-1
 435 55 l 1,11,-1
 466 700 l 1,12,-1
 539 700 l 1,0,-1
EndSplineSet
Position2: "'cpsp' Capital Spacing in Latin lookup 0 subtable" dx=5 dy=0 dh=10 dv=0
EndChar

StartChar: X
Encoding: 88 88 60
Width: 496
GlyphClass: 2
Flags: W
LayerCount: 2
Fore
SplineSet
461 0 m 1,0,-1
 363 0 l 1,1,-1
 249 268 l 1,2,-1
 129 0 l 1,3,-1
 35 0 l 1,4,-1
 205 362 l 1,5,-1
 50 700 l 1,6,-1
 145 700 l 1,7,-1
 250 459 l 1,8,-1
 358 700 l 1,9,-1
 451 700 l 1,10,-1
 293 363 l 1,11,-1
 461 0 l 1,0,-1
EndSplineSet
Position2: "'cpsp' Capital Spacing in Latin lookup 0 subtable" dx=5 dy=0 dh=10 dv=0
EndChar

StartChar: Y
Encoding: 89 89 61
Width: 491
GlyphClass: 2
Flags: W
LayerCount: 2
Fore
SplineSet
289 0 m 1,0,-1
 199 0 l 1,1,-1
 199 325 l 1,2,-1
 20 700 l 1,3,-1
 116 700 l 1,4,-1
 248 409 l 1,5,-1
 380 700 l 1,6,-1
 471 700 l 1,7,-1
 289 325 l 1,8,-1
 289 0 l 1,0,-1
EndSplineSet
Position2: "'cpsp' Capital Spacing in Latin lookup 0 subtable" dx=5 dy=0 dh=10 dv=0
EndChar

StartChar: Z
Encoding: 90 90 62
Width: 436
GlyphClass: 2
Flags: W
LayerCount: 2
Fore
SplineSet
381 74 m 1,0,-1
 381 0 l 1,1,-1
 45 0 l 1,2,-1
 45 88 l 1,3,-1
 303 626 l 1,4,-1
 68 626 l 1,5,-1
 68 700 l 1,6,-1
 391 700 l 1,7,-1
 391 612 l 1,8,-1
 134 74 l 1,9,-1
 381 74 l 1,0,-1
EndSplineSet
Position2: "'cpsp' Capital Spacing in Latin lookup 0 subtable" dx=5 dy=0 dh=10 dv=0
EndChar

StartChar: bracketleft
Encoding: 91 91 63
Width: 325
GlyphClass: 2
Flags: W
LayerCount: 2
Fore
SplineSet
275 -120 m 1,0,-1
 85 -120 l 1,1,-1
 85 820 l 1,2,-1
 275 820 l 1,3,-1
 275 745 l 1,4,-1
 165 745 l 1,5,-1
 165 -45 l 1,6,-1
 275 -45 l 1,7,-1
 275 -120 l 1,0,-1
EndSplineSet
EndChar

StartChar: backslash
Encoding: 92 92 64
Width: 325
GlyphClass: 2
Flags: W
LayerCount: 2
Fore
SplineSet
241 -110 m 1,0,-1
 5 810 l 1,1,-1
 84 810 l 1,2,-1
 320 -110 l 1,3,-1
 241 -110 l 1,0,-1
EndSplineSet
EndChar

StartChar: bracketright
Encoding: 93 93 65
Width: 325
GlyphClass: 2
Flags: W
LayerCount: 2
Fore
SplineSet
240 -120 m 1,0,-1
 50 -120 l 1,1,-1
 50 -45 l 1,2,-1
 160 -45 l 1,3,-1
 160 745 l 1,4,-1
 50 745 l 1,5,-1
 50 820 l 1,6,-1
 240 820 l 1,7,-1
 240 -120 l 1,0,-1
EndSplineSet
EndChar

StartChar: asciicircum
Encoding: 94 94 66
Width: 487
GlyphClass: 2
Flags: W
LayerCount: 2
Fore
SplineSet
442 420 m 1,0,-1
 351 420 l 1,1,-1
 247 700 l 1,2,-1
 133 420 l 1,3,-1
 45 420 l 1,4,-1
 189 760 l 1,5,-1
 303 760 l 1,6,-1
 442 420 l 1,0,-1
EndSplineSet
EndChar

StartChar: underscore
Encoding: 95 95 67
Width: 510
GlyphClass: 2
Flags: W
LayerCount: 2
Fore
SplineSet
507 -170 m 1,0,-1
 3 -170 l 1,1,-1
 3 -95 l 1,2,-1
 507 -95 l 1,3,-1
 507 -170 l 1,0,-1
EndSplineSet
EndChar

StartChar: grave
Encoding: 96 96 68
Width: 303
GlyphClass: 2
Flags: W
LayerCount: 2
Fore
SplineSet
265 580 m 1,0,-1
 179 580 l 1,1,-1
 52 715 l 1,2,-1
 161 715 l 1,3,-1
 265 580 l 1,0,-1
EndSplineSet
EndChar

StartChar: a
Encoding: 97 97 69
Width: 470
GlyphClass: 2
Flags: W
LayerCount: 2
Fore
SplineSet
430 0 m 1,0,-1
 375 0 l 2,1,2
 345 0 345 0 320 30 c 1,3,4
 297 0 297 0 259 0 c 2,5,-1
 190 0 l 2,6,7
 114 0 114 0 79.5 30.5 c 128,-1,8
 45 61 45 61 45 135 c 2,9,-1
 45 155 l 2,10,11
 45 310 45 310 191 310 c 2,12,-1
 295 310 l 1,13,-1
 295 360 l 2,14,15
 295 425 295 425 220 425 c 2,16,-1
 85 425 l 1,17,-1
 85 500 l 1,18,-1
 210 500 l 2,19,20
 297 500 297 500 338.5 462 c 128,-1,21
 380 424 380 424 380 340 c 2,22,-1
 380 100 l 2,23,24
 380 70 380 70 430 70 c 1,25,-1
 430 0 l 1,0,-1
249 75 m 2,26,27
 282 75 282 75 290 93 c 1,28,29
 295 107 295 107 295 125 c 2,30,-1
 295 235 l 1,31,-1
 190 235 l 2,32,33
 164 235 164 235 147 218 c 128,-1,34
 130 201 130 201 130 175 c 2,35,-1
 130 125 l 2,36,37
 130 99 130 99 142 87 c 128,-1,38
 154 75 154 75 180 75 c 2,39,-1
 249 75 l 2,26,27
EndSplineSet
Substitution2: "'ordn' Ordinals in Latin lookup 4 subtable" ordfeminine
Substitution2: "'aalt' Access All Alternates in Latin lookup 0 subtable" ordfeminine
EndChar

StartChar: b
Encoding: 98 98 70
Width: 496
GlyphClass: 2
Flags: W
LayerCount: 2
Fore
SplineSet
426 160 m 2,0,1
 426 76 426 76 384.5 38 c 128,-1,2
 343 0 343 0 256 0 c 2,3,-1
 80 0 l 1,4,-1
 80 700 l 1,5,-1
 165 700 l 1,6,-1
 165 480 l 1,7,8
 195 500 195 500 240 500 c 2,9,-1
 256 500 l 2,10,11
 344 500 344 500 385 462.5 c 128,-1,12
 426 425 426 425 426 340 c 2,13,-1
 426 160 l 2,0,1
230 425 m 2,14,15
 197 425 197 425 181 407.5 c 128,-1,16
 165 390 165 390 165 370 c 2,17,-1
 165 75 l 1,18,-1
 266 75 l 2,19,20
 341 75 341 75 341 140 c 2,21,-1
 341 360 l 2,22,23
 341 425 341 425 266 425 c 2,24,-1
 230 425 l 2,14,15
EndSplineSet
EndChar

StartChar: c
Encoding: 99 99 71
Width: 399
GlyphClass: 2
Flags: W
LayerCount: 2
Fore
SplineSet
349 0 m 1,0,-1
 240 0 l 2,1,2
 152 0 152 0 111 37.5 c 128,-1,3
 70 75 70 75 70 160 c 2,4,-1
 70 340 l 2,5,6
 70 424 70 424 111.5 462 c 128,-1,7
 153 500 153 500 240 500 c 2,8,-1
 349 500 l 1,9,-1
 349 425 l 1,10,-1
 230 425 l 2,11,12
 155 425 155 425 155 360 c 2,13,-1
 155 140 l 2,14,15
 155 75 155 75 230 75 c 2,16,-1
 349 75 l 1,17,-1
 349 0 l 1,0,-1
EndSplineSet
EndChar

StartChar: d
Encoding: 100 100 72
Width: 501
GlyphClass: 2
Flags: W
LayerCount: 2
Fore
SplineSet
421 0 m 1,0,-1
 341 0 l 1,1,-1
 341 23 l 1,2,3
 308 0 308 0 261 0 c 2,4,-1
 240 0 l 2,5,6
 152 0 152 0 111 37.5 c 128,-1,7
 70 75 70 75 70 160 c 2,8,-1
 70 340 l 2,9,10
 70 424 70 424 111.5 462 c 128,-1,11
 153 500 153 500 240 500 c 2,12,-1
 336 500 l 1,13,-1
 336 700 l 1,14,-1
 421 700 l 1,15,-1
 421 0 l 1,0,-1
271 75 m 2,16,17
 304 75 304 75 320 92.5 c 128,-1,18
 336 110 336 110 336 130 c 2,19,-1
 336 425 l 1,20,-1
 230 425 l 2,21,22
 155 425 155 425 155 360 c 2,23,-1
 155 140 l 2,24,25
 155 75 155 75 230 75 c 2,26,-1
 271 75 l 2,16,17
EndSplineSet
EndChar

StartChar: e
Encoding: 101 101 73
Width: 466
GlyphClass: 2
Flags: W
LayerCount: 2
Fore
SplineSet
369 0 m 1,0,-1
 240 0 l 2,1,2
 152 0 152 0 111 37.5 c 128,-1,3
 70 75 70 75 70 160 c 2,4,-1
 70 340 l 2,5,6
 70 426 70 426 107 463 c 128,-1,7
 144 500 144 500 230 500 c 2,8,-1
 257 500 l 2,9,10
 401 500 401 500 401 345 c 2,11,-1
 401 215 l 1,12,-1
 155 215 l 1,13,-1
 155 140 l 2,14,15
 155 75 155 75 230 75 c 2,16,-1
 369 75 l 1,17,-1
 369 0 l 1,0,-1
155 360 m 2,18,-1
 155 290 l 1,19,-1
 318 290 l 1,20,-1
 318 365 l 2,21,22
 318 391 318 391 301 408 c 128,-1,23
 284 425 284 425 258 425 c 2,24,-1
 220 425 l 2,25,26
 184 425 184 425 169.5 408.5 c 128,-1,27
 155 392 155 392 155 360 c 2,18,-1
EndSplineSet
EndChar

StartChar: f
Encoding: 102 102 74
Width: 306
GlyphClass: 2
Flags: W
LayerCount: 2
Fore
SplineSet
311 625 m 1,0,-1
 215 625 l 2,1,2
 199 625 199 625 189.5 616.5 c 128,-1,3
 180 608 180 608 180 595 c 2,4,-1
 180 500 l 1,5,-1
 301 500 l 1,6,-1
 301 425 l 1,7,-1
 180 425 l 1,8,-1
 180 0 l 1,9,-1
 95 0 l 1,10,-1
 95 425 l 1,11,-1
 30 425 l 1,12,-1
 30 500 l 1,13,-1
 95 500 l 1,14,-1
 95 590 l 2,15,16
 95 641 95 641 124 670.5 c 128,-1,17
 153 700 153 700 199 700 c 2,18,-1
 311 700 l 1,19,-1
 311 625 l 1,0,-1
EndSplineSet
EndChar

StartChar: g
Encoding: 103 103 75
Width: 494
GlyphClass: 2
Flags: W
LayerCount: 2
Fore
SplineSet
444 -35 m 2,0,1
 444 -170 444 -170 277 -170 c 2,2,-1
 75 -170 l 1,3,-1
 75 -95 l 1,4,-1
 287 -95 l 2,5,6
 323 -95 323 -95 341 -81 c 128,-1,7
 359 -67 359 -67 359 -45 c 2,8,-1
 359 -13 l 2,9,10
 359 37 359 37 287 37 c 2,11,-1
 120 37 l 1,12,-1
 120 175 l 1,13,14
 55 210 55 210 55 315 c 2,15,-1
 55 340 l 2,16,17
 55 424 55 424 96.5 462 c 128,-1,18
 138 500 138 500 225 500 c 2,19,-1
 429 500 l 1,20,-1
 429 315 l 2,21,22
 429 240 429 240 388 197.5 c 128,-1,23
 347 155 347 155 279 155 c 2,24,-1
 205 155 l 1,25,-1
 205 112 l 1,26,-1
 277 112 l 2,27,28
 444 112 444 112 444 -23 c 2,29,-1
 444 -35 l 2,0,1
279 230 m 2,30,31
 310 230 310 230 326 250 c 128,-1,32
 342 270 342 270 344 292 c 1,33,-1
 344 425 l 1,34,-1
 215 425 l 2,35,36
 140 425 140 425 140 360 c 2,37,-1
 140 295 l 2,38,39
 140 230 140 230 215 230 c 2,40,-1
 279 230 l 2,30,31
EndSplineSet
EndChar

StartChar: h
Encoding: 104 104 76
Width: 501
GlyphClass: 2
Flags: W
LayerCount: 2
Fore
SplineSet
165 0 m 1,0,-1
 80 0 l 1,1,-1
 80 700 l 1,2,-1
 165 700 l 1,3,-1
 165 480 l 1,4,5
 195 500 195 500 240 500 c 2,6,-1
 266 500 l 2,7,8
 347 500 347 500 386.5 462 c 128,-1,9
 426 424 426 424 426 340 c 2,10,-1
 426 0 l 1,11,-1
 341 0 l 1,12,-1
 341 360 l 2,13,14
 341 390 341 390 323.5 407.5 c 128,-1,15
 306 425 306 425 276 425 c 2,16,-1
 230 425 l 2,17,18
 198 425 198 425 181.5 408.5 c 128,-1,19
 165 392 165 392 165 373 c 2,20,-1
 165 0 l 1,0,-1
EndSplineSet
EndChar

StartChar: i
Encoding: 105 105 77
Width: 245
GlyphClass: 2
Flags: W
LayerCount: 2
Fore
SplineSet
170 610 m 1,0,-1
 75 610 l 1,1,-1
 75 700 l 1,2,-1
 170 700 l 1,3,-1
 170 610 l 1,0,-1
165 0 m 1,4,-1
 80 0 l 1,5,-1
 80 500 l 1,6,-1
 165 500 l 1,7,-1
 165 0 l 1,4,-1
EndSplineSet
EndChar

StartChar: j
Encoding: 106 106 78
Width: 245
GlyphClass: 2
Flags: W
LayerCount: 2
Fore
SplineSet
170 610 m 1,0,-1
 75 610 l 1,1,-1
 75 700 l 1,2,-1
 170 700 l 1,3,-1
 170 610 l 1,0,-1
-45 -95 m 1,4,-1
 46 -95 l 2,5,6
 62 -95 62 -95 71.5 -86.5 c 128,-1,7
 81 -78 81 -78 81 -65 c 2,8,-1
 81 500 l 1,9,-1
 166 500 l 1,10,-1
 166 -60 l 2,11,12
 166 -111 166 -111 137 -140.5 c 128,-1,13
 108 -170 108 -170 62 -170 c 2,14,-1
 -45 -170 l 1,15,-1
 -45 -95 l 1,4,-1
EndSplineSet
EndChar

StartChar: k
Encoding: 107 107 79
Width: 464
GlyphClass: 2
Flags: W
LayerCount: 2
Fore
SplineSet
165 0 m 1,0,-1
 80 0 l 1,1,-1
 80 700 l 1,2,-1
 165 700 l 1,3,-1
 165 326 l 1,4,-1
 315 500 l 1,5,-1
 422 500 l 1,6,-1
 253 307 l 1,7,-1
 429 0 l 1,8,-1
 330 0 l 1,9,-1
 193 247 l 1,10,-1
 165 214 l 1,11,-1
 165 0 l 1,0,-1
EndSplineSet
EndChar

StartChar: l
Encoding: 108 108 80
Width: 250
GlyphClass: 2
Flags: W
LayerCount: 2
Fore
SplineSet
215 0 m 1,0,-1
 160 0 l 2,1,2
 126 0 126 0 100.5 24 c 128,-1,3
 75 48 75 48 75 100 c 2,4,-1
 75 700 l 1,5,-1
 160 700 l 1,6,-1
 160 105 l 2,7,8
 160 89 160 89 168 82 c 128,-1,9
 176 75 176 75 195 75 c 2,10,-1
 215 75 l 1,11,-1
 215 0 l 1,0,-1
EndSplineSet
EndChar

StartChar: m
Encoding: 109 109 81
Width: 720
GlyphClass: 2
Flags: W
LayerCount: 2
Fore
SplineSet
165 0 m 1,0,-1
 80 0 l 1,1,-1
 80 500 l 1,2,-1
 160 500 l 1,3,-1
 160 476 l 1,4,5
 191 500 191 500 240 500 c 2,6,-1
 246 500 l 2,7,8
 337 500 337 500 376 454 c 1,9,10
 413 500 413 500 479 500 c 2,11,-1
 485 500 l 2,12,13
 566 500 566 500 605.5 462 c 128,-1,14
 645 424 645 424 645 340 c 2,15,-1
 645 0 l 1,16,-1
 560 0 l 1,17,-1
 560 360 l 2,18,19
 560 390 560 390 542.5 407.5 c 128,-1,20
 525 425 525 425 495 425 c 2,21,-1
 469 425 l 2,22,23
 438 425 438 425 422.5 406.5 c 128,-1,24
 407 388 407 388 405 367 c 1,25,-1
 405 0 l 1,26,-1
 320 0 l 1,27,-1
 320 360 l 2,28,29
 320 390 320 390 303 407.5 c 128,-1,30
 286 425 286 425 256 425 c 2,31,-1
 230 425 l 2,32,33
 198 425 198 425 181.5 408.5 c 128,-1,34
 165 392 165 392 165 373 c 2,35,-1
 165 0 l 1,0,-1
EndSplineSet
EndChar

StartChar: n
Encoding: 110 110 82
Width: 501
GlyphClass: 2
Flags: W
LayerCount: 2
Fore
SplineSet
165 0 m 1,0,-1
 80 0 l 1,1,-1
 80 500 l 1,2,-1
 160 500 l 1,3,-1
 160 476 l 1,4,5
 191 500 191 500 240 500 c 2,6,-1
 266 500 l 2,7,8
 347 500 347 500 386.5 462 c 128,-1,9
 426 424 426 424 426 340 c 2,10,-1
 426 0 l 1,11,-1
 341 0 l 1,12,-1
 341 360 l 2,13,14
 341 390 341 390 323.5 407.5 c 128,-1,15
 306 425 306 425 276 425 c 2,16,-1
 230 425 l 2,17,18
 197 425 197 425 181 407.5 c 128,-1,19
 165 390 165 390 165 370 c 2,20,-1
 165 0 l 1,0,-1
EndSplineSet
EndChar

StartChar: o
Encoding: 111 111 83
Width: 493
GlyphClass: 2
Flags: W
LayerCount: 2
Fore
SplineSet
423 160 m 2,0,1
 423 76 423 76 381.5 38 c 128,-1,2
 340 0 340 0 253 0 c 2,3,-1
 240 0 l 2,4,5
 153 0 153 0 111.5 38 c 128,-1,6
 70 76 70 76 70 160 c 2,7,-1
 70 340 l 2,8,9
 70 424 70 424 111.5 462 c 128,-1,10
 153 500 153 500 240 500 c 2,11,-1
 253 500 l 2,12,13
 340 500 340 500 381.5 462 c 128,-1,14
 423 424 423 424 423 340 c 2,15,-1
 423 160 l 2,0,1
338 140 m 2,16,-1
 338 360 l 2,17,18
 338 425 338 425 263 425 c 2,19,-1
 230 425 l 2,20,21
 155 425 155 425 155 360 c 2,22,-1
 155 140 l 2,23,24
 155 75 155 75 230 75 c 2,25,-1
 263 75 l 2,26,27
 338 75 338 75 338 140 c 2,16,-1
EndSplineSet
Substitution2: "'ordn' Ordinals in Latin lookup 4 subtable" ordmasculine
Substitution2: "'aalt' Access All Alternates in Latin lookup 0 subtable" ordmasculine
EndChar

StartChar: p
Encoding: 112 112 84
Width: 496
GlyphClass: 2
Flags: W
LayerCount: 2
Fore
SplineSet
165 -170 m 1,0,-1
 80 -170 l 1,1,-1
 80 500 l 1,2,-1
 160 500 l 1,3,-1
 160 476 l 1,4,5
 191 500 191 500 240 500 c 2,6,-1
 256 500 l 2,7,8
 344 500 344 500 385 462.5 c 128,-1,9
 426 425 426 425 426 340 c 2,10,-1
 426 160 l 2,11,12
 426 76 426 76 384.5 38 c 128,-1,13
 343 0 343 0 256 0 c 2,14,-1
 165 0 l 1,15,-1
 165 -170 l 1,0,-1
230 425 m 2,16,17
 197 425 197 425 181 407.5 c 128,-1,18
 165 390 165 390 165 370 c 2,19,-1
 165 75 l 1,20,-1
 266 75 l 2,21,22
 341 75 341 75 341 140 c 2,23,-1
 341 360 l 2,24,25
 341 425 341 425 266 425 c 2,26,-1
 230 425 l 2,16,17
EndSplineSet
EndChar

StartChar: q
Encoding: 113 113 85
Width: 501
GlyphClass: 2
Flags: W
LayerCount: 2
Fore
SplineSet
421 -170 m 1,0,-1
 336 -170 l 1,1,-1
 336 20 l 1,2,3
 305 0 305 0 261 0 c 2,4,-1
 240 0 l 2,5,6
 152 0 152 0 111 37.5 c 128,-1,7
 70 75 70 75 70 160 c 2,8,-1
 70 340 l 2,9,10
 70 424 70 424 111.5 462 c 128,-1,11
 153 500 153 500 240 500 c 2,12,-1
 421 500 l 1,13,-1
 421 -170 l 1,0,-1
271 75 m 2,14,15
 304 75 304 75 320 92.5 c 128,-1,16
 336 110 336 110 336 130 c 2,17,-1
 336 425 l 1,18,-1
 230 425 l 2,19,20
 155 425 155 425 155 360 c 2,21,-1
 155 140 l 2,22,23
 155 75 155 75 230 75 c 2,24,-1
 271 75 l 2,14,15
EndSplineSet
EndChar

StartChar: r
Encoding: 114 114 86
Width: 333
GlyphClass: 2
Flags: W
LayerCount: 2
Fore
SplineSet
165 0 m 1,0,-1
 80 0 l 1,1,-1
 80 500 l 1,2,-1
 160 500 l 1,3,-1
 160 473 l 1,4,5
 193 500 193 500 240 500 c 2,6,-1
 313 500 l 1,7,-1
 313 420 l 1,8,-1
 230 420 l 2,9,10
 197 420 197 420 181 398 c 128,-1,11
 165 376 165 376 165 355 c 2,12,-1
 165 0 l 1,0,-1
EndSplineSet
EndChar

StartChar: s
Encoding: 115 115 87
Width: 399
GlyphClass: 2
Flags: W
LayerCount: 2
Fore
SplineSet
344 125 m 2,0,1
 344 0 344 0 194 0 c 2,2,-1
 65 0 l 1,3,-1
 65 75 l 1,4,-1
 204 75 l 2,5,6
 259 75 259 75 259 120 c 2,7,-1
 259 173 l 2,8,9
 259 218 259 218 216 218 c 2,10,-1
 199 218 l 2,11,12
 129 218 129 218 94.5 248.5 c 128,-1,13
 60 279 60 279 60 345 c 2,14,-1
 60 374 l 2,15,16
 60 441 60 441 98 470.5 c 128,-1,17
 136 500 136 500 210 500 c 2,18,-1
 324 500 l 1,19,-1
 324 425 l 1,20,-1
 200 425 l 2,21,22
 175 425 175 425 160 413.5 c 128,-1,23
 145 402 145 402 145 380 c 2,24,-1
 145 344 l 2,25,26
 145 321 145 321 158.5 310 c 128,-1,27
 172 299 172 299 193 299 c 2,28,-1
 207 299 l 2,29,30
 344 299 344 299 344 170 c 2,31,-1
 344 125 l 2,0,1
EndSplineSet
EndChar

StartChar: t
Encoding: 116 116 88
Width: 311
GlyphClass: 2
Flags: W
LayerCount: 2
Fore
SplineSet
286 0 m 1,0,-1
 190 0 l 2,1,2
 139 0 139 0 112 33 c 128,-1,3
 85 66 85 66 85 120 c 2,4,-1
 85 425 l 1,5,-1
 20 425 l 1,6,-1
 20 500 l 1,7,-1
 85 500 l 1,8,-1
 85 620 l 1,9,-1
 170 620 l 1,10,-1
 170 500 l 1,11,-1
 286 500 l 1,12,-1
 286 425 l 1,13,-1
 170 425 l 1,14,-1
 170 115 l 2,15,16
 170 75 170 75 215 75 c 2,17,-1
 286 75 l 1,18,-1
 286 0 l 1,0,-1
EndSplineSet
EndChar

StartChar: u
Encoding: 117 117 89
Width: 489
GlyphClass: 2
Flags: W
LayerCount: 2
Fore
SplineSet
409 0 m 1,0,-1
 329 0 l 1,1,-1
 329 23 l 1,2,3
 296 0 296 0 249 0 c 2,4,-1
 235 0 l 2,5,6
 154 0 154 0 114.5 38 c 128,-1,7
 75 76 75 76 75 160 c 2,8,-1
 75 500 l 1,9,-1
 160 500 l 1,10,-1
 160 140 l 2,11,12
 160 110 160 110 177.5 92.5 c 128,-1,13
 195 75 195 75 225 75 c 2,14,-1
 259 75 l 2,15,16
 291 75 291 75 306.5 91 c 128,-1,17
 322 107 322 107 324 127 c 1,18,-1
 324 500 l 1,19,-1
 409 500 l 1,20,-1
 409 0 l 1,0,-1
EndSplineSet
EndChar

StartChar: v
Encoding: 118 118 90
Width: 462
GlyphClass: 2
Flags: W
LayerCount: 2
Fore
SplineSet
427 500 m 1,0,-1
 293 0 l 1,1,-1
 170 0 l 1,2,-1
 35 500 l 1,3,-1
 126 500 l 1,4,-1
 234 71 l 1,5,-1
 339 500 l 1,6,-1
 427 500 l 1,0,-1
EndSplineSet
EndChar

StartChar: w
Encoding: 119 119 91
Width: 670
GlyphClass: 2
Flags: W
LayerCount: 2
Fore
SplineSet
630 500 m 1,0,-1
 531 0 l 1,1,-1
 400 0 l 1,2,-1
 337 271 l 1,3,-1
 268 0 l 1,4,-1
 140 0 l 1,5,-1
 40 500 l 1,6,-1
 128 500 l 1,7,-1
 209 64 l 1,8,-1
 298 410 l 1,9,-1
 383 410 l 1,10,-1
 466 64 l 1,11,-1
 547 500 l 1,12,-1
 630 500 l 1,0,-1
EndSplineSet
EndChar

StartChar: x
Encoding: 120 120 92
Width: 464
GlyphClass: 2
Flags: W
LayerCount: 2
Fore
SplineSet
429 0 m 1,0,-1
 329 0 l 1,1,-1
 234 185 l 1,2,-1
 134 0 l 1,3,-1
 40 0 l 1,4,-1
 185 258 l 1,5,-1
 52 500 l 1,6,-1
 150 500 l 1,7,-1
 236 335 l 1,8,-1
 323 500 l 1,9,-1
 416 500 l 1,10,-1
 281 262 l 1,11,-1
 429 0 l 1,0,-1
EndSplineSet
EndChar

StartChar: y
Encoding: 121 121 93
Width: 463
GlyphClass: 2
Flags: W
LayerCount: 2
Fore
SplineSet
159 -175 m 0,0,1
 138 -175 138 -175 102 -169 c 1,2,-1
 102 -96 l 1,3,4
 130 -100 130 -100 154 -100 c 0,5,6
 182 -100 182 -100 194 -55 c 1,7,-1
 210 0 l 1,8,-1
 190 0 l 1,9,-1
 35 500 l 1,10,-1
 127 500 l 1,11,-1
 243 87 l 1,12,-1
 341 500 l 1,13,-1
 428 500 l 1,14,-1
 283 -44 l 2,15,16
 265 -112 265 -112 240 -143.5 c 128,-1,17
 215 -175 215 -175 159 -175 c 0,0,1
EndSplineSet
EndChar

StartChar: z
Encoding: 122 122 94
Width: 403
GlyphClass: 2
Flags: W
LayerCount: 2
Fore
SplineSet
343 74 m 1,0,-1
 343 0 l 1,1,-1
 45 0 l 1,2,-1
 45 80 l 1,3,-1
 262 426 l 1,4,-1
 65 426 l 1,5,-1
 65 500 l 1,6,-1
 353 500 l 1,7,-1
 353 411 l 1,8,-1
 137 74 l 1,9,-1
 343 74 l 1,0,-1
EndSplineSet
EndChar

StartChar: braceleft
Encoding: 123 123 95
Width: 325
GlyphClass: 2
Flags: W
LayerCount: 2
Fore
SplineSet
40 295 m 1,0,-1
 40 405 l 1,1,2
 80 405 80 405 95.5 417.5 c 128,-1,3
 111 430 111 430 111 469 c 2,4,-1
 111 698 l 2,5,6
 111 765 111 765 136 792.5 c 128,-1,7
 161 820 161 820 220 820 c 2,8,-1
 265 820 l 1,9,-1
 265 750 l 1,10,-1
 234 750 l 2,11,12
 210 750 210 750 199.5 742.5 c 128,-1,13
 189 735 189 735 189 713 c 2,14,-1
 189 469 l 2,15,16
 189 419 189 419 164.5 387 c 128,-1,17
 140 355 140 355 104 349 c 1,18,19
 140 345 140 345 164.5 313 c 128,-1,20
 189 281 189 281 189 231 c 2,21,-1
 189 -13 l 2,22,23
 189 -35 189 -35 199.5 -42.5 c 128,-1,24
 210 -50 210 -50 234 -50 c 2,25,-1
 265 -50 l 1,26,-1
 265 -120 l 1,27,-1
 220 -120 l 2,28,29
 161 -120 161 -120 136 -92.5 c 128,-1,30
 111 -65 111 -65 111 2 c 2,31,-1
 111 231 l 2,32,33
 111 270 111 270 95.5 282.5 c 128,-1,34
 80 295 80 295 40 295 c 1,0,-1
EndSplineSet
EndChar

StartChar: bar
Encoding: 124 124 96
Width: 290
GlyphClass: 2
Flags: W
LayerCount: 2
Fore
SplineSet
185 -110 m 1,0,-1
 105 -110 l 1,1,-1
 105 810 l 1,2,-1
 185 810 l 1,3,-1
 185 -110 l 1,0,-1
EndSplineSet
EndChar

StartChar: braceright
Encoding: 125 125 97
Width: 325
GlyphClass: 2
Flags: W
LayerCount: 2
Fore
SplineSet
286 405 m 1,0,-1
 286 295 l 1,1,2
 246 295 246 295 230.5 282.5 c 128,-1,3
 215 270 215 270 215 231 c 2,4,-1
 215 2 l 2,5,6
 215 -65 215 -65 190 -92.5 c 128,-1,7
 165 -120 165 -120 106 -120 c 2,8,-1
 61 -120 l 1,9,-1
 61 -50 l 1,10,-1
 92 -50 l 2,11,12
 116 -50 116 -50 126.5 -42.5 c 128,-1,13
 137 -35 137 -35 137 -13 c 2,14,-1
 137 231 l 2,15,16
 137 281 137 281 161.5 313 c 128,-1,17
 186 345 186 345 222 349 c 1,18,19
 186 355 186 355 161.5 387 c 128,-1,20
 137 419 137 419 137 469 c 2,21,-1
 137 713 l 2,22,23
 137 735 137 735 126.5 742.5 c 128,-1,24
 116 750 116 750 92 750 c 2,25,-1
 61 750 l 1,26,-1
 61 820 l 1,27,-1
 106 820 l 2,28,29
 165 820 165 820 190 792.5 c 128,-1,30
 215 765 215 765 215 698 c 2,31,-1
 215 469 l 2,32,33
 215 430 215 430 230.5 417.5 c 128,-1,34
 246 405 246 405 286 405 c 1,0,-1
EndSplineSet
EndChar

StartChar: asciitilde
Encoding: 126 126 98
Width: 510
GlyphClass: 2
Flags: W
LayerCount: 2
Fore
SplineSet
182 381 m 2,0,-1
 197 381 l 2,1,2
 209 381 209 381 263 361 c 128,-1,3
 317 341 317 341 328 341 c 2,4,-1
 338 341 l 2,5,6
 349 341 349 341 406 368 c 2,7,-1
 425 377 l 1,8,-1
 425 297 l 1,9,10
 354 262 354 262 337 262 c 2,11,-1
 322 262 l 2,12,13
 316 262 316 262 259.5 282 c 128,-1,14
 203 302 203 302 192 302 c 2,15,-1
 182 302 l 2,16,17
 169 302 169 302 106 275 c 2,18,-1
 85 266 l 1,19,-1
 85 346 l 1,20,21
 163 381 163 381 182 381 c 2,0,-1
EndSplineSet
EndChar

StartChar: exclamdown
Encoding: 161 161 100
Width: 250
GlyphClass: 2
Flags: W
LayerCount: 2
Fore
SplineSet
75 500 m 1,0,-1
 175 500 l 1,1,-1
 175 400 l 1,2,-1
 75 400 l 1,3,-1
 75 500 l 1,0,-1
83 292 m 1,4,-1
 168 292 l 1,5,-1
 168 -200 l 1,6,-1
 83 -200 l 1,7,-1
 83 292 l 1,4,-1
EndSplineSet
EndChar

StartChar: cent
Encoding: 162 162 101
Width: 470
GlyphClass: 2
Flags: W
LayerCount: 2
Fore
SplineSet
317 -110 m 1,0,-1
 237 -110 l 1,1,-1
 237 0 l 1,2,3
 166 6 166 6 132.5 44 c 128,-1,4
 99 82 99 82 99 159 c 2,5,-1
 99 339 l 2,6,7
 99 416 99 416 132.5 453.5 c 128,-1,8
 166 491 166 491 237 497 c 1,9,-1
 237 600 l 1,10,-1
 317 600 l 1,11,-1
 317 499 l 1,12,-1
 378 499 l 1,13,-1
 378 424 l 1,14,-1
 259 424 l 2,15,16
 184 424 184 424 184 359 c 2,17,-1
 184 139 l 2,18,19
 184 74 184 74 259 74 c 2,20,-1
 378 74 l 1,21,-1
 378 -1 l 1,22,-1
 317 -1 l 1,23,-1
 317 -110 l 1,0,-1
EndSplineSet
EndChar

StartChar: sterling
Encoding: 163 163 102
Width: 470
GlyphClass: 2
Flags: W
LayerCount: 2
Fore
SplineSet
66 340 m 1,0,-1
 66 413 l 1,1,-1
 136 413 l 1,2,-1
 136 530 l 2,3,4
 136 615 136 615 182.5 657.5 c 128,-1,5
 229 700 229 700 316 700 c 2,6,-1
 413 700 l 1,7,-1
 413 624 l 1,8,-1
 306 624 l 2,9,10
 269 624 269 624 246 602 c 128,-1,11
 223 580 223 580 223 549 c 2,12,-1
 223 413 l 1,13,-1
 351 413 l 1,14,-1
 351 340 l 1,15,-1
 223 340 l 1,16,-1
 223 73 l 1,17,-1
 421 73 l 1,18,-1
 421 0 l 1,19,-1
 66 0 l 1,20,-1
 66 73 l 1,21,-1
 136 73 l 1,22,-1
 136 340 l 1,23,-1
 66 340 l 1,0,-1
EndSplineSet
EndChar

StartChar: currency
Encoding: 164 164 103
Width: 570
GlyphClass: 2
Flags: W
LayerCount: 2
Fore
SplineSet
96 252 m 2,0,-1
 96 350 l 2,1,2
 96 398 96 398 108 429 c 1,3,-1
 37 501 l 1,4,-1
 94 558 l 1,5,-1
 162 490 l 1,6,7
 199 510 199 510 266 510 c 2,8,-1
 303 510 l 2,9,10
 368 510 368 510 407 489 c 1,11,-1
 476 558 l 1,12,-1
 533 501 l 1,13,-1
 460 428 l 1,14,15
 473 398 473 398 473 350 c 2,16,-1
 473 252 l 2,17,18
 473 206 473 206 461 175 c 1,19,-1
 533 103 l 1,20,-1
 476 46 l 1,21,-1
 409 113 l 1,22,23
 368 92 368 92 303 92 c 2,24,-1
 266 92 l 2,25,26
 197 92 197 92 161 113 c 1,27,-1
 94 46 l 1,28,-1
 37 103 l 1,29,-1
 108 174 l 1,30,31
 96 206 96 206 96 252 c 2,0,-1
388 232 m 2,32,-1
 388 370 l 2,33,34
 388 435 388 435 313 435 c 2,35,-1
 256 435 l 2,36,37
 181 435 181 435 181 370 c 2,38,-1
 181 232 l 2,39,40
 181 167 181 167 256 167 c 2,41,-1
 313 167 l 2,42,43
 388 167 388 167 388 232 c 2,32,-1
EndSplineSet
EndChar

StartChar: yen
Encoding: 165 165 104
Width: 470
GlyphClass: 2
Flags: W
LayerCount: 2
Fore
SplineSet
409 115 m 1,0,-1
 279 115 l 1,1,-1
 279 0 l 1,2,-1
 189 0 l 1,3,-1
 189 115 l 1,4,-1
 59 115 l 1,5,-1
 59 190 l 1,6,-1
 189 190 l 1,7,-1
 189 265 l 1,8,-1
 59 265 l 1,9,-1
 59 340 l 1,10,-1
 186 340 l 1,11,-1
 20 700 l 1,12,-1
 116 700 l 1,13,-1
 238 427 l 1,14,-1
 359 700 l 1,15,-1
 450 700 l 1,16,-1
 281 340 l 1,17,-1
 409 340 l 1,18,-1
 409 265 l 1,19,-1
 279 265 l 1,20,-1
 279 190 l 1,21,-1
 409 190 l 1,22,-1
 409 115 l 1,0,-1
EndSplineSet
EndChar

StartChar: brokenbar
Encoding: 166 166 105
Width: 290
GlyphClass: 2
Flags: W
LayerCount: 2
Fore
SplineSet
185 -110 m 1,0,-1
 105 -110 l 1,1,-1
 105 250 l 1,2,-1
 185 250 l 1,3,-1
 185 -110 l 1,0,-1
185 450 m 1,4,-1
 105 450 l 1,5,-1
 105 810 l 1,6,-1
 185 810 l 1,7,-1
 185 450 l 1,4,-1
EndSplineSet
EndChar

StartChar: section
Encoding: 167 167 106
Width: 470
GlyphClass: 2
Flags: W
LayerCount: 2
Fore
SplineSet
90 355 m 2,0,1
 90 430 90 430 134 462 c 1,2,3
 104 494 104 494 104 550 c 2,4,-1
 104 560 l 2,5,6
 104 700 104 700 254 700 c 2,7,-1
 358 700 l 1,8,-1
 358 625 l 1,9,-1
 244 625 l 2,10,11
 220 625 220 625 204.5 613.5 c 128,-1,12
 189 602 189 602 189 580 c 2,13,-1
 189 540 l 2,14,15
 189 495 189 495 237 495 c 2,16,-1
 246 495 l 2,17,18
 383 495 383 495 383 350 c 2,19,-1
 383 345 l 2,20,21
 383 277 383 277 339 238 c 1,22,23
 369 216 369 216 369 150 c 2,24,-1
 369 140 l 2,25,26
 369 0 369 0 219 0 c 2,27,-1
 115 0 l 1,28,-1
 115 75 l 1,29,-1
 229 75 l 2,30,31
 253 75 253 75 268.5 86.5 c 128,-1,32
 284 98 284 98 284 120 c 2,33,-1
 284 160 l 2,34,35
 284 205 284 205 240 205 c 2,36,-1
 227 205 l 2,37,38
 90 205 90 205 90 350 c 2,39,-1
 90 355 l 2,0,1
246 420 m 2,40,-1
 210 420 l 2,41,42
 175 420 175 420 175 375 c 2,43,-1
 175 330 l 2,44,45
 175 280 175 280 228 280 c 2,46,-1
 263 280 l 2,47,48
 298 280 298 280 298 325 c 2,49,-1
 298 370 l 2,50,51
 298 394 298 394 287 407 c 128,-1,52
 276 420 276 420 246 420 c 2,40,-1
EndSplineSet
EndChar

StartChar: dieresis
Encoding: 168 168 107
Width: 355
GlyphClass: 2
Flags: W
LayerCount: 2
Fore
SplineSet
320 595 m 1,0,-1
 235 595 l 1,1,-1
 235 675 l 1,2,-1
 320 675 l 1,3,-1
 320 595 l 1,0,-1
120 595 m 1,4,-1
 35 595 l 1,5,-1
 35 675 l 1,6,-1
 120 675 l 1,7,-1
 120 595 l 1,4,-1
EndSplineSet
EndChar

StartChar: copyright
Encoding: 169 169 108
Width: 800
GlyphClass: 2
Flags: W
LayerCount: 2
Fore
SplineSet
695 170 m 2,0,1
 695 87 695 87 649.5 43.5 c 128,-1,2
 604 0 604 0 527 0 c 2,3,-1
 273 0 l 2,4,5
 196 0 196 0 150.5 43.5 c 128,-1,6
 105 87 105 87 105 170 c 2,7,-1
 105 530 l 2,8,9
 105 614 105 614 150 657 c 128,-1,10
 195 700 195 700 273 700 c 2,11,-1
 527 700 l 2,12,13
 605 700 605 700 650 657 c 128,-1,14
 695 614 695 614 695 530 c 2,15,-1
 695 170 l 2,0,1
477 157 m 1,16,-1
 403 157 l 2,17,18
 295 157 295 157 295 251 c 2,19,-1
 295 449 l 2,20,21
 295 543 295 543 403 543 c 2,22,-1
 478 543 l 1,23,-1
 478 492 l 1,24,-1
 398 492 l 2,25,26
 376 492 376 492 364 480 c 128,-1,27
 352 468 352 468 352 450 c 2,28,-1
 352 250 l 2,29,30
 352 232 352 232 364 220 c 128,-1,31
 376 208 376 208 398 208 c 2,32,-1
 477 208 l 1,33,-1
 477 157 l 1,16,-1
618 151 m 2,34,-1
 618 549 l 2,35,36
 618 582 618 582 593.5 607.5 c 128,-1,37
 569 633 569 633 527 633 c 2,38,-1
 273 633 l 2,39,40
 230 633 230 633 206 607.5 c 128,-1,41
 182 582 182 582 182 549 c 2,42,-1
 182 151 l 2,43,44
 182 118 182 118 206 92.5 c 128,-1,45
 230 67 230 67 273 67 c 2,46,-1
 527 67 l 2,47,48
 570 67 570 67 594 92.5 c 128,-1,49
 618 118 618 118 618 151 c 2,34,-1
EndSplineSet
EndChar

StartChar: ordfeminine
Encoding: 170 170 109
Width: 395
GlyphClass: 2
Flags: W
LayerCount: 2
Fore
SplineSet
337 324 m 1,0,-1
 292 324 l 2,1,2
 269 324 269 324 252 344 c 1,3,4
 235 324 235 324 209 324 c 2,5,-1
 157 324 l 2,6,7
 100 324 100 324 74 347.5 c 128,-1,8
 48 371 48 371 48 426 c 2,9,-1
 48 441 l 2,10,11
 48 557 48 557 158 557 c 2,12,-1
 232 557 l 1,13,-1
 232 595 l 2,14,15
 232 639 232 639 179 639 c 2,16,-1
 78 639 l 1,17,-1
 78 700 l 1,18,-1
 172 700 l 2,19,20
 237 700 237 700 268.5 671.5 c 128,-1,21
 300 643 300 643 300 580 c 2,22,-1
 300 399 l 2,23,24
 300 377 300 377 337 377 c 1,25,-1
 337 324 l 1,0,-1
321 0 m 1,26,-1
 70 0 l 1,27,-1
 70 75 l 1,28,-1
 321 75 l 1,29,-1
 321 0 l 1,26,-1
197 383 m 2,30,31
 213 383 213 383 221.5 390 c 128,-1,32
 230 397 230 397 231 403 c 128,-1,33
 232 409 232 409 232 420 c 2,34,-1
 232 499 l 1,35,-1
 161 499 l 2,36,37
 142 499 142 499 129 486.5 c 128,-1,38
 116 474 116 474 116 454 c 2,39,-1
 116 422 l 2,40,41
 116 383 116 383 153 383 c 2,42,-1
 197 383 l 2,30,31
EndSplineSet
EndChar

StartChar: guillemotleft
Encoding: 171 171 110
Width: 465
GlyphClass: 2
Flags: W
LayerCount: 2
Fore
SplineSet
230 92 m 1,0,-1
 164 92 l 1,1,-1
 75 299 l 1,2,-1
 164 506 l 1,3,-1
 230 506 l 1,4,-1
 167 299 l 1,5,-1
 230 92 l 1,0,-1
390 92 m 1,6,-1
 324 92 l 1,7,-1
 235 299 l 1,8,-1
 324 506 l 1,9,-1
 390 506 l 1,10,-1
 327 299 l 1,11,-1
 390 92 l 1,6,-1
EndSplineSet
EndChar

StartChar: logicalnot
Encoding: 172 172 111
Width: 575
GlyphClass: 2
Flags: W
LayerCount: 2
Fore
SplineSet
505 106 m 1,0,-1
 420 106 l 1,1,-1
 420 275 l 1,2,-1
 70 275 l 1,3,-1
 70 350 l 1,4,-1
 505 350 l 1,5,-1
 505 106 l 1,0,-1
EndSplineSet
EndChar

StartChar: uni00AD
Encoding: 173 173 112
Width: 495
GlyphClass: 2
Flags: W
LayerCount: 2
Fore
SplineSet
410 275 m 1,0,-1
 85 275 l 1,1,-1
 85 350 l 1,2,-1
 410 350 l 1,3,-1
 410 275 l 1,0,-1
EndSplineSet
EndChar

StartChar: registered
Encoding: 174 174 113
Width: 800
GlyphClass: 2
Flags: W
LayerCount: 2
Fore
SplineSet
695 170 m 2,0,1
 695 87 695 87 649.5 43.5 c 128,-1,2
 604 0 604 0 527 0 c 2,3,-1
 273 0 l 2,4,5
 196 0 196 0 150.5 43.5 c 128,-1,6
 105 87 105 87 105 170 c 2,7,-1
 105 530 l 2,8,9
 105 614 105 614 150 657 c 128,-1,10
 195 700 195 700 273 700 c 2,11,-1
 527 700 l 2,12,13
 605 700 605 700 650 657 c 128,-1,14
 695 614 695 614 695 530 c 2,15,-1
 695 170 l 2,0,1
618 151 m 2,16,-1
 618 549 l 2,17,18
 618 582 618 582 593.5 607.5 c 128,-1,19
 569 633 569 633 527 633 c 2,20,-1
 273 633 l 2,21,22
 230 633 230 633 206 607.5 c 128,-1,23
 182 582 182 582 182 549 c 2,24,-1
 182 151 l 2,25,26
 182 118 182 118 206 92.5 c 128,-1,27
 230 67 230 67 273 67 c 2,28,-1
 527 67 l 2,29,30
 570 67 570 67 594 92.5 c 128,-1,31
 618 118 618 118 618 151 c 2,16,-1
360 317 m 1,32,-1
 360 159 l 1,33,-1
 304 159 l 1,34,-1
 304 543 l 1,35,-1
 411 543 l 2,36,37
 515 543 515 543 515 457 c 2,38,-1
 515 404 l 2,39,40
 515 342 515 342 461 326 c 1,41,-1
 544 159 l 1,42,-1
 483 159 l 1,43,-1
 405 317 l 1,44,-1
 360 317 l 1,32,-1
454 403 m 2,45,-1
 454 457 l 2,46,47
 454 496 454 496 411 496 c 2,48,-1
 360 496 l 1,49,-1
 360 363 l 1,50,-1
 411 363 l 2,51,52
 454 363 454 363 454 403 c 2,45,-1
EndSplineSet
EndChar

StartChar: macron
Encoding: 175 175 114
Width: 325
GlyphClass: 2
Flags: W
LayerCount: 2
Fore
SplineSet
290 605 m 1,0,-1
 35 605 l 1,1,-1
 35 675 l 1,2,-1
 290 675 l 1,3,-1
 290 605 l 1,0,-1
EndSplineSet
EndChar

StartChar: degree
Encoding: 176 176 115
Width: 363
GlyphClass: 2
Flags: W
LayerCount: 2
Fore
SplineSet
323 516 m 2,0,1
 323 458 323 458 287 427.5 c 128,-1,2
 251 397 251 397 196 397 c 2,3,-1
 168 397 l 2,4,5
 113 397 113 397 77 427.5 c 128,-1,6
 41 458 41 458 41 516 c 2,7,-1
 41 582 l 2,8,9
 41 640 41 640 76.5 670.5 c 128,-1,10
 112 701 112 701 168 701 c 2,11,-1
 196 701 l 2,12,13
 252 701 252 701 287.5 670.5 c 128,-1,14
 323 640 323 640 323 582 c 2,15,-1
 323 516 l 2,0,1
254 513 m 2,16,-1
 254 585 l 2,17,18
 254 607 254 607 237.5 623 c 128,-1,19
 221 639 221 639 196 639 c 2,20,-1
 168 639 l 2,21,22
 143 639 143 639 126.5 623 c 128,-1,23
 110 607 110 607 110 585 c 2,24,-1
 110 513 l 2,25,26
 110 491 110 491 126.5 475 c 128,-1,27
 143 459 143 459 168 459 c 2,28,-1
 196 459 l 2,29,30
 221 459 221 459 237.5 475 c 128,-1,31
 254 491 254 491 254 513 c 2,16,-1
EndSplineSet
EndChar

StartChar: plusminus
Encoding: 177 177 116
Width: 550
GlyphClass: 2
Flags: W
LayerCount: 2
Fore
SplineSet
465 275 m 1,0,-1
 315 275 l 1,1,-1
 315 143 l 1,2,-1
 235 143 l 1,3,-1
 235 275 l 1,4,-1
 85 275 l 1,5,-1
 85 350 l 1,6,-1
 235 350 l 1,7,-1
 235 508 l 1,8,-1
 315 508 l 1,9,-1
 315 350 l 1,10,-1
 465 350 l 1,11,-1
 465 275 l 1,0,-1
465 0 m 1,12,-1
 85 0 l 1,13,-1
 85 75 l 1,14,-1
 465 75 l 1,15,-1
 465 0 l 1,12,-1
EndSplineSet
EndChar

StartChar: twosuperior
Encoding: 178 178 117
Width: 410
GlyphClass: 2
Flags: W
LayerCount: 2
Fore
SplineSet
327 205 m 1,0,-1
 87 205 l 1,1,-1
 87 278 l 1,2,-1
 199 431 l 2,3,4
 232 476 232 476 240.5 495 c 128,-1,5
 249 514 249 514 249 551 c 2,6,-1
 249 587 l 2,7,8
 249 636 249 636 188 636 c 2,9,-1
 102 636 l 1,10,-1
 102 700 l 1,11,-1
 181 700 l 2,12,13
 255 700 255 700 288.5 671.5 c 128,-1,14
 322 643 322 643 322 581 c 2,15,-1
 322 558 l 2,16,17
 322 490 322 490 300 455 c 0,18,19
 292 441 292 441 268 408 c 2,20,-1
 165 269 l 1,21,-1
 327 269 l 1,22,-1
 327 205 l 1,0,-1
EndSplineSet
EndChar

StartChar: threesuperior
Encoding: 179 179 118
Width: 410
GlyphClass: 2
Flags: W
LayerCount: 2
Fore
SplineSet
317 324 m 2,0,1
 317 261 317 261 287.5 233 c 128,-1,2
 258 205 258 205 190 205 c 2,3,-1
 94 205 l 1,4,-1
 94 269 l 1,5,-1
 187 269 l 2,6,7
 243 269 243 269 243 319 c 2,8,-1
 243 374 l 2,9,10
 243 398 243 398 228 412 c 128,-1,11
 213 426 213 426 188 426 c 2,12,-1
 117 426 l 1,13,-1
 117 490 l 1,14,-1
 180 490 l 2,15,16
 204 490 204 490 219.5 503.5 c 128,-1,17
 235 517 235 517 235 542 c 2,18,-1
 235 584 l 2,19,20
 235 613 235 613 222 624.5 c 128,-1,21
 209 636 209 636 180 636 c 2,22,-1
 94 636 l 1,23,-1
 94 700 l 1,24,-1
 181 700 l 2,25,26
 310 700 310 700 310 583 c 2,27,-1
 310 548 l 2,28,29
 310 491 310 491 266 461 c 1,30,31
 317 434 317 434 317 369 c 2,32,-1
 317 324 l 2,0,1
EndSplineSet
EndChar

StartChar: acute
Encoding: 180 180 119
Width: 303
GlyphClass: 2
Flags: W
LayerCount: 2
Fore
SplineSet
131 580 m 1,0,-1
 45 580 l 1,1,-1
 149 715 l 1,2,-1
 258 715 l 1,3,-1
 131 580 l 1,0,-1
EndSplineSet
EndChar

StartChar: mu
Encoding: 181 181 120
Width: 494
GlyphClass: 2
Flags: W
LayerCount: 2
Fore
SplineSet
165 -170 m 1,0,-1
 80 -170 l 1,1,-1
 80 500 l 1,2,-1
 165 500 l 1,3,-1
 165 140 l 2,4,5
 165 110 165 110 182.5 92.5 c 128,-1,6
 200 75 200 75 230 75 c 2,7,-1
 264 75 l 2,8,9
 297 75 297 75 313 92.5 c 128,-1,10
 329 110 329 110 329 130 c 2,11,-1
 329 500 l 1,12,-1
 414 500 l 1,13,-1
 414 0 l 1,14,-1
 334 0 l 1,15,-1
 334 23 l 1,16,17
 301 0 301 0 254 0 c 2,18,-1
 240 0 l 2,19,20
 195 0 195 0 165 10 c 1,21,-1
 165 -170 l 1,0,-1
EndSplineSet
EndChar

StartChar: paragraph
Encoding: 182 182 121
Width: 510
GlyphClass: 2
Flags: W
LayerCount: 2
Fore
SplineSet
307 0 m 1,0,-1
 224 0 l 1,1,-1
 224 374 l 1,2,-1
 218 374 l 2,3,4
 130 374 130 374 90.5 408.5 c 128,-1,5
 51 443 51 443 51 527 c 2,6,-1
 51 540 l 2,7,8
 51 625 51 625 91 662.5 c 128,-1,9
 131 700 131 700 218 700 c 2,10,-1
 307 700 l 1,11,-1
 307 630 l 1,12,-1
 207 630 l 2,13,14
 171 630 171 630 151.5 610.5 c 128,-1,15
 132 591 132 591 132 560 c 2,16,-1
 132 507 l 2,17,18
 132 442 132 442 207 442 c 2,19,-1
 307 442 l 1,20,-1
 307 0 l 1,0,-1
442 0 m 1,21,-1
 362 0 l 1,22,-1
 362 700 l 1,23,-1
 442 700 l 1,24,-1
 442 0 l 1,21,-1
EndSplineSet
EndChar

StartChar: periodcentered
Encoding: 183 183 122
Width: 230
GlyphClass: 2
Flags: W
LayerCount: 2
Fore
SplineSet
165 260 m 1,0,-1
 65 260 l 1,1,-1
 65 360 l 1,2,-1
 165 360 l 1,3,-1
 165 260 l 1,0,-1
EndSplineSet
EndChar

StartChar: cedilla
Encoding: 184 184 123
Width: 302
GlyphClass: 2
Flags: W
LayerCount: 2
Fore
SplineSet
149 -200 m 2,0,-1
 64 -200 l 1,1,-1
 64 -136 l 1,2,-1
 131 -136 l 2,3,4
 164 -136 164 -136 164 -105 c 0,5,6
 164 -88 164 -88 155.5 -82 c 128,-1,7
 147 -76 147 -76 129 -76 c 2,8,-1
 80 -76 l 1,9,-1
 80 50 l 1,10,-1
 150 50 l 1,11,-1
 150 -21 l 1,12,13
 196 -21 196 -21 216.5 -38.5 c 128,-1,14
 237 -56 237 -56 237 -96 c 128,-1,15
 237 -136 237 -136 228.5 -156.5 c 128,-1,16
 220 -177 220 -177 206 -186 c 1,17,18
 181 -200 181 -200 149 -200 c 2,0,-1
EndSplineSet
EndChar

StartChar: onesuperior
Encoding: 185 185 124
Width: 410
GlyphClass: 2
Flags: W
LayerCount: 2
Fore
SplineSet
341 205 m 1,0,-1
 102 205 l 1,1,-1
 102 269 l 1,2,-1
 193 269 l 1,3,-1
 193 633 l 1,4,-1
 94 594 l 1,5,-1
 94 662 l 1,6,-1
 185 700 l 1,7,-1
 267 700 l 1,8,-1
 267 269 l 1,9,-1
 341 269 l 1,10,-1
 341 205 l 1,0,-1
EndSplineSet
EndChar

StartChar: ordmasculine
Encoding: 186 186 125
Width: 416
GlyphClass: 2
Flags: W
LayerCount: 2
Fore
SplineSet
346 0 m 1,0,-1
 70 0 l 1,1,-1
 70 75 l 1,2,-1
 346 75 l 1,3,-1
 346 0 l 1,0,-1
338 446 m 2,4,5
 338 383 338 383 307 354.5 c 128,-1,6
 276 326 276 326 211 326 c 2,7,-1
 201 326 l 2,8,9
 135 326 135 326 104 354.5 c 128,-1,10
 73 383 73 383 73 446 c 2,11,-1
 73 582 l 2,12,13
 73 645 73 645 104 673.5 c 128,-1,14
 135 702 135 702 201 702 c 2,15,-1
 211 702 l 2,16,17
 276 702 276 702 307 673.5 c 128,-1,18
 338 645 338 645 338 582 c 2,19,-1
 338 446 l 2,4,5
270 435 m 2,20,-1
 270 593 l 2,21,22
 270 641 270 641 214 641 c 2,23,-1
 197 641 l 2,24,25
 141 641 141 641 141 593 c 2,26,-1
 141 435 l 2,27,28
 141 387 141 387 197 387 c 2,29,-1
 214 387 l 2,30,31
 270 387 270 387 270 435 c 2,20,-1
EndSplineSet
EndChar

StartChar: guillemotright
Encoding: 187 187 126
Width: 465
GlyphClass: 2
Flags: W
LayerCount: 2
Fore
SplineSet
301 92 m 1,0,-1
 235 92 l 1,1,-1
 298 299 l 1,2,-1
 235 506 l 1,3,-1
 301 506 l 1,4,-1
 390 299 l 1,5,-1
 301 92 l 1,0,-1
141 92 m 1,6,-1
 75 92 l 1,7,-1
 138 299 l 1,8,-1
 75 506 l 1,9,-1
 141 506 l 1,10,-1
 230 299 l 1,11,-1
 141 92 l 1,6,-1
EndSplineSet
EndChar

StartChar: onequarter
Encoding: 188 188 127
Width: 875
GlyphClass: 3
Flags: W
LayerCount: 2
Fore
SplineSet
331 205 m 1,0,-1
 92 205 l 1,1,-1
 92 269 l 1,2,-1
 183 269 l 1,3,-1
 183 633 l 1,4,-1
 84 594 l 1,5,-1
 84 662 l 1,6,-1
 175 700 l 1,7,-1
 257 700 l 1,8,-1
 257 269 l 1,9,-1
 331 269 l 1,10,-1
 331 205 l 1,0,-1
785 117 m 1,11,-1
 735 117 l 1,12,-1
 735 0 l 1,13,-1
 661 0 l 1,14,-1
 661 117 l 1,15,-1
 514 117 l 1,16,-1
 514 191 l 1,17,-1
 588 495 l 1,18,-1
 657 495 l 1,19,-1
 584 181 l 1,20,-1
 661 181 l 1,21,-1
 668 324 l 1,22,-1
 735 324 l 1,23,-1
 735 181 l 1,24,-1
 785 181 l 1,25,-1
 785 117 l 1,11,-1
646 810 m 1,26,-1
 326 -100 l 1,27,-1
 246 -100 l 1,28,-1
 566 810 l 1,29,-1
 646 810 l 1,26,-1
EndSplineSet
Ligature2: "'frac' Diagonal Fractions in Latin lookup 1 subtable" onesuperior fraction four
Ligature2: "'frac' Diagonal Fractions in Latin lookup 1 subtable" onesuperior slash four
Ligature2: "'frac' Diagonal Fractions in Latin lookup 1 subtable" one fraction four
Ligature2: "'frac' Diagonal Fractions in Latin lookup 1 subtable" one slash four
EndChar

StartChar: onehalf
Encoding: 189 189 128
Width: 875
GlyphClass: 3
Flags: W
LayerCount: 2
Fore
SplineSet
331 205 m 1,0,-1
 92 205 l 1,1,-1
 92 269 l 1,2,-1
 183 269 l 1,3,-1
 183 633 l 1,4,-1
 84 594 l 1,5,-1
 84 662 l 1,6,-1
 175 700 l 1,7,-1
 257 700 l 1,8,-1
 257 269 l 1,9,-1
 331 269 l 1,10,-1
 331 205 l 1,0,-1
821 0 m 1,11,-1
 581 0 l 1,12,-1
 581 73 l 1,13,-1
 693 226 l 2,14,15
 726 271 726 271 734.5 290 c 128,-1,16
 743 309 743 309 743 346 c 2,17,-1
 743 382 l 2,18,19
 743 431 743 431 682 431 c 2,20,-1
 596 431 l 1,21,-1
 596 495 l 1,22,-1
 675 495 l 2,23,24
 749 495 749 495 782.5 466.5 c 128,-1,25
 816 438 816 438 816 376 c 2,26,-1
 816 353 l 2,27,28
 816 285 816 285 794 250 c 0,29,30
 786 236 786 236 762 203 c 2,31,-1
 659 64 l 1,32,-1
 821 64 l 1,33,-1
 821 0 l 1,11,-1
651 810 m 1,34,-1
 331 -100 l 1,35,-1
 251 -100 l 1,36,-1
 581 810 l 1,37,-1
 651 810 l 1,34,-1
EndSplineSet
Ligature2: "'frac' Diagonal Fractions in Latin lookup 1 subtable" onesuperior fraction twosuperior
Ligature2: "'frac' Diagonal Fractions in Latin lookup 1 subtable" onesuperior fraction two
Ligature2: "'frac' Diagonal Fractions in Latin lookup 1 subtable" onesuperior slash twosuperior
Ligature2: "'frac' Diagonal Fractions in Latin lookup 1 subtable" onesuperior slash two
Ligature2: "'frac' Diagonal Fractions in Latin lookup 1 subtable" one fraction twosuperior
Ligature2: "'frac' Diagonal Fractions in Latin lookup 1 subtable" one fraction two
Ligature2: "'frac' Diagonal Fractions in Latin lookup 1 subtable" one slash twosuperior
Ligature2: "'frac' Diagonal Fractions in Latin lookup 1 subtable" one slash two
EndChar

StartChar: threequarters
Encoding: 190 190 129
Width: 875
GlyphClass: 3
Flags: W
LayerCount: 2
Fore
SplineSet
324 324 m 2,0,1
 324 261 324 261 294.5 233 c 128,-1,2
 265 205 265 205 197 205 c 2,3,-1
 101 205 l 1,4,-1
 101 269 l 1,5,-1
 194 269 l 2,6,7
 250 269 250 269 250 319 c 2,8,-1
 250 374 l 2,9,10
 250 398 250 398 235 412 c 128,-1,11
 220 426 220 426 195 426 c 2,12,-1
 124 426 l 1,13,-1
 124 490 l 1,14,-1
 187 490 l 2,15,16
 211 490 211 490 226.5 503.5 c 128,-1,17
 242 517 242 517 242 542 c 2,18,-1
 242 584 l 2,19,20
 242 613 242 613 229 624.5 c 128,-1,21
 216 636 216 636 187 636 c 2,22,-1
 101 636 l 1,23,-1
 101 700 l 1,24,-1
 188 700 l 2,25,26
 317 700 317 700 317 583 c 2,27,-1
 317 548 l 2,28,29
 317 491 317 491 273 461 c 1,30,31
 324 434 324 434 324 369 c 2,32,-1
 324 324 l 2,0,1
778 117 m 1,33,-1
 728 117 l 1,34,-1
 728 0 l 1,35,-1
 654 0 l 1,36,-1
 654 117 l 1,37,-1
 507 117 l 1,38,-1
 507 191 l 1,39,-1
 581 495 l 1,40,-1
 650 495 l 1,41,-1
 577 181 l 1,42,-1
 654 181 l 1,43,-1
 661 324 l 1,44,-1
 728 324 l 1,45,-1
 728 181 l 1,46,-1
 778 181 l 1,47,-1
 778 117 l 1,33,-1
635 810 m 1,48,-1
 315 -100 l 1,49,-1
 235 -100 l 1,50,-1
 555 810 l 1,51,-1
 635 810 l 1,48,-1
EndSplineSet
Ligature2: "'frac' Diagonal Fractions in Latin lookup 1 subtable" threesuperior fraction four
Ligature2: "'frac' Diagonal Fractions in Latin lookup 1 subtable" threesuperior slash four
Ligature2: "'frac' Diagonal Fractions in Latin lookup 1 subtable" three fraction four
Ligature2: "'frac' Diagonal Fractions in Latin lookup 1 subtable" three slash four
EndChar

StartChar: questiondown
Encoding: 191 191 130
Width: 360
GlyphClass: 2
Flags: W
LayerCount: 2
Fore
SplineSet
156 500 m 1,0,-1
 256 500 l 1,1,-1
 256 400 l 1,2,-1
 156 400 l 1,3,-1
 156 500 l 1,0,-1
45 -18 m 2,4,5
 45 39 45 39 55.5 62.5 c 128,-1,6
 66 86 66 86 116 142 c 2,7,-1
 164 196 l 1,8,-1
 164 292 l 1,9,-1
 249 292 l 1,10,-1
 249 171 l 1,11,-1
 196 110 l 2,12,13
 149 56 149 56 139.5 39.5 c 128,-1,14
 130 23 130 23 130 -9 c 2,15,-1
 130 -59 l 2,16,17
 130 -124 130 -124 203 -124 c 2,18,-1
 313 -124 l 1,19,-1
 313 -200 l 1,20,-1
 213 -200 l 2,21,22
 45 -200 45 -200 45 -50 c 2,23,-1
 45 -18 l 2,4,5
EndSplineSet
EndChar

StartChar: Agrave
Encoding: 192 192 131
Width: 500
GlyphClass: 2
Flags: W
LayerCount: 2
Fore
SplineSet
337 726 m 1,0,-1
 254 726 l 1,1,-1
 122 841 l 1,2,-1
 233 841 l 1,3,-1
 337 726 l 1,0,-1
330 252 m 1,4,-1
 249 627 l 1,5,-1
 169 252 l 1,6,-1
 330 252 l 1,4,-1
475 0 m 1,7,-1
 384 0 l 1,8,-1
 346 177 l 1,9,-1
 153 177 l 1,10,-1
 114 0 l 1,11,-1
 25 0 l 1,12,-1
 194 700 l 1,13,-1
 309 700 l 1,14,-1
 475 0 l 1,7,-1
EndSplineSet
Position2: "'cpsp' Capital Spacing in Latin lookup 0 subtable" dx=5 dy=0 dh=10 dv=0
EndChar

StartChar: Aacute
Encoding: 193 193 132
Width: 500
GlyphClass: 2
Flags: W
LayerCount: 2
Fore
SplineSet
244 726 m 1,0,-1
 161 726 l 1,1,-1
 265 841 l 1,2,-1
 376 841 l 1,3,-1
 244 726 l 1,0,-1
330 252 m 1,4,-1
 249 627 l 1,5,-1
 161 252 l 1,6,-1
 330 252 l 1,4,-1
475 0 m 1,7,-1
 384 0 l 1,8,-1
 346 177 l 1,9,-1
 153 177 l 1,10,-1
 114 0 l 1,11,-1
 25 0 l 1,12,-1
 194 700 l 1,13,-1
 309 700 l 1,14,-1
 475 0 l 1,7,-1
EndSplineSet
Position2: "'cpsp' Capital Spacing in Latin lookup 0 subtable" dx=5 dy=0 dh=10 dv=0
EndChar

StartChar: Acircumflex
Encoding: 194 194 133
Width: 500
GlyphClass: 2
Flags: W
LayerCount: 2
Fore
SplineSet
406 730 m 1,0,-1
 309 730 l 1,1,-1
 249 794 l 1,2,-1
 189 730 l 1,3,-1
 93 730 l 1,4,-1
 203 845 l 1,5,-1
 295 845 l 1,6,-1
 406 730 l 1,0,-1
330 252 m 1,7,-1
 249 627 l 1,8,-1
 169 252 l 1,9,-1
 330 252 l 1,7,-1
475 0 m 1,10,-1
 384 0 l 1,11,-1
 346 177 l 1,12,-1
 153 177 l 1,13,-1
 114 0 l 1,14,-1
 25 0 l 1,15,-1
 194 700 l 1,16,-1
 309 700 l 1,17,-1
 475 0 l 1,10,-1
EndSplineSet
Position2: "'cpsp' Capital Spacing in Latin lookup 0 subtable" dx=5 dy=0 dh=10 dv=0
EndChar

StartChar: Atilde
Encoding: 195 195 134
Width: 500
GlyphClass: 2
Flags: W
LayerCount: 2
Fore
SplineSet
330 252 m 1,0,-1
 249 627 l 1,1,-1
 169 252 l 1,2,-1
 330 252 l 1,0,-1
475 0 m 1,3,-1
 384 0 l 1,4,-1
 346 177 l 1,5,-1
 153 177 l 1,6,-1
 114 0 l 1,7,-1
 25 0 l 1,8,-1
 194 700 l 1,9,-1
 309 700 l 1,10,-1
 475 0 l 1,3,-1
191 840 m 2,11,-1
 206 840 l 2,12,13
 218 840 218 840 262 820 c 128,-1,14
 306 800 306 800 317 800 c 2,15,-1
 327 800 l 2,16,17
 338 800 338 800 380 827 c 2,18,-1
 394 836 l 1,19,-1
 394 764 l 1,20,21
 343 731 343 731 326 731 c 2,22,-1
 311 731 l 2,23,24
 305 731 305 731 258.5 751 c 128,-1,25
 212 771 212 771 201 771 c 2,26,-1
 191 771 l 2,27,28
 178 771 178 771 130 744 c 2,29,-1
 114 735 l 1,30,-1
 114 807 l 1,31,32
 172 840 172 840 191 840 c 2,11,-1
EndSplineSet
Position2: "'cpsp' Capital Spacing in Latin lookup 0 subtable" dx=5 dy=0 dh=10 dv=0
EndChar

StartChar: Adieresis
Encoding: 196 196 135
Width: 500
GlyphClass: 2
Flags: W
LayerCount: 2
Fore
SplineSet
330 252 m 1,0,-1
 249 627 l 1,1,-1
 169 252 l 1,2,-1
 330 252 l 1,0,-1
475 0 m 1,3,-1
 384 0 l 1,4,-1
 346 177 l 1,5,-1
 153 177 l 1,6,-1
 114 0 l 1,7,-1
 25 0 l 1,8,-1
 194 700 l 1,9,-1
 309 700 l 1,10,-1
 475 0 l 1,3,-1
313 735 m 1,11,-1
 313 815 l 1,12,-1
 384 815 l 1,13,-1
 398 735 l 1,14,-1
 313 735 l 1,11,-1
198 735 m 1,15,-1
 113 735 l 1,16,-1
 113 815 l 1,17,-1
 198 815 l 1,18,-1
 198 735 l 1,15,-1
EndSplineSet
Position2: "'cpsp' Capital Spacing in Latin lookup 0 subtable" dx=5 dy=0 dh=10 dv=0
EndChar

StartChar: Aring
Encoding: 197 197 136
Width: 500
GlyphClass: 2
Flags: W
LayerCount: 2
Fore
SplineSet
159 741 m 2,0,-1
 159 770 l 2,1,2
 159 812 159 812 183.5 833.5 c 128,-1,3
 208 855 208 855 248 855 c 2,4,-1
 254 855 l 2,5,6
 294 855 294 855 318.5 833.5 c 128,-1,7
 343 812 343 812 343 770 c 2,8,-1
 343 741 l 1,9,10
 341 696 341 696 315 675 c 1,11,-1
 475 0 l 1,12,-1
 384 0 l 1,13,-1
 346 177 l 1,14,-1
 153 177 l 1,15,-1
 114 0 l 1,16,-1
 25 0 l 1,17,-1
 188 674 l 1,18,19
 159 697 159 697 159 741 c 2,0,-1
330 252 m 1,20,-1
 249 627 l 1,21,-1
 169 252 l 1,22,-1
 330 252 l 1,20,-1
286 740 m 2,23,-1
 286 771 l 2,24,25
 286 809 286 809 254 809 c 2,26,-1
 248 809 l 2,27,28
 214 809 214 809 214 771 c 2,29,-1
 214 740 l 2,30,31
 214 702 214 702 248 702 c 2,32,-1
 254 702 l 2,33,34
 286 702 286 702 286 740 c 2,23,-1
EndSplineSet
Position2: "'cpsp' Capital Spacing in Latin lookup 0 subtable" dx=5 dy=0 dh=10 dv=0
EndChar

StartChar: AE
Encoding: 198 198 137
Width: 748
GlyphClass: 2
Flags: W
LayerCount: 2
Fore
SplineSet
688 0 m 1,0,-1
 390 0 l 1,1,-1
 370 177 l 1,2,-1
 171 177 l 1,3,-1
 114 0 l 1,4,-1
 25 0 l 1,5,-1
 264 700 l 1,6,-1
 668 700 l 1,7,-1
 668 627 l 1,8,-1
 401 627 l 1,9,-1
 428 398 l 1,10,-1
 663 398 l 1,11,-1
 663 325 l 1,12,-1
 437 325 l 1,13,-1
 467 73 l 1,14,-1
 688 73 l 1,15,-1
 688 0 l 1,0,-1
320 627 m 1,16,-1
 195 252 l 1,17,-1
 361 252 l 1,18,-1
 320 627 l 1,16,-1
EndSplineSet
Position2: "'cpsp' Capital Spacing in Latin lookup 0 subtable" dx=5 dy=0 dh=10 dv=0
EndChar

StartChar: Ccedilla
Encoding: 199 199 138
Width: 417
GlyphClass: 2
Flags: W
LayerCount: 2
Fore
SplineSet
282 -200 m 2,0,-1
 197 -200 l 1,1,-1
 197 -136 l 1,2,-1
 264 -136 l 2,3,4
 297 -136 297 -136 297 -105 c 0,5,6
 297 -88 297 -88 288.5 -82 c 128,-1,7
 280 -76 280 -76 262 -76 c 2,8,-1
 213 -76 l 1,9,-1
 213 2 l 1,10,11
 75 22 75 22 75 170 c 2,12,-1
 75 530 l 2,13,14
 75 615 75 615 121.5 657.5 c 128,-1,15
 168 700 168 700 255 700 c 2,16,-1
 377 700 l 1,17,-1
 377 624 l 1,18,-1
 245 624 l 2,19,20
 208 624 208 624 185 602 c 128,-1,21
 162 580 162 580 162 549 c 2,22,-1
 162 151 l 2,23,24
 162 120 162 120 185 98 c 128,-1,25
 208 76 208 76 245 76 c 2,26,-1
 377 76 l 1,27,-1
 377 0 l 1,28,-1
 283 0 l 1,29,-1
 283 -21 l 1,30,31
 329 -21 329 -21 349.5 -38.5 c 128,-1,32
 370 -56 370 -56 370 -96 c 128,-1,33
 370 -136 370 -136 361.5 -156.5 c 128,-1,34
 353 -177 353 -177 338 -186 c 0,35,36
 314 -200 314 -200 282 -200 c 2,0,-1
EndSplineSet
Position2: "'cpsp' Capital Spacing in Latin lookup 0 subtable" dx=5 dy=0 dh=10 dv=0
EndChar

StartChar: Egrave
Encoding: 200 200 139
Width: 473
GlyphClass: 2
Flags: W
LayerCount: 2
Fore
SplineSet
327 726 m 1,0,-1
 244 726 l 1,1,-1
 112 841 l 1,2,-1
 223 841 l 1,3,-1
 327 726 l 1,0,-1
413 0 m 1,4,-1
 85 0 l 1,5,-1
 85 700 l 1,6,-1
 413 700 l 1,7,-1
 413 627 l 1,8,-1
 172 627 l 1,9,-1
 172 398 l 1,10,-1
 388 398 l 1,11,-1
 388 325 l 1,12,-1
 172 325 l 1,13,-1
 172 73 l 1,14,-1
 413 73 l 1,15,-1
 413 0 l 1,4,-1
EndSplineSet
Position2: "'cpsp' Capital Spacing in Latin lookup 0 subtable" dx=5 dy=0 dh=10 dv=0
EndChar

StartChar: Eacute
Encoding: 201 201 140
Width: 473
GlyphClass: 2
Flags: W
LayerCount: 2
Fore
SplineSet
265 726 m 1,0,-1
 182 726 l 1,1,-1
 286 841 l 1,2,-1
 397 841 l 1,3,-1
 265 726 l 1,0,-1
413 0 m 1,4,-1
 85 0 l 1,5,-1
 85 700 l 1,6,-1
 413 700 l 1,7,-1
 413 627 l 1,8,-1
 172 627 l 1,9,-1
 172 398 l 1,10,-1
 388 398 l 1,11,-1
 388 325 l 1,12,-1
 172 325 l 1,13,-1
 172 73 l 1,14,-1
 413 73 l 1,15,-1
 413 0 l 1,4,-1
EndSplineSet
Position2: "'cpsp' Capital Spacing in Latin lookup 0 subtable" dx=5 dy=0 dh=10 dv=0
EndChar

StartChar: Ecircumflex
Encoding: 202 202 141
Width: 473
GlyphClass: 2
Flags: W
LayerCount: 2
Fore
SplineSet
406 730 m 1,0,-1
 309 730 l 1,1,-1
 249 794 l 1,2,-1
 189 730 l 1,3,-1
 93 730 l 1,4,-1
 203 845 l 1,5,-1
 295 845 l 1,6,-1
 406 730 l 1,0,-1
413 0 m 1,7,-1
 85 0 l 1,8,-1
 85 700 l 1,9,-1
 413 700 l 1,10,-1
 413 627 l 1,11,-1
 172 627 l 1,12,-1
 172 398 l 1,13,-1
 388 398 l 1,14,-1
 388 325 l 1,15,-1
 172 325 l 1,16,-1
 172 73 l 1,17,-1
 413 73 l 1,18,-1
 413 0 l 1,7,-1
EndSplineSet
Position2: "'cpsp' Capital Spacing in Latin lookup 0 subtable" dx=5 dy=0 dh=10 dv=0
EndChar

StartChar: Edieresis
Encoding: 203 203 142
Width: 473
GlyphClass: 2
Flags: W
LayerCount: 2
Fore
SplineSet
413 0 m 1,0,-1
 85 0 l 1,1,-1
 85 700 l 1,2,-1
 413 700 l 1,3,-1
 413 627 l 1,4,-1
 172 627 l 1,5,-1
 172 398 l 1,6,-1
 388 398 l 1,7,-1
 388 325 l 1,8,-1
 172 325 l 1,9,-1
 172 73 l 1,10,-1
 413 73 l 1,11,-1
 413 0 l 1,0,-1
393 735 m 1,12,-1
 308 735 l 1,13,-1
 308 815 l 1,14,-1
 393 815 l 1,15,-1
 393 735 l 1,12,-1
193 735 m 1,16,-1
 108 735 l 1,17,-1
 108 815 l 1,18,-1
 193 815 l 1,19,-1
 193 735 l 1,16,-1
EndSplineSet
Position2: "'cpsp' Capital Spacing in Latin lookup 0 subtable" dx=5 dy=0 dh=10 dv=0
EndChar

StartChar: Igrave
Encoding: 204 204 143
Width: 317
GlyphClass: 2
Flags: W
LayerCount: 2
Fore
SplineSet
253 726 m 1,0,-1
 170 726 l 1,1,-1
 38 841 l 1,2,-1
 149 841 l 1,3,-1
 253 726 l 1,0,-1
272 0 m 1,4,-1
 45 0 l 1,5,-1
 45 73 l 1,6,-1
 115 73 l 1,7,-1
 115 627 l 1,8,-1
 45 627 l 1,9,-1
 45 700 l 1,10,-1
 272 700 l 1,11,-1
 272 627 l 1,12,-1
 202 627 l 1,13,-1
 202 73 l 1,14,-1
 272 73 l 1,15,-1
 272 0 l 1,4,-1
EndSplineSet
Position2: "'cpsp' Capital Spacing in Latin lookup 0 subtable" dx=5 dy=0 dh=10 dv=0
EndChar

StartChar: Iacute
Encoding: 205 205 144
Width: 317
GlyphClass: 2
Flags: W
LayerCount: 2
Fore
SplineSet
144 726 m 1,0,-1
 61 726 l 1,1,-1
 165 841 l 1,2,-1
 276 841 l 1,3,-1
 144 726 l 1,0,-1
272 0 m 1,4,-1
 45 0 l 1,5,-1
 45 73 l 1,6,-1
 115 73 l 1,7,-1
 115 627 l 1,8,-1
 45 627 l 1,9,-1
 45 700 l 1,10,-1
 272 700 l 1,11,-1
 272 627 l 1,12,-1
 202 627 l 1,13,-1
 202 73 l 1,14,-1
 272 73 l 1,15,-1
 272 0 l 1,4,-1
EndSplineSet
Position2: "'cpsp' Capital Spacing in Latin lookup 0 subtable" dx=5 dy=0 dh=10 dv=0
EndChar

StartChar: Icircumflex
Encoding: 206 206 145
Width: 317
GlyphClass: 2
Flags: W
LayerCount: 2
Fore
SplineSet
315 730 m 1,0,-1
 218 730 l 1,1,-1
 158 794 l 1,2,-1
 98 730 l 1,3,-1
 2 730 l 1,4,-1
 112 845 l 1,5,-1
 204 845 l 1,6,-1
 315 730 l 1,0,-1
272 0 m 1,7,-1
 45 0 l 1,8,-1
 45 73 l 1,9,-1
 115 73 l 1,10,-1
 115 627 l 1,11,-1
 45 627 l 1,12,-1
 45 700 l 1,13,-1
 272 700 l 1,14,-1
 272 627 l 1,15,-1
 202 627 l 1,16,-1
 202 73 l 1,17,-1
 272 73 l 1,18,-1
 272 0 l 1,7,-1
EndSplineSet
Position2: "'cpsp' Capital Spacing in Latin lookup 0 subtable" dx=5 dy=0 dh=10 dv=0
EndChar

StartChar: Idieresis
Encoding: 207 207 146
Width: 317
GlyphClass: 2
Flags: W
LayerCount: 2
Fore
SplineSet
272 0 m 1,0,-1
 45 0 l 1,1,-1
 45 73 l 1,2,-1
 115 73 l 1,3,-1
 115 627 l 1,4,-1
 45 627 l 1,5,-1
 45 700 l 1,6,-1
 272 700 l 1,7,-1
 272 627 l 1,8,-1
 202 627 l 1,9,-1
 202 73 l 1,10,-1
 272 73 l 1,11,-1
 272 0 l 1,0,-1
301 735 m 1,12,-1
 216 735 l 1,13,-1
 216 815 l 1,14,-1
 301 815 l 1,15,-1
 301 735 l 1,12,-1
101 735 m 1,16,-1
 16 735 l 1,17,-1
 16 815 l 1,18,-1
 101 815 l 1,19,-1
 101 735 l 1,16,-1
EndSplineSet
Position2: "'cpsp' Capital Spacing in Latin lookup 0 subtable" dx=5 dy=0 dh=10 dv=0
EndChar

StartChar: Eth
Encoding: 208 208 147
Width: 531
GlyphClass: 2
Flags: W
LayerCount: 2
Fore
SplineSet
456 158 m 2,0,1
 456 72 456 72 416.5 36 c 128,-1,2
 377 0 377 0 286 0 c 2,3,-1
 90 0 l 1,4,-1
 90 325 l 1,5,-1
 25 325 l 1,6,-1
 25 400 l 1,7,-1
 90 400 l 1,8,-1
 90 700 l 1,9,-1
 274 700 l 2,10,11
 364 700 364 700 410 663.5 c 128,-1,12
 456 627 456 627 456 544 c 2,13,-1
 456 158 l 2,0,1
369 148 m 2,14,-1
 369 553 l 2,15,16
 369 586 369 586 349 605.5 c 128,-1,17
 329 625 329 625 296 625 c 2,18,-1
 177 625 l 1,19,-1
 177 400 l 1,20,-1
 295 400 l 1,21,-1
 295 325 l 1,22,-1
 177 325 l 1,23,-1
 177 75 l 1,24,-1
 295 75 l 2,25,26
 333 75 333 75 351 92.5 c 128,-1,27
 369 110 369 110 369 148 c 2,14,-1
EndSplineSet
Position2: "'cpsp' Capital Spacing in Latin lookup 0 subtable" dx=5 dy=0 dh=10 dv=0
EndChar

StartChar: Ntilde
Encoding: 209 209 148
Width: 547
GlyphClass: 2
Flags: W
LayerCount: 2
Fore
SplineSet
462 0 m 1,0,-1
 319 0 l 1,1,-1
 166 626 l 1,2,-1
 166 0 l 1,3,-1
 85 0 l 1,4,-1
 85 700 l 1,5,-1
 227 700 l 1,6,-1
 381 74 l 1,7,-1
 381 700 l 1,8,-1
 462 700 l 1,9,-1
 462 0 l 1,0,-1
214 840 m 2,10,-1
 229 840 l 2,11,12
 241 840 241 840 285 820 c 128,-1,13
 329 800 329 800 340 800 c 2,14,-1
 350 800 l 2,15,16
 361 800 361 800 403 827 c 2,17,-1
 417 836 l 1,18,-1
 417 764 l 1,19,20
 366 731 366 731 349 731 c 2,21,-1
 334 731 l 2,22,23
 328 731 328 731 281.5 751 c 128,-1,24
 235 771 235 771 224 771 c 2,25,-1
 214 771 l 2,26,27
 201 771 201 771 153 744 c 2,28,-1
 137 735 l 1,29,-1
 137 807 l 1,30,31
 195 840 195 840 214 840 c 2,10,-1
EndSplineSet
Position2: "'cpsp' Capital Spacing in Latin lookup 0 subtable" dx=5 dy=0 dh=10 dv=0
EndChar

StartChar: Ograve
Encoding: 210 210 149
Width: 544
GlyphClass: 2
Flags: W
LayerCount: 2
Fore
SplineSet
351 726 m 1,0,-1
 268 726 l 1,1,-1
 136 841 l 1,2,-1
 247 841 l 1,3,-1
 351 726 l 1,0,-1
469 170 m 2,4,5
 469 85 469 85 422.5 42.5 c 128,-1,6
 376 0 376 0 289 0 c 2,7,-1
 255 0 l 2,8,9
 168 0 168 0 121.5 42.5 c 128,-1,10
 75 85 75 85 75 170 c 2,11,-1
 75 530 l 2,12,13
 75 615 75 615 121.5 657.5 c 128,-1,14
 168 700 168 700 255 700 c 2,15,-1
 289 700 l 2,16,17
 376 700 376 700 422.5 657.5 c 128,-1,18
 469 615 469 615 469 530 c 2,19,-1
 469 170 l 2,4,5
382 151 m 2,20,-1
 382 549 l 2,21,22
 382 580 382 580 359 602 c 128,-1,23
 336 624 336 624 299 624 c 2,24,-1
 245 624 l 2,25,26
 208 624 208 624 185 602 c 128,-1,27
 162 580 162 580 162 549 c 2,28,-1
 162 151 l 2,29,30
 162 120 162 120 185 98 c 128,-1,31
 208 76 208 76 245 76 c 2,32,-1
 299 76 l 2,33,34
 336 76 336 76 359 98 c 128,-1,35
 382 120 382 120 382 151 c 2,20,-1
EndSplineSet
Position2: "'cpsp' Capital Spacing in Latin lookup 0 subtable" dx=5 dy=0 dh=10 dv=0
EndChar

StartChar: Oacute
Encoding: 211 211 150
Width: 544
GlyphClass: 2
Flags: W
LayerCount: 2
Fore
SplineSet
294 726 m 1,0,-1
 211 726 l 1,1,-1
 315 841 l 1,2,-1
 426 841 l 1,3,-1
 294 726 l 1,0,-1
469 170 m 2,4,5
 469 85 469 85 422.5 42.5 c 128,-1,6
 376 0 376 0 289 0 c 2,7,-1
 255 0 l 2,8,9
 168 0 168 0 121.5 42.5 c 128,-1,10
 75 85 75 85 75 170 c 2,11,-1
 75 530 l 2,12,13
 75 615 75 615 121.5 657.5 c 128,-1,14
 168 700 168 700 255 700 c 2,15,-1
 289 700 l 2,16,17
 376 700 376 700 422.5 657.5 c 128,-1,18
 469 615 469 615 469 530 c 2,19,-1
 469 170 l 2,4,5
382 151 m 2,20,-1
 382 549 l 2,21,22
 382 580 382 580 359 602 c 128,-1,23
 336 624 336 624 299 624 c 2,24,-1
 245 624 l 2,25,26
 208 624 208 624 185 602 c 128,-1,27
 162 580 162 580 162 549 c 2,28,-1
 162 151 l 2,29,30
 162 120 162 120 185 98 c 128,-1,31
 208 76 208 76 245 76 c 2,32,-1
 299 76 l 2,33,34
 336 76 336 76 359 98 c 128,-1,35
 382 120 382 120 382 151 c 2,20,-1
EndSplineSet
Position2: "'cpsp' Capital Spacing in Latin lookup 0 subtable" dx=5 dy=0 dh=10 dv=0
EndChar

StartChar: Ocircumflex
Encoding: 212 212 151
Width: 544
GlyphClass: 2
Flags: W
LayerCount: 2
Fore
SplineSet
426 730 m 1,0,-1
 329 730 l 1,1,-1
 269 794 l 1,2,-1
 209 730 l 1,3,-1
 113 730 l 1,4,-1
 223 845 l 1,5,-1
 315 845 l 1,6,-1
 426 730 l 1,0,-1
469 170 m 2,7,8
 469 85 469 85 422.5 42.5 c 128,-1,9
 376 0 376 0 289 0 c 2,10,-1
 255 0 l 2,11,12
 168 0 168 0 121.5 42.5 c 128,-1,13
 75 85 75 85 75 170 c 2,14,-1
 75 530 l 2,15,16
 75 615 75 615 121.5 657.5 c 128,-1,17
 168 700 168 700 255 700 c 2,18,-1
 289 700 l 2,19,20
 376 700 376 700 422.5 657.5 c 128,-1,21
 469 615 469 615 469 530 c 2,22,-1
 469 170 l 2,7,8
382 151 m 2,23,-1
 382 549 l 2,24,25
 382 580 382 580 359 602 c 128,-1,26
 336 624 336 624 299 624 c 2,27,-1
 245 624 l 2,28,29
 208 624 208 624 185 602 c 128,-1,30
 162 580 162 580 162 549 c 2,31,-1
 162 151 l 2,32,33
 162 120 162 120 185 98 c 128,-1,34
 208 76 208 76 245 76 c 2,35,-1
 299 76 l 2,36,37
 336 76 336 76 359 98 c 128,-1,38
 382 120 382 120 382 151 c 2,23,-1
EndSplineSet
Position2: "'cpsp' Capital Spacing in Latin lookup 0 subtable" dx=5 dy=0 dh=10 dv=0
EndChar

StartChar: Otilde
Encoding: 213 213 152
Width: 544
GlyphClass: 2
Flags: W
LayerCount: 2
Fore
SplineSet
469 170 m 2,0,1
 469 85 469 85 422.5 42.5 c 128,-1,2
 376 0 376 0 289 0 c 2,3,-1
 255 0 l 2,4,5
 168 0 168 0 121.5 42.5 c 128,-1,6
 75 85 75 85 75 170 c 2,7,-1
 75 530 l 2,8,9
 75 615 75 615 121.5 657.5 c 128,-1,10
 168 700 168 700 255 700 c 2,11,-1
 289 700 l 2,12,13
 376 700 376 700 422.5 657.5 c 128,-1,14
 469 615 469 615 469 530 c 2,15,-1
 469 170 l 2,0,1
382 151 m 2,16,-1
 382 549 l 2,17,18
 382 580 382 580 359 602 c 128,-1,19
 336 624 336 624 299 624 c 2,20,-1
 245 624 l 2,21,22
 208 624 208 624 185 602 c 128,-1,23
 162 580 162 580 162 549 c 2,24,-1
 162 151 l 2,25,26
 162 120 162 120 185 98 c 128,-1,27
 208 76 208 76 245 76 c 2,28,-1
 299 76 l 2,29,30
 336 76 336 76 359 98 c 128,-1,31
 382 120 382 120 382 151 c 2,16,-1
210 840 m 2,32,-1
 225 840 l 2,33,34
 237 840 237 840 281 820 c 128,-1,35
 325 800 325 800 336 800 c 2,36,-1
 346 800 l 2,37,38
 357 800 357 800 399 827 c 2,39,-1
 413 836 l 1,40,-1
 413 764 l 1,41,42
 362 731 362 731 345 731 c 2,43,-1
 330 731 l 2,44,45
 324 731 324 731 277.5 751 c 128,-1,46
 231 771 231 771 220 771 c 2,47,-1
 210 771 l 2,48,49
 197 771 197 771 149 744 c 2,50,-1
 133 735 l 1,51,-1
 133 807 l 1,52,53
 191 840 191 840 210 840 c 2,32,-1
EndSplineSet
Position2: "'cpsp' Capital Spacing in Latin lookup 0 subtable" dx=5 dy=0 dh=10 dv=0
EndChar

StartChar: Odieresis
Encoding: 214 214 153
Width: 544
GlyphClass: 2
Flags: W
LayerCount: 2
Fore
SplineSet
418 735 m 1,0,-1
 333 735 l 1,1,-1
 333 815 l 1,2,-1
 418 815 l 1,3,-1
 418 735 l 1,0,-1
218 735 m 1,4,-1
 133 735 l 1,5,-1
 133 815 l 1,6,-1
 218 815 l 1,7,-1
 218 735 l 1,4,-1
469 170 m 2,8,9
 469 85 469 85 422.5 42.5 c 128,-1,10
 376 0 376 0 289 0 c 2,11,-1
 255 0 l 2,12,13
 168 0 168 0 121.5 42.5 c 128,-1,14
 75 85 75 85 75 170 c 2,15,-1
 75 530 l 2,16,17
 75 615 75 615 121.5 657.5 c 128,-1,18
 168 700 168 700 255 700 c 2,19,-1
 289 700 l 2,20,21
 376 700 376 700 422.5 657.5 c 128,-1,22
 469 615 469 615 469 530 c 2,23,-1
 469 170 l 2,8,9
382 151 m 2,24,-1
 382 549 l 2,25,26
 382 580 382 580 359 602 c 128,-1,27
 336 624 336 624 299 624 c 2,28,-1
 245 624 l 2,29,30
 208 624 208 624 185 602 c 128,-1,31
 162 580 162 580 162 549 c 2,32,-1
 162 151 l 2,33,34
 162 120 162 120 185 98 c 128,-1,35
 208 76 208 76 245 76 c 2,36,-1
 299 76 l 2,37,38
 336 76 336 76 359 98 c 128,-1,39
 382 120 382 120 382 151 c 2,24,-1
EndSplineSet
Position2: "'cpsp' Capital Spacing in Latin lookup 0 subtable" dx=5 dy=0 dh=10 dv=0
EndChar

StartChar: multiply
Encoding: 215 215 154
Width: 550
GlyphClass: 2
Flags: W
LayerCount: 2
Fore
SplineSet
392 137 m 1,0,-1
 275 253 l 1,1,-1
 158 137 l 1,2,-1
 102 193 l 1,3,-1
 218 310 l 1,4,-1
 102 427 l 1,5,-1
 158 483 l 1,6,-1
 275 367 l 1,7,-1
 392 483 l 1,8,-1
 448 427 l 1,9,-1
 332 310 l 1,10,-1
 448 193 l 1,11,-1
 392 137 l 1,0,-1
EndSplineSet
EndChar

StartChar: Oslash
Encoding: 216 216 155
Width: 544
GlyphClass: 2
Flags: W
LayerCount: 2
Fore
SplineSet
469 170 m 2,0,1
 469 85 469 85 422.5 42.5 c 128,-1,2
 376 0 376 0 289 0 c 2,3,-1
 255 0 l 2,4,5
 239 0 239 0 215 2 c 1,6,-1
 189 -91 l 1,7,-1
 113 -91 l 1,8,-1
 145 25 l 1,9,10
 75 65 75 65 75 170 c 2,11,-1
 75 530 l 2,12,13
 75 615 75 615 121.5 657.5 c 128,-1,14
 168 700 168 700 255 700 c 2,15,-1
 289 700 l 2,16,17
 312 700 312 700 331 697 c 1,18,-1
 357 791 l 1,19,-1
 433 791 l 1,20,-1
 400 674 l 1,21,22
 469 633 469 633 469 530 c 2,23,-1
 469 170 l 2,0,1
162 151 m 2,24,25
 162 133 162 133 170 117 c 1,26,-1
 310 623 l 1,27,28
 307 624 307 624 299 624 c 2,29,-1
 245 624 l 2,30,31
 208 624 208 624 185 602 c 128,-1,32
 162 580 162 580 162 549 c 2,33,-1
 162 151 l 2,24,25
382 151 m 2,34,-1
 382 549 l 2,35,36
 382 562 382 562 375 580 c 1,37,-1
 235 76 l 1,38,-1
 299 76 l 2,39,40
 336 76 336 76 359 98 c 128,-1,41
 382 120 382 120 382 151 c 2,34,-1
EndSplineSet
Position2: "'cpsp' Capital Spacing in Latin lookup 0 subtable" dx=5 dy=0 dh=10 dv=0
EndChar

StartChar: Ugrave
Encoding: 217 217 156
Width: 535
GlyphClass: 2
Flags: W
LayerCount: 2
Fore
SplineSet
336 726 m 1,0,-1
 253 726 l 1,1,-1
 121 841 l 1,2,-1
 232 841 l 1,3,-1
 336 726 l 1,0,-1
450 170 m 2,4,5
 450 85 450 85 403.5 42.5 c 128,-1,6
 357 0 357 0 270 0 c 2,7,-1
 255 0 l 2,8,9
 168 0 168 0 121.5 42.5 c 128,-1,10
 75 85 75 85 75 170 c 2,11,-1
 75 700 l 1,12,-1
 162 700 l 1,13,-1
 162 151 l 2,14,15
 162 120 162 120 185 98 c 128,-1,16
 208 76 208 76 245 76 c 2,17,-1
 280 76 l 2,18,19
 317 76 317 76 340 98 c 128,-1,20
 363 120 363 120 363 151 c 2,21,-1
 363 700 l 1,22,-1
 450 700 l 1,23,-1
 450 170 l 2,4,5
EndSplineSet
Position2: "'cpsp' Capital Spacing in Latin lookup 0 subtable" dx=5 dy=0 dh=10 dv=0
EndChar

StartChar: Uacute
Encoding: 218 218 157
Width: 535
GlyphClass: 2
Flags: W
LayerCount: 2
Fore
SplineSet
289 726 m 1,0,-1
 206 726 l 1,1,-1
 310 841 l 1,2,-1
 421 841 l 1,3,-1
 289 726 l 1,0,-1
450 170 m 2,4,5
 450 85 450 85 403.5 42.5 c 128,-1,6
 357 0 357 0 270 0 c 2,7,-1
 255 0 l 2,8,9
 168 0 168 0 121.5 42.5 c 128,-1,10
 75 85 75 85 75 170 c 2,11,-1
 75 700 l 1,12,-1
 162 700 l 1,13,-1
 162 151 l 2,14,15
 162 120 162 120 185 98 c 128,-1,16
 208 76 208 76 245 76 c 2,17,-1
 280 76 l 2,18,19
 317 76 317 76 340 98 c 128,-1,20
 363 120 363 120 363 151 c 2,21,-1
 363 700 l 1,22,-1
 450 700 l 1,23,-1
 450 170 l 2,4,5
EndSplineSet
Position2: "'cpsp' Capital Spacing in Latin lookup 0 subtable" dx=5 dy=0 dh=10 dv=0
EndChar

StartChar: Ucircumflex
Encoding: 219 219 158
Width: 535
GlyphClass: 2
Flags: W
LayerCount: 2
Fore
SplineSet
418 730 m 1,0,-1
 321 730 l 1,1,-1
 261 794 l 1,2,-1
 201 730 l 1,3,-1
 105 730 l 1,4,-1
 215 845 l 1,5,-1
 307 845 l 1,6,-1
 418 730 l 1,0,-1
450 170 m 2,7,8
 450 85 450 85 403.5 42.5 c 128,-1,9
 357 0 357 0 270 0 c 2,10,-1
 255 0 l 2,11,12
 168 0 168 0 121.5 42.5 c 128,-1,13
 75 85 75 85 75 170 c 2,14,-1
 75 700 l 1,15,-1
 162 700 l 1,16,-1
 162 151 l 2,17,18
 162 120 162 120 185 98 c 128,-1,19
 208 76 208 76 245 76 c 2,20,-1
 280 76 l 2,21,22
 317 76 317 76 340 98 c 128,-1,23
 363 120 363 120 363 151 c 2,24,-1
 363 700 l 1,25,-1
 450 700 l 1,26,-1
 450 170 l 2,7,8
EndSplineSet
Position2: "'cpsp' Capital Spacing in Latin lookup 0 subtable" dx=5 dy=0 dh=10 dv=0
EndChar

StartChar: Udieresis
Encoding: 220 220 159
Width: 535
GlyphClass: 2
Flags: W
LayerCount: 2
Fore
SplineSet
408 735 m 1,0,-1
 323 735 l 1,1,-1
 323 815 l 1,2,-1
 408 815 l 1,3,-1
 408 735 l 1,0,-1
208 735 m 1,4,-1
 123 735 l 1,5,-1
 123 815 l 1,6,-1
 208 815 l 1,7,-1
 208 735 l 1,4,-1
450 170 m 2,8,9
 450 85 450 85 403.5 42.5 c 128,-1,10
 357 0 357 0 270 0 c 2,11,-1
 255 0 l 2,12,13
 168 0 168 0 121.5 42.5 c 128,-1,14
 75 85 75 85 75 170 c 2,15,-1
 75 700 l 1,16,-1
 162 700 l 1,17,-1
 162 151 l 2,18,19
 162 120 162 120 185 98 c 128,-1,20
 208 76 208 76 245 76 c 2,21,-1
 280 76 l 2,22,23
 317 76 317 76 340 98 c 128,-1,24
 363 120 363 120 363 151 c 2,25,-1
 363 700 l 1,26,-1
 450 700 l 1,27,-1
 450 170 l 2,8,9
EndSplineSet
Position2: "'cpsp' Capital Spacing in Latin lookup 0 subtable" dx=5 dy=0 dh=10 dv=0
EndChar

StartChar: Yacute
Encoding: 221 221 160
Width: 491
GlyphClass: 2
Flags: W
LayerCount: 2
Fore
SplineSet
269 726 m 1,0,-1
 186 726 l 1,1,-1
 290 841 l 1,2,-1
 401 841 l 1,3,-1
 269 726 l 1,0,-1
289 0 m 1,4,-1
 199 0 l 1,5,-1
 199 325 l 1,6,-1
 20 700 l 1,7,-1
 116 700 l 1,8,-1
 248 409 l 1,9,-1
 380 700 l 1,10,-1
 471 700 l 1,11,-1
 289 325 l 1,12,-1
 289 0 l 1,4,-1
EndSplineSet
Position2: "'cpsp' Capital Spacing in Latin lookup 0 subtable" dx=5 dy=0 dh=10 dv=0
EndChar

StartChar: Thorn
Encoding: 222 222 161
Width: 511
GlyphClass: 2
Flags: W
LayerCount: 2
Fore
SplineSet
436 300 m 2,0,1
 436 142 436 142 266 142 c 2,2,-1
 172 142 l 1,3,-1
 172 0 l 1,4,-1
 85 0 l 1,5,-1
 85 700 l 1,6,-1
 172 700 l 1,7,-1
 172 570 l 1,8,-1
 264 570 l 2,9,10
 436 570 436 570 436 414 c 2,11,-1
 436 300 l 2,0,1
349 290 m 2,12,-1
 349 423 l 2,13,14
 349 461 349 461 331.5 478 c 128,-1,15
 314 495 314 495 276 495 c 2,16,-1
 172 495 l 1,17,-1
 172 217 l 1,18,-1
 276 217 l 2,19,20
 314 217 314 217 331.5 234.5 c 128,-1,21
 349 252 349 252 349 290 c 2,12,-1
EndSplineSet
Position2: "'cpsp' Capital Spacing in Latin lookup 0 subtable" dx=5 dy=0 dh=10 dv=0
EndChar

StartChar: germandbls
Encoding: 223 223 162
Width: 519
GlyphClass: 2
Flags: W
LayerCount: 2
Fore
SplineSet
165 0 m 1,0,-1
 80 0 l 1,1,-1
 80 560 l 2,2,3
 80 630 80 630 123 665 c 128,-1,4
 166 700 166 700 230 700 c 2,5,-1
 256 700 l 2,6,7
 344 700 344 700 385 662.5 c 128,-1,8
 426 625 426 625 426 540 c 2,9,-1
 426 415 l 1,10,-1
 348 415 l 2,11,12
 318 415 318 415 305.5 404 c 128,-1,13
 293 393 293 393 293 370 c 2,14,-1
 293 355 l 2,15,16
 293 310 293 310 336 310 c 0,17,18
 391 310 391 310 423 278 c 128,-1,19
 455 246 455 246 455 190 c 2,20,-1
 455 125 l 2,21,22
 455 69 455 69 420 34.5 c 128,-1,23
 385 0 385 0 317 0 c 2,24,-1
 218 0 l 1,25,-1
 218 75 l 1,26,-1
 323 75 l 2,27,28
 370 75 370 75 370 120 c 2,29,-1
 370 190 l 2,30,31
 370 235 370 235 321.5 235 c 128,-1,32
 273 235 273 235 240.5 268 c 128,-1,33
 208 301 208 301 208 356 c 2,34,-1
 208 366 l 2,35,36
 208 430 208 430 242 456.5 c 128,-1,37
 276 483 276 483 341 486 c 1,38,-1
 341 560 l 2,39,40
 341 625 341 625 266 625 c 2,41,-1
 225 625 l 2,42,43
 192 625 192 625 178.5 608 c 128,-1,44
 165 591 165 591 165 570 c 2,45,-1
 165 0 l 1,0,-1
EndSplineSet
EndChar

StartChar: agrave
Encoding: 224 224 163
Width: 470
GlyphClass: 2
Flags: W
LayerCount: 2
Fore
SplineSet
430 0 m 1,0,-1
 375 0 l 2,1,2
 345 0 345 0 320 30 c 1,3,4
 297 0 297 0 259 0 c 2,5,-1
 190 0 l 2,6,7
 114 0 114 0 79.5 30.5 c 128,-1,8
 45 61 45 61 45 135 c 2,9,-1
 45 155 l 2,10,11
 45 310 45 310 191 310 c 2,12,-1
 295 310 l 1,13,-1
 295 360 l 2,14,15
 295 425 295 425 220 425 c 2,16,-1
 85 425 l 1,17,-1
 85 500 l 1,18,-1
 210 500 l 2,19,20
 297 500 297 500 338.5 462 c 128,-1,21
 380 424 380 424 380 340 c 2,22,-1
 380 100 l 2,23,24
 380 70 380 70 430 70 c 1,25,-1
 430 0 l 1,0,-1
249 75 m 2,26,27
 282 75 282 75 290 93 c 1,28,29
 295 107 295 107 295 125 c 2,30,-1
 295 235 l 1,31,-1
 190 235 l 2,32,33
 164 235 164 235 147 218 c 128,-1,34
 130 201 130 201 130 175 c 2,35,-1
 130 125 l 2,36,37
 130 99 130 99 142 87 c 128,-1,38
 154 75 154 75 180 75 c 2,39,-1
 249 75 l 2,26,27
326 580 m 1,40,-1
 240 580 l 1,41,-1
 113 715 l 1,42,-1
 222 715 l 1,43,-1
 326 580 l 1,40,-1
EndSplineSet
EndChar

StartChar: aacute
Encoding: 225 225 164
Width: 470
GlyphClass: 2
Flags: W
LayerCount: 2
Fore
SplineSet
430 0 m 1,0,-1
 375 0 l 2,1,2
 345 0 345 0 320 30 c 1,3,4
 297 0 297 0 259 0 c 2,5,-1
 190 0 l 2,6,7
 114 0 114 0 79.5 30.5 c 128,-1,8
 45 61 45 61 45 135 c 2,9,-1
 45 155 l 2,10,11
 45 310 45 310 191 310 c 2,12,-1
 295 310 l 1,13,-1
 295 360 l 2,14,15
 295 425 295 425 220 425 c 2,16,-1
 85 425 l 1,17,-1
 85 500 l 1,18,-1
 210 500 l 2,19,20
 297 500 297 500 338.5 462 c 128,-1,21
 380 424 380 424 380 340 c 2,22,-1
 380 100 l 2,23,24
 380 70 380 70 430 70 c 1,25,-1
 430 0 l 1,0,-1
249 75 m 2,26,27
 282 75 282 75 290 93 c 1,28,29
 295 107 295 107 295 125 c 2,30,-1
 295 235 l 1,31,-1
 190 235 l 2,32,33
 164 235 164 235 147 218 c 128,-1,34
 130 201 130 201 130 175 c 2,35,-1
 130 125 l 2,36,37
 130 99 130 99 142 87 c 128,-1,38
 154 75 154 75 180 75 c 2,39,-1
 249 75 l 2,26,27
260 580 m 1,40,-1
 174 580 l 1,41,-1
 278 715 l 1,42,-1
 387 715 l 1,43,-1
 260 580 l 1,40,-1
EndSplineSet
EndChar

StartChar: acircumflex
Encoding: 226 226 165
Width: 470
GlyphClass: 2
Flags: W
LayerCount: 2
Fore
SplineSet
430 0 m 1,0,-1
 375 0 l 2,1,2
 345 0 345 0 320 30 c 1,3,4
 297 0 297 0 259 0 c 2,5,-1
 190 0 l 2,6,7
 114 0 114 0 79.5 30.5 c 128,-1,8
 45 61 45 61 45 135 c 2,9,-1
 45 155 l 2,10,11
 45 310 45 310 191 310 c 2,12,-1
 295 310 l 1,13,-1
 295 360 l 2,14,15
 295 425 295 425 220 425 c 2,16,-1
 85 425 l 1,17,-1
 85 500 l 1,18,-1
 210 500 l 2,19,20
 297 500 297 500 338.5 462 c 128,-1,21
 380 424 380 424 380 340 c 2,22,-1
 380 100 l 2,23,24
 380 70 380 70 430 70 c 1,25,-1
 430 0 l 1,0,-1
249 75 m 2,26,27
 282 75 282 75 290 93 c 1,28,29
 295 107 295 107 295 125 c 2,30,-1
 295 235 l 1,31,-1
 190 235 l 2,32,33
 164 235 164 235 147 218 c 128,-1,34
 130 201 130 201 130 175 c 2,35,-1
 130 125 l 2,36,37
 130 99 130 99 142 87 c 128,-1,38
 154 75 154 75 180 75 c 2,39,-1
 249 75 l 2,26,27
377 580 m 1,40,-1
 280 580 l 1,41,-1
 220 655 l 1,42,-1
 160 580 l 1,43,-1
 64 580 l 1,44,-1
 176 715 l 1,45,-1
 264 715 l 1,46,-1
 377 580 l 1,40,-1
EndSplineSet
EndChar

StartChar: atilde
Encoding: 227 227 166
Width: 470
GlyphClass: 2
Flags: W
LayerCount: 2
Fore
SplineSet
430 0 m 1,0,-1
 375 0 l 2,1,2
 345 0 345 0 320 30 c 1,3,4
 297 0 297 0 259 0 c 2,5,-1
 190 0 l 2,6,7
 114 0 114 0 79.5 30.5 c 128,-1,8
 45 61 45 61 45 135 c 2,9,-1
 45 155 l 2,10,11
 45 310 45 310 191 310 c 2,12,-1
 295 310 l 1,13,-1
 295 360 l 2,14,15
 295 425 295 425 220 425 c 2,16,-1
 85 425 l 1,17,-1
 85 500 l 1,18,-1
 210 500 l 2,19,20
 297 500 297 500 338.5 462 c 128,-1,21
 380 424 380 424 380 340 c 2,22,-1
 380 100 l 2,23,24
 380 70 380 70 430 70 c 1,25,-1
 430 0 l 1,0,-1
249 75 m 2,26,27
 282 75 282 75 290 93 c 1,28,29
 295 107 295 107 295 125 c 2,30,-1
 295 235 l 1,31,-1
 190 235 l 2,32,33
 164 235 164 235 147 218 c 128,-1,34
 130 201 130 201 130 175 c 2,35,-1
 130 125 l 2,36,37
 130 99 130 99 142 87 c 128,-1,38
 154 75 154 75 180 75 c 2,39,-1
 249 75 l 2,26,27
162 700 m 2,40,-1
 177 700 l 2,41,42
 189 700 189 700 233 680 c 128,-1,43
 277 660 277 660 288 660 c 2,44,-1
 298 660 l 2,45,46
 309 660 309 660 351 687 c 2,47,-1
 365 696 l 1,48,-1
 365 624 l 1,49,50
 314 591 314 591 297 591 c 2,51,-1
 282 591 l 2,52,53
 276 591 276 591 229.5 611 c 128,-1,54
 183 631 183 631 172 631 c 2,55,-1
 162 631 l 2,56,57
 149 631 149 631 101 604 c 2,58,-1
 85 595 l 1,59,-1
 85 667 l 1,60,61
 143 700 143 700 162 700 c 2,40,-1
EndSplineSet
EndChar

StartChar: adieresis
Encoding: 228 228 167
Width: 470
GlyphClass: 2
Flags: W
LayerCount: 2
Fore
SplineSet
430 0 m 1,0,-1
 375 0 l 2,1,2
 345 0 345 0 320 30 c 1,3,4
 297 0 297 0 259 0 c 2,5,-1
 190 0 l 2,6,7
 114 0 114 0 79.5 30.5 c 128,-1,8
 45 61 45 61 45 135 c 2,9,-1
 45 155 l 2,10,11
 45 310 45 310 191 310 c 2,12,-1
 295 310 l 1,13,-1
 295 360 l 2,14,15
 295 425 295 425 220 425 c 2,16,-1
 85 425 l 1,17,-1
 85 500 l 1,18,-1
 210 500 l 2,19,20
 297 500 297 500 338.5 462 c 128,-1,21
 380 424 380 424 380 340 c 2,22,-1
 380 100 l 2,23,24
 380 70 380 70 430 70 c 1,25,-1
 430 0 l 1,0,-1
249 75 m 2,26,27
 282 75 282 75 290 93 c 1,28,29
 295 107 295 107 295 125 c 2,30,-1
 295 235 l 1,31,-1
 190 235 l 2,32,33
 164 235 164 235 147 218 c 128,-1,34
 130 201 130 201 130 175 c 2,35,-1
 130 125 l 2,36,37
 130 99 130 99 142 87 c 128,-1,38
 154 75 154 75 180 75 c 2,39,-1
 249 75 l 2,26,27
369 595 m 1,40,-1
 284 595 l 1,41,-1
 284 675 l 1,42,-1
 369 675 l 1,43,-1
 369 595 l 1,40,-1
169 595 m 1,44,-1
 84 595 l 1,45,-1
 84 675 l 1,46,-1
 169 675 l 1,47,-1
 169 595 l 1,44,-1
EndSplineSet
EndChar

StartChar: aring
Encoding: 229 229 168
Width: 470
GlyphClass: 2
Flags: W
LayerCount: 2
Fore
SplineSet
305 633 m 2,0,1
 305 592 305 592 280 570 c 128,-1,2
 255 548 255 548 216 548 c 2,3,-1
 210 548 l 2,4,5
 171 548 171 548 146 570 c 128,-1,6
 121 592 121 592 121 633 c 2,7,-1
 121 662 l 2,8,9
 121 704 121 704 145.5 725.5 c 128,-1,10
 170 747 170 747 210 747 c 2,11,-1
 216 747 l 2,12,13
 256 747 256 747 280.5 725.5 c 128,-1,14
 305 704 305 704 305 662 c 2,15,-1
 305 633 l 2,0,1
248 632 m 2,16,-1
 248 663 l 2,17,18
 248 701 248 701 216 701 c 2,19,-1
 210 701 l 2,20,21
 176 701 176 701 176 663 c 2,22,-1
 176 632 l 2,23,24
 176 594 176 594 210 594 c 2,25,-1
 216 594 l 2,26,27
 248 594 248 594 248 632 c 2,16,-1
430 0 m 1,28,-1
 375 0 l 2,29,30
 345 0 345 0 320 30 c 1,31,32
 297 0 297 0 259 0 c 2,33,-1
 190 0 l 2,34,35
 114 0 114 0 79.5 30.5 c 128,-1,36
 45 61 45 61 45 135 c 2,37,-1
 45 155 l 2,38,39
 45 310 45 310 191 310 c 2,40,-1
 295 310 l 1,41,-1
 295 360 l 2,42,43
 295 425 295 425 220 425 c 2,44,-1
 85 425 l 1,45,-1
 85 500 l 1,46,-1
 210 500 l 2,47,48
 297 500 297 500 338.5 462 c 128,-1,49
 380 424 380 424 380 340 c 2,50,-1
 380 100 l 2,51,52
 380 70 380 70 430 70 c 1,53,-1
 430 0 l 1,28,-1
249 75 m 2,54,55
 282 75 282 75 290 93 c 1,56,57
 295 107 295 107 295 125 c 2,58,-1
 295 235 l 1,59,-1
 190 235 l 2,60,61
 164 235 164 235 147 218 c 128,-1,62
 130 201 130 201 130 175 c 2,63,-1
 130 125 l 2,64,65
 130 99 130 99 142 87 c 128,-1,66
 154 75 154 75 180 75 c 2,67,-1
 249 75 l 2,54,55
EndSplineSet
EndChar

StartChar: ae
Encoding: 230 230 169
Width: 691
GlyphClass: 2
Flags: W
LayerCount: 2
Fore
SplineSet
594 0 m 1,0,-1
 465 0 l 2,1,2
 374 0 374 0 338 47 c 1,3,4
 328 28 328 28 306 14 c 128,-1,5
 284 0 284 0 259 0 c 2,6,-1
 190 0 l 2,7,8
 114 0 114 0 79.5 30.5 c 128,-1,9
 45 61 45 61 45 135 c 2,10,-1
 45 145 l 2,11,12
 45 300 45 300 191 300 c 2,13,-1
 295 300 l 1,14,-1
 295 360 l 2,15,16
 295 425 295 425 220 425 c 2,17,-1
 85 425 l 1,18,-1
 85 500 l 1,19,-1
 210 500 l 2,20,21
 292 500 292 500 335 463 c 1,22,23
 374 500 374 500 455 500 c 2,24,-1
 482 500 l 2,25,26
 626 500 626 500 626 345 c 2,27,-1
 626 225 l 1,28,-1
 380 225 l 1,29,-1
 380 134 l 1,30,31
 383 75 383 75 455 75 c 2,32,-1
 594 75 l 1,33,-1
 594 0 l 1,0,-1
295 125 m 2,34,-1
 295 225 l 1,35,-1
 190 225 l 2,36,37
 164 225 164 225 147 208 c 128,-1,38
 130 191 130 191 130 165 c 2,39,-1
 130 125 l 2,40,41
 130 99 130 99 142 87 c 128,-1,42
 154 75 154 75 180 75 c 2,43,-1
 249 75 l 2,44,45
 282 75 282 75 290 93 c 1,46,47
 295 107 295 107 295 125 c 2,34,-1
380 360 m 2,48,-1
 380 300 l 1,49,-1
 543 300 l 1,50,-1
 543 365 l 2,51,52
 543 391 543 391 526 408 c 128,-1,53
 509 425 509 425 483 425 c 2,54,-1
 445 425 l 2,55,56
 409 425 409 425 394.5 408.5 c 128,-1,57
 380 392 380 392 380 360 c 2,48,-1
EndSplineSet
EndChar

StartChar: ccedilla
Encoding: 231 231 170
Width: 399
GlyphClass: 2
Flags: W
LayerCount: 2
Fore
SplineSet
252 -200 m 2,0,-1
 167 -200 l 1,1,-1
 167 -136 l 1,2,-1
 234 -136 l 2,3,4
 267 -136 267 -136 267 -105 c 0,5,6
 267 -88 267 -88 258.5 -82 c 128,-1,7
 250 -76 250 -76 232 -76 c 2,8,-1
 183 -76 l 1,9,-1
 183 4 l 1,10,11
 70 25 70 25 70 160 c 2,12,-1
 70 340 l 2,13,14
 70 424 70 424 111.5 462 c 128,-1,15
 153 500 153 500 240 500 c 2,16,-1
 349 500 l 1,17,-1
 349 425 l 1,18,-1
 230 425 l 2,19,20
 155 425 155 425 155 360 c 2,21,-1
 155 140 l 2,22,23
 155 75 155 75 230 75 c 2,24,-1
 349 75 l 1,25,-1
 349 0 l 1,26,-1
 253 0 l 1,27,-1
 253 -21 l 1,28,29
 299 -21 299 -21 319.5 -38.5 c 128,-1,30
 340 -56 340 -56 340 -96 c 128,-1,31
 340 -136 340 -136 331.5 -156.5 c 128,-1,32
 323 -177 323 -177 308 -186 c 0,33,34
 284 -200 284 -200 252 -200 c 2,0,-1
EndSplineSet
EndChar

StartChar: egrave
Encoding: 232 232 171
Width: 466
GlyphClass: 2
Flags: W
LayerCount: 2
Fore
SplineSet
369 0 m 1,0,-1
 240 0 l 2,1,2
 152 0 152 0 111 37.5 c 128,-1,3
 70 75 70 75 70 160 c 2,4,-1
 70 340 l 2,5,6
 70 426 70 426 107 463 c 128,-1,7
 144 500 144 500 230 500 c 2,8,-1
 257 500 l 2,9,10
 401 500 401 500 401 345 c 2,11,-1
 401 215 l 1,12,-1
 155 215 l 1,13,-1
 155 140 l 2,14,15
 155 75 155 75 230 75 c 2,16,-1
 369 75 l 1,17,-1
 369 0 l 1,0,-1
155 360 m 2,18,-1
 155 290 l 1,19,-1
 318 290 l 1,20,-1
 318 365 l 2,21,22
 318 391 318 391 301 408 c 128,-1,23
 284 425 284 425 258 425 c 2,24,-1
 220 425 l 2,25,26
 184 425 184 425 169.5 408.5 c 128,-1,27
 155 392 155 392 155 360 c 2,18,-1
326 580 m 1,28,-1
 240 580 l 1,29,-1
 113 715 l 1,30,-1
 222 715 l 1,31,-1
 326 580 l 1,28,-1
EndSplineSet
EndChar

StartChar: eacute
Encoding: 233 233 172
Width: 466
GlyphClass: 2
Flags: W
LayerCount: 2
Fore
SplineSet
369 0 m 1,0,-1
 240 0 l 2,1,2
 152 0 152 0 111 37.5 c 128,-1,3
 70 75 70 75 70 160 c 2,4,-1
 70 340 l 2,5,6
 70 426 70 426 107 463 c 128,-1,7
 144 500 144 500 230 500 c 2,8,-1
 257 500 l 2,9,10
 401 500 401 500 401 345 c 2,11,-1
 401 215 l 1,12,-1
 155 215 l 1,13,-1
 155 140 l 2,14,15
 155 75 155 75 230 75 c 2,16,-1
 369 75 l 1,17,-1
 369 0 l 1,0,-1
155 360 m 2,18,-1
 155 290 l 1,19,-1
 318 290 l 1,20,-1
 318 365 l 2,21,22
 318 391 318 391 301 408 c 128,-1,23
 284 425 284 425 258 425 c 2,24,-1
 220 425 l 2,25,26
 184 425 184 425 169.5 408.5 c 128,-1,27
 155 392 155 392 155 360 c 2,18,-1
250 580 m 1,28,-1
 164 580 l 1,29,-1
 268 715 l 1,30,-1
 377 715 l 1,31,-1
 250 580 l 1,28,-1
EndSplineSet
EndChar

StartChar: ecircumflex
Encoding: 234 234 173
Width: 466
GlyphClass: 2
Flags: W
LayerCount: 2
Fore
SplineSet
369 0 m 1,0,-1
 240 0 l 2,1,2
 152 0 152 0 111 37.5 c 128,-1,3
 70 75 70 75 70 160 c 2,4,-1
 70 340 l 2,5,6
 70 426 70 426 107 463 c 128,-1,7
 144 500 144 500 230 500 c 2,8,-1
 257 500 l 2,9,10
 401 500 401 500 401 345 c 2,11,-1
 401 215 l 1,12,-1
 155 215 l 1,13,-1
 155 140 l 2,14,15
 155 75 155 75 230 75 c 2,16,-1
 369 75 l 1,17,-1
 369 0 l 1,0,-1
155 360 m 2,18,-1
 155 290 l 1,19,-1
 318 290 l 1,20,-1
 318 365 l 2,21,22
 318 391 318 391 301 408 c 128,-1,23
 284 425 284 425 258 425 c 2,24,-1
 220 425 l 2,25,26
 184 425 184 425 169.5 408.5 c 128,-1,27
 155 392 155 392 155 360 c 2,18,-1
399 580 m 1,28,-1
 302 580 l 1,29,-1
 242 655 l 1,30,-1
 182 580 l 1,31,-1
 86 580 l 1,32,-1
 198 715 l 1,33,-1
 286 715 l 1,34,-1
 399 580 l 1,28,-1
EndSplineSet
EndChar

StartChar: edieresis
Encoding: 235 235 174
Width: 466
GlyphClass: 2
Flags: W
LayerCount: 2
Fore
SplineSet
369 0 m 1,0,-1
 240 0 l 2,1,2
 152 0 152 0 111 37.5 c 128,-1,3
 70 75 70 75 70 160 c 2,4,-1
 70 340 l 2,5,6
 70 426 70 426 107 463 c 128,-1,7
 144 500 144 500 230 500 c 2,8,-1
 257 500 l 2,9,10
 401 500 401 500 401 345 c 2,11,-1
 401 215 l 1,12,-1
 155 215 l 1,13,-1
 155 140 l 2,14,15
 155 75 155 75 230 75 c 2,16,-1
 369 75 l 1,17,-1
 369 0 l 1,0,-1
155 360 m 2,18,-1
 155 290 l 1,19,-1
 318 290 l 1,20,-1
 318 365 l 2,21,22
 318 391 318 391 301 408 c 128,-1,23
 284 425 284 425 258 425 c 2,24,-1
 220 425 l 2,25,26
 184 425 184 425 169.5 408.5 c 128,-1,27
 155 392 155 392 155 360 c 2,18,-1
382 595 m 1,28,-1
 297 595 l 1,29,-1
 297 675 l 1,30,-1
 382 675 l 1,31,-1
 382 595 l 1,28,-1
182 595 m 1,32,-1
 97 595 l 1,33,-1
 97 675 l 1,34,-1
 182 675 l 1,35,-1
 182 595 l 1,32,-1
EndSplineSet
EndChar

StartChar: igrave
Encoding: 236 236 175
Width: 245
GlyphClass: 2
Flags: W
LayerCount: 2
Fore
SplineSet
165 0 m 1,0,-1
 80 0 l 1,1,-1
 80 500 l 1,2,-1
 165 500 l 1,3,-1
 165 0 l 1,0,-1
194 580 m 1,4,-1
 108 580 l 1,5,-1
 -19 715 l 1,6,-1
 80 715 l 1,7,-1
 194 580 l 1,4,-1
EndSplineSet
EndChar

StartChar: iacute
Encoding: 237 237 176
Width: 245
GlyphClass: 2
Flags: W
LayerCount: 2
Fore
SplineSet
165 0 m 1,0,-1
 80 0 l 1,1,-1
 80 500 l 1,2,-1
 165 500 l 1,3,-1
 165 0 l 1,0,-1
141 580 m 1,4,-1
 55 580 l 1,5,-1
 159 715 l 1,6,-1
 268 715 l 1,7,-1
 141 580 l 1,4,-1
EndSplineSet
EndChar

StartChar: icircumflex
Encoding: 238 238 177
Width: 245
GlyphClass: 2
Flags: W
LayerCount: 2
Fore
SplineSet
165 0 m 1,0,-1
 80 0 l 1,1,-1
 80 500 l 1,2,-1
 165 500 l 1,3,-1
 165 0 l 1,0,-1
279 580 m 1,4,-1
 182 580 l 1,5,-1
 122 655 l 1,6,-1
 62 580 l 1,7,-1
 -34 580 l 1,8,-1
 78 715 l 1,9,-1
 166 715 l 1,10,-1
 279 580 l 1,4,-1
EndSplineSet
EndChar

StartChar: idieresis
Encoding: 239 239 178
Width: 245
GlyphClass: 2
Flags: W
LayerCount: 2
Fore
SplineSet
165 0 m 1,0,-1
 80 0 l 1,1,-1
 80 500 l 1,2,-1
 165 500 l 1,3,-1
 165 0 l 1,0,-1
265 595 m 1,4,-1
 180 595 l 1,5,-1
 180 675 l 1,6,-1
 265 675 l 1,7,-1
 265 595 l 1,4,-1
65 595 m 1,8,-1
 -20 595 l 1,9,-1
 -20 675 l 1,10,-1
 65 675 l 1,11,-1
 65 595 l 1,8,-1
EndSplineSet
EndChar

StartChar: eth
Encoding: 240 240 179
Width: 503
GlyphClass: 2
Flags: W
LayerCount: 2
Fore
SplineSet
126 626 m 1,0,-1
 126 700 l 1,1,-1
 240 700 l 1,2,-1
 270 750 l 1,3,-1
 352 750 l 1,4,-1
 316 690 l 1,5,6
 419 658 419 658 419 530 c 2,7,-1
 419 170 l 2,8,9
 419 88 419 88 374 44 c 128,-1,10
 329 0 329 0 261 0 c 2,11,-1
 236 0 l 2,12,13
 168 0 168 0 123 44 c 128,-1,14
 78 88 78 88 78 170 c 2,15,-1
 78 300 l 2,16,17
 78 384 78 384 119 422 c 128,-1,18
 160 460 160 460 246 460 c 2,19,-1
 334 460 l 1,20,-1
 334 549 l 2,21,22
 334 574 334 574 318.5 594.5 c 128,-1,23
 303 615 303 615 277 622 c 1,24,-1
 244 566 l 1,25,-1
 162 566 l 1,26,-1
 197 626 l 1,27,-1
 126 626 l 1,0,-1
334 385 m 1,28,-1
 236 385 l 2,29,30
 163 385 163 385 163 319 c 2,31,-1
 163 151 l 2,32,33
 163 119 163 119 184 97 c 128,-1,34
 205 75 205 75 241 75 c 2,35,-1
 256 75 l 2,36,37
 292 75 292 75 313 97 c 128,-1,38
 334 119 334 119 334 151 c 2,39,-1
 334 385 l 1,28,-1
EndSplineSet
EndChar

StartChar: ntilde
Encoding: 241 241 180
Width: 501
GlyphClass: 2
Flags: W
LayerCount: 2
Fore
SplineSet
165 0 m 1,0,-1
 80 0 l 1,1,-1
 80 500 l 1,2,-1
 160 500 l 1,3,-1
 160 476 l 1,4,5
 191 500 191 500 240 500 c 2,6,-1
 266 500 l 2,7,8
 347 500 347 500 386.5 462 c 128,-1,9
 426 424 426 424 426 340 c 2,10,-1
 426 0 l 1,11,-1
 341 0 l 1,12,-1
 341 360 l 2,13,14
 341 390 341 390 323.5 407.5 c 128,-1,15
 306 425 306 425 276 425 c 2,16,-1
 230 425 l 2,17,18
 197 425 197 425 181 407.5 c 128,-1,19
 165 390 165 390 165 370 c 2,20,-1
 165 0 l 1,0,-1
207 700 m 2,21,-1
 222 700 l 2,22,23
 234 700 234 700 278 680 c 128,-1,24
 322 660 322 660 333 660 c 2,25,-1
 343 660 l 2,26,27
 354 660 354 660 396 687 c 2,28,-1
 410 696 l 1,29,-1
 410 624 l 1,30,31
 359 591 359 591 342 591 c 2,32,-1
 327 591 l 2,33,34
 321 591 321 591 274.5 611 c 128,-1,35
 228 631 228 631 217 631 c 2,36,-1
 207 631 l 2,37,38
 194 631 194 631 146 604 c 2,39,-1
 130 595 l 1,40,-1
 130 667 l 1,41,42
 188 700 188 700 207 700 c 2,21,-1
EndSplineSet
EndChar

StartChar: ograve
Encoding: 242 242 181
Width: 493
GlyphClass: 2
Flags: W
LayerCount: 2
Fore
SplineSet
423 160 m 2,0,1
 423 76 423 76 381.5 38 c 128,-1,2
 340 0 340 0 253 0 c 2,3,-1
 240 0 l 2,4,5
 153 0 153 0 111.5 38 c 128,-1,6
 70 76 70 76 70 160 c 2,7,-1
 70 340 l 2,8,9
 70 424 70 424 111.5 462 c 128,-1,10
 153 500 153 500 240 500 c 2,11,-1
 253 500 l 2,12,13
 340 500 340 500 381.5 462 c 128,-1,14
 423 424 423 424 423 340 c 2,15,-1
 423 160 l 2,0,1
338 140 m 2,16,-1
 338 360 l 2,17,18
 338 425 338 425 263 425 c 2,19,-1
 230 425 l 2,20,21
 155 425 155 425 155 360 c 2,22,-1
 155 140 l 2,23,24
 155 75 155 75 230 75 c 2,25,-1
 263 75 l 2,26,27
 338 75 338 75 338 140 c 2,16,-1
341 580 m 1,28,-1
 255 580 l 1,29,-1
 128 715 l 1,30,-1
 237 715 l 1,31,-1
 341 580 l 1,28,-1
EndSplineSet
EndChar

StartChar: oacute
Encoding: 243 243 182
Width: 493
GlyphClass: 2
Flags: W
LayerCount: 2
Fore
SplineSet
423 160 m 2,0,1
 423 76 423 76 381.5 38 c 128,-1,2
 340 0 340 0 253 0 c 2,3,-1
 240 0 l 2,4,5
 153 0 153 0 111.5 38 c 128,-1,6
 70 76 70 76 70 160 c 2,7,-1
 70 340 l 2,8,9
 70 424 70 424 111.5 462 c 128,-1,10
 153 500 153 500 240 500 c 2,11,-1
 253 500 l 2,12,13
 340 500 340 500 381.5 462 c 128,-1,14
 423 424 423 424 423 340 c 2,15,-1
 423 160 l 2,0,1
338 140 m 2,16,-1
 338 360 l 2,17,18
 338 425 338 425 263 425 c 2,19,-1
 230 425 l 2,20,21
 155 425 155 425 155 360 c 2,22,-1
 155 140 l 2,23,24
 155 75 155 75 230 75 c 2,25,-1
 263 75 l 2,26,27
 338 75 338 75 338 140 c 2,16,-1
268 580 m 1,28,-1
 182 580 l 1,29,-1
 286 715 l 1,30,-1
 395 715 l 1,31,-1
 268 580 l 1,28,-1
EndSplineSet
EndChar

StartChar: ocircumflex
Encoding: 244 244 183
Width: 493
GlyphClass: 2
Flags: W
LayerCount: 2
Fore
SplineSet
423 160 m 2,0,1
 423 76 423 76 381.5 38 c 128,-1,2
 340 0 340 0 253 0 c 2,3,-1
 240 0 l 2,4,5
 153 0 153 0 111.5 38 c 128,-1,6
 70 76 70 76 70 160 c 2,7,-1
 70 340 l 2,8,9
 70 424 70 424 111.5 462 c 128,-1,10
 153 500 153 500 240 500 c 2,11,-1
 253 500 l 2,12,13
 340 500 340 500 381.5 462 c 128,-1,14
 423 424 423 424 423 340 c 2,15,-1
 423 160 l 2,0,1
338 140 m 2,16,-1
 338 360 l 2,17,18
 338 425 338 425 263 425 c 2,19,-1
 230 425 l 2,20,21
 155 425 155 425 155 360 c 2,22,-1
 155 140 l 2,23,24
 155 75 155 75 230 75 c 2,25,-1
 263 75 l 2,26,27
 338 75 338 75 338 140 c 2,16,-1
405 580 m 1,28,-1
 308 580 l 1,29,-1
 248 655 l 1,30,-1
 188 580 l 1,31,-1
 92 580 l 1,32,-1
 204 715 l 1,33,-1
 292 715 l 1,34,-1
 405 580 l 1,28,-1
EndSplineSet
EndChar

StartChar: otilde
Encoding: 245 245 184
Width: 493
GlyphClass: 2
Flags: W
LayerCount: 2
Fore
SplineSet
423 160 m 2,0,1
 423 76 423 76 381.5 38 c 128,-1,2
 340 0 340 0 253 0 c 2,3,-1
 240 0 l 2,4,5
 153 0 153 0 111.5 38 c 128,-1,6
 70 76 70 76 70 160 c 2,7,-1
 70 340 l 2,8,9
 70 424 70 424 111.5 462 c 128,-1,10
 153 500 153 500 240 500 c 2,11,-1
 253 500 l 2,12,13
 340 500 340 500 381.5 462 c 128,-1,14
 423 424 423 424 423 340 c 2,15,-1
 423 160 l 2,0,1
338 140 m 2,16,-1
 338 360 l 2,17,18
 338 425 338 425 263 425 c 2,19,-1
 230 425 l 2,20,21
 155 425 155 425 155 360 c 2,22,-1
 155 140 l 2,23,24
 155 75 155 75 230 75 c 2,25,-1
 263 75 l 2,26,27
 338 75 338 75 338 140 c 2,16,-1
182 700 m 2,28,-1
 197 700 l 2,29,30
 209 700 209 700 253 680 c 128,-1,31
 297 660 297 660 308 660 c 2,32,-1
 318 660 l 2,33,34
 329 660 329 660 371 687 c 2,35,-1
 385 696 l 1,36,-1
 385 624 l 1,37,38
 334 591 334 591 317 591 c 2,39,-1
 302 591 l 2,40,41
 296 591 296 591 249.5 611 c 128,-1,42
 203 631 203 631 192 631 c 2,43,-1
 182 631 l 2,44,45
 169 631 169 631 121 604 c 2,46,-1
 105 595 l 1,47,-1
 105 667 l 1,48,49
 163 700 163 700 182 700 c 2,28,-1
EndSplineSet
EndChar

StartChar: odieresis
Encoding: 246 246 185
Width: 493
GlyphClass: 2
Flags: W
LayerCount: 2
Fore
SplineSet
423 160 m 2,0,1
 423 76 423 76 381.5 38 c 128,-1,2
 340 0 340 0 253 0 c 2,3,-1
 240 0 l 2,4,5
 153 0 153 0 111.5 38 c 128,-1,6
 70 76 70 76 70 160 c 2,7,-1
 70 340 l 2,8,9
 70 424 70 424 111.5 462 c 128,-1,10
 153 500 153 500 240 500 c 2,11,-1
 253 500 l 2,12,13
 340 500 340 500 381.5 462 c 128,-1,14
 423 424 423 424 423 340 c 2,15,-1
 423 160 l 2,0,1
338 140 m 2,16,-1
 338 360 l 2,17,18
 338 425 338 425 263 425 c 2,19,-1
 230 425 l 2,20,21
 155 425 155 425 155 360 c 2,22,-1
 155 140 l 2,23,24
 155 75 155 75 230 75 c 2,25,-1
 263 75 l 2,26,27
 338 75 338 75 338 140 c 2,16,-1
391 595 m 1,28,-1
 306 595 l 1,29,-1
 306 675 l 1,30,-1
 391 675 l 1,31,-1
 391 595 l 1,28,-1
191 595 m 1,32,-1
 106 595 l 1,33,-1
 106 675 l 1,34,-1
 191 675 l 1,35,-1
 191 595 l 1,32,-1
EndSplineSet
EndChar

StartChar: divide
Encoding: 247 247 186
Width: 550
GlyphClass: 2
Flags: W
LayerCount: 2
Fore
SplineSet
465 275 m 1,0,-1
 85 275 l 1,1,-1
 85 350 l 1,2,-1
 465 350 l 1,3,-1
 465 275 l 1,0,-1
325 65 m 1,4,-1
 225 65 l 1,5,-1
 225 165 l 1,6,-1
 325 165 l 1,7,-1
 325 65 l 1,4,-1
325 460 m 1,8,-1
 225 460 l 1,9,-1
 225 560 l 1,10,-1
 325 560 l 1,11,-1
 325 460 l 1,8,-1
EndSplineSet
EndChar

StartChar: oslash
Encoding: 248 248 187
Width: 493
GlyphClass: 2
Flags: W
LayerCount: 2
Fore
SplineSet
423 160 m 2,0,1
 423 76 423 76 381.5 38 c 128,-1,2
 340 0 340 0 253 0 c 2,3,-1
 240 0 l 2,4,5
 220 0 220 0 211 1 c 1,6,-1
 184 -89 l 1,7,-1
 106 -89 l 1,8,-1
 139 19 l 1,9,10
 70 53 70 53 70 160 c 2,11,-1
 70 340 l 2,12,13
 70 424 70 424 111.5 462 c 128,-1,14
 153 500 153 500 240 500 c 2,15,-1
 253 500 l 2,16,17
 264 500 264 500 284 498 c 1,18,-1
 312 589 l 1,19,-1
 389 589 l 1,20,-1
 356 480 l 1,21,22
 423 444 423 444 423 340 c 2,23,-1
 423 160 l 2,0,1
155 140 m 2,24,25
 155 118 155 118 164 103 c 1,26,-1
 262 425 l 1,27,-1
 230 425 l 2,28,29
 155 425 155 425 155 360 c 2,30,-1
 155 140 l 2,24,25
338 140 m 2,31,-1
 338 360 l 2,32,33
 338 378 338 378 330 394 c 1,34,-1
 234 75 l 1,35,-1
 263 75 l 2,36,37
 338 75 338 75 338 140 c 2,31,-1
EndSplineSet
EndChar

StartChar: ugrave
Encoding: 249 249 188
Width: 489
GlyphClass: 2
Flags: W
LayerCount: 2
Fore
SplineSet
409 0 m 1,0,-1
 329 0 l 1,1,-1
 329 23 l 1,2,3
 296 0 296 0 249 0 c 2,4,-1
 235 0 l 2,5,6
 154 0 154 0 114.5 38 c 128,-1,7
 75 76 75 76 75 160 c 2,8,-1
 75 500 l 1,9,-1
 160 500 l 1,10,-1
 160 140 l 2,11,12
 160 110 160 110 177.5 92.5 c 128,-1,13
 195 75 195 75 225 75 c 2,14,-1
 259 75 l 2,15,16
 291 75 291 75 306.5 91 c 128,-1,17
 322 107 322 107 324 127 c 1,18,-1
 324 500 l 1,19,-1
 409 500 l 1,20,-1
 409 0 l 1,0,-1
332 580 m 1,21,-1
 246 580 l 1,22,-1
 119 715 l 1,23,-1
 228 715 l 1,24,-1
 332 580 l 1,21,-1
EndSplineSet
EndChar

StartChar: uacute
Encoding: 250 250 189
Width: 489
GlyphClass: 2
Flags: W
LayerCount: 2
Fore
SplineSet
409 0 m 1,0,-1
 329 0 l 1,1,-1
 329 23 l 1,2,3
 296 0 296 0 249 0 c 2,4,-1
 235 0 l 2,5,6
 154 0 154 0 114.5 38 c 128,-1,7
 75 76 75 76 75 160 c 2,8,-1
 75 500 l 1,9,-1
 160 500 l 1,10,-1
 160 140 l 2,11,12
 160 110 160 110 177.5 92.5 c 128,-1,13
 195 75 195 75 225 75 c 2,14,-1
 259 75 l 2,15,16
 291 75 291 75 306.5 91 c 128,-1,17
 322 107 322 107 324 127 c 1,18,-1
 324 500 l 1,19,-1
 409 500 l 1,20,-1
 409 0 l 1,0,-1
250 580 m 1,21,-1
 164 580 l 1,22,-1
 268 715 l 1,23,-1
 377 715 l 1,24,-1
 250 580 l 1,21,-1
EndSplineSet
EndChar

StartChar: ucircumflex
Encoding: 251 251 190
Width: 489
GlyphClass: 2
Flags: W
LayerCount: 2
Fore
SplineSet
409 0 m 1,0,-1
 329 0 l 1,1,-1
 329 23 l 1,2,3
 296 0 296 0 249 0 c 2,4,-1
 235 0 l 2,5,6
 154 0 154 0 114.5 38 c 128,-1,7
 75 76 75 76 75 160 c 2,8,-1
 75 500 l 1,9,-1
 160 500 l 1,10,-1
 160 140 l 2,11,12
 160 110 160 110 177.5 92.5 c 128,-1,13
 195 75 195 75 225 75 c 2,14,-1
 259 75 l 2,15,16
 291 75 291 75 306.5 91 c 128,-1,17
 322 107 322 107 324 127 c 1,18,-1
 324 500 l 1,19,-1
 409 500 l 1,20,-1
 409 0 l 1,0,-1
400 580 m 1,21,-1
 303 580 l 1,22,-1
 243 655 l 1,23,-1
 183 580 l 1,24,-1
 87 580 l 1,25,-1
 199 715 l 1,26,-1
 287 715 l 1,27,-1
 400 580 l 1,21,-1
EndSplineSet
EndChar

StartChar: udieresis
Encoding: 252 252 191
Width: 489
GlyphClass: 2
Flags: W
LayerCount: 2
Fore
SplineSet
409 0 m 1,0,-1
 329 0 l 1,1,-1
 329 23 l 1,2,3
 296 0 296 0 249 0 c 2,4,-1
 235 0 l 2,5,6
 154 0 154 0 114.5 38 c 128,-1,7
 75 76 75 76 75 160 c 2,8,-1
 75 500 l 1,9,-1
 160 500 l 1,10,-1
 160 140 l 2,11,12
 160 110 160 110 177.5 92.5 c 128,-1,13
 195 75 195 75 225 75 c 2,14,-1
 259 75 l 2,15,16
 291 75 291 75 306.5 91 c 128,-1,17
 322 107 322 107 324 127 c 1,18,-1
 324 500 l 1,19,-1
 409 500 l 1,20,-1
 409 0 l 1,0,-1
381 595 m 1,21,-1
 296 595 l 1,22,-1
 296 675 l 1,23,-1
 381 675 l 1,24,-1
 381 595 l 1,21,-1
181 595 m 1,25,-1
 96 595 l 1,26,-1
 96 675 l 1,27,-1
 181 675 l 1,28,-1
 181 595 l 1,25,-1
EndSplineSet
EndChar

StartChar: yacute
Encoding: 253 253 192
Width: 463
GlyphClass: 2
Flags: W
LayerCount: 2
Fore
SplineSet
159 -175 m 0,0,1
 138 -175 138 -175 102 -169 c 1,2,-1
 102 -96 l 1,3,4
 130 -100 130 -100 154 -100 c 0,5,6
 182 -100 182 -100 194 -55 c 1,7,-1
 210 0 l 1,8,-1
 190 0 l 1,9,-1
 35 500 l 1,10,-1
 127 500 l 1,11,-1
 243 87 l 1,12,-1
 341 500 l 1,13,-1
 428 500 l 1,14,-1
 283 -44 l 2,15,16
 265 -112 265 -112 240 -143.5 c 128,-1,17
 215 -175 215 -175 159 -175 c 0,0,1
279 580 m 1,18,-1
 193 580 l 1,19,-1
 297 715 l 1,20,-1
 406 715 l 1,21,-1
 279 580 l 1,18,-1
EndSplineSet
EndChar

StartChar: thorn
Encoding: 254 254 193
Width: 504
GlyphClass: 2
Flags: W
LayerCount: 2
Fore
SplineSet
165 -170 m 1,0,-1
 80 -170 l 1,1,-1
 80 700 l 1,2,-1
 165 700 l 1,3,-1
 165 -170 l 1,0,-1
426 160 m 2,4,5
 426 160 426 160 426 340 c 0,6,7
 426 425 426 425 385 462.5 c 128,-1,8
 344 500 344 500 256 500 c 2,9,-1
 240 500 l 2,10,11
 140 500 140 500 108 399 c 1,12,-1
 165 370 l 1,13,14
 165 390 165 390 181 407.5 c 128,-1,15
 197 425 197 425 230 425 c 2,16,17
 230 425 230 425 266 425 c 0,18,19
 341 425 341 425 341 360 c 2,20,-1
 341 140 l 2,21,22
 341 75 341 75 266 75 c 2,23,-1
 135 75 l 1,24,-1
 135 0 l 1,25,-1
 256 0 l 2,26,27
 343 0 343 0 384.5 38 c 128,-1,28
 426 76 426 76 426 160 c 2,4,5
EndSplineSet
EndChar

StartChar: ydieresis
Encoding: 255 255 194
Width: 463
GlyphClass: 2
Flags: W
LayerCount: 2
Fore
SplineSet
159 -175 m 0,0,1
 138 -175 138 -175 102 -169 c 1,2,-1
 102 -96 l 1,3,4
 130 -100 130 -100 154 -100 c 0,5,6
 182 -100 182 -100 194 -55 c 1,7,-1
 210 0 l 1,8,-1
 190 0 l 1,9,-1
 35 500 l 1,10,-1
 127 500 l 1,11,-1
 243 87 l 1,12,-1
 341 500 l 1,13,-1
 428 500 l 1,14,-1
 283 -44 l 2,15,16
 265 -112 265 -112 240 -143.5 c 128,-1,17
 215 -175 215 -175 159 -175 c 0,0,1
375 595 m 1,18,-1
 290 595 l 1,19,-1
 290 675 l 1,20,-1
 375 675 l 1,21,-1
 375 595 l 1,18,-1
175 595 m 1,22,-1
 90 595 l 1,23,-1
 90 675 l 1,24,-1
 175 675 l 1,25,-1
 175 595 l 1,22,-1
EndSplineSet
EndChar

StartChar: dotlessi
Encoding: 305 305 195
Width: 245
GlyphClass: 2
Flags: W
LayerCount: 2
Fore
SplineSet
165 0 m 1,0,-1
 80 0 l 1,1,-1
 80 500 l 1,2,-1
 165 500 l 1,3,-1
 165 0 l 1,0,-1
EndSplineSet
EndChar

StartChar: Lslash
Encoding: 321 321 196
Width: 410
GlyphClass: 2
Flags: W
LayerCount: 2
Fore
SplineSet
395 0 m 1,0,-1
 85 0 l 1,1,-1
 85 329 l 1,2,-1
 25 300 l 1,3,-1
 25 380 l 1,4,-1
 85 409 l 1,5,-1
 85 700 l 1,6,-1
 172 700 l 1,7,-1
 172 451 l 1,8,-1
 295 510 l 1,9,-1
 295 430 l 1,10,-1
 172 371 l 1,11,-1
 172 76 l 1,12,-1
 395 76 l 1,13,-1
 395 0 l 1,0,-1
EndSplineSet
Position2: "'cpsp' Capital Spacing in Latin lookup 0 subtable" dx=5 dy=0 dh=10 dv=0
EndChar

StartChar: lslash
Encoding: 322 322 197
Width: 271
GlyphClass: 2
Flags: W
LayerCount: 2
Fore
SplineSet
225 0 m 1,0,-1
 170 0 l 2,1,2
 136 0 136 0 110.5 24 c 128,-1,3
 85 48 85 48 85 100 c 2,4,-1
 85 332 l 1,5,-1
 35 300 l 1,6,-1
 35 378 l 1,7,-1
 85 411 l 1,8,-1
 85 700 l 1,9,-1
 170 700 l 1,10,-1
 170 467 l 1,11,-1
 231 508 l 1,12,-1
 231 428 l 1,13,-1
 170 388 l 1,14,-1
 170 105 l 2,15,16
 170 89 170 89 178 82 c 128,-1,17
 186 75 186 75 205 75 c 2,18,-1
 225 75 l 1,19,-1
 225 0 l 1,0,-1
EndSplineSet
EndChar

StartChar: OE
Encoding: 338 338 198
Width: 741
GlyphClass: 2
Flags: W
LayerCount: 2
Fore
SplineSet
681 0 m 1,0,-1
 255 0 l 2,1,2
 168 0 168 0 121.5 42.5 c 128,-1,3
 75 85 75 85 75 170 c 2,4,-1
 75 530 l 2,5,6
 75 615 75 615 121.5 657.5 c 128,-1,7
 168 700 168 700 255 700 c 2,8,-1
 681 700 l 1,9,-1
 681 627 l 1,10,-1
 445 627 l 1,11,12
 469 582 469 582 469 530 c 2,13,-1
 469 398 l 1,14,-1
 666 398 l 1,15,-1
 666 325 l 1,16,-1
 469 325 l 1,17,-1
 469 170 l 2,18,19
 469 116 469 116 445 73 c 1,20,-1
 681 73 l 1,21,-1
 681 0 l 1,0,-1
382 151 m 2,22,-1
 382 549 l 2,23,24
 382 580 382 580 359 602 c 128,-1,25
 336 624 336 624 299 624 c 2,26,-1
 245 624 l 2,27,28
 208 624 208 624 185 602 c 128,-1,29
 162 580 162 580 162 549 c 2,30,-1
 162 151 l 2,31,32
 162 120 162 120 185 98 c 128,-1,33
 208 76 208 76 245 76 c 2,34,-1
 299 76 l 2,35,36
 336 76 336 76 359 98 c 128,-1,37
 382 120 382 120 382 151 c 2,22,-1
EndSplineSet
Position2: "'cpsp' Capital Spacing in Latin lookup 0 subtable" dx=5 dy=0 dh=10 dv=0
EndChar

StartChar: oe
Encoding: 339 339 199
Width: 734
GlyphClass: 2
Flags: W
LayerCount: 2
Fore
SplineSet
637 0 m 1,0,-1
 508 0 l 2,1,2
 424 0 424 0 380 39 c 1,3,4
 336 0 336 0 253 0 c 2,5,-1
 240 0 l 2,6,7
 153 0 153 0 111.5 38 c 128,-1,8
 70 76 70 76 70 160 c 2,9,-1
 70 340 l 2,10,11
 70 424 70 424 111.5 462 c 128,-1,12
 153 500 153 500 240 500 c 2,13,-1
 253 500 l 2,14,15
 332 500 332 500 378 461 c 1,16,17
 419 500 419 500 498 500 c 2,18,-1
 525 500 l 2,19,20
 669 500 669 500 669 345 c 2,21,-1
 669 215 l 1,22,-1
 423 215 l 1,23,-1
 423 140 l 2,24,25
 423 75 423 75 498 75 c 2,26,-1
 637 75 l 1,27,-1
 637 0 l 1,0,-1
338 140 m 2,28,-1
 338 360 l 2,29,30
 338 425 338 425 263 425 c 2,31,-1
 230 425 l 2,32,33
 155 425 155 425 155 360 c 2,34,-1
 155 140 l 2,35,36
 155 75 155 75 230 75 c 2,37,-1
 263 75 l 2,38,39
 338 75 338 75 338 140 c 2,28,-1
423 360 m 2,40,-1
 423 290 l 1,41,-1
 586 290 l 1,42,-1
 586 365 l 2,43,44
 586 391 586 391 569 408 c 128,-1,45
 552 425 552 425 526 425 c 2,46,-1
 488 425 l 2,47,48
 452 425 452 425 437.5 408.5 c 128,-1,49
 423 392 423 392 423 360 c 2,40,-1
EndSplineSet
EndChar

StartChar: Scaron
Encoding: 352 352 200
Width: 439
GlyphClass: 2
Flags: W
LayerCount: 2
Fore
SplineSet
84 845 m 1,0,-1
 181 845 l 1,1,-1
 241 778 l 1,2,-1
 301 845 l 1,3,-1
 397 845 l 1,4,-1
 285 730 l 1,5,-1
 197 730 l 1,6,-1
 84 845 l 1,0,-1
384 170 m 2,7,8
 384 85 384 85 337.5 42.5 c 128,-1,9
 291 0 291 0 204 0 c 2,10,-1
 72 0 l 1,11,-1
 72 76 l 1,12,-1
 214 76 l 2,13,14
 251 76 251 76 274 98 c 128,-1,15
 297 120 297 120 297 151 c 2,16,-1
 297 255 l 2,17,18
 297 285 297 285 281.5 303.5 c 128,-1,19
 266 322 266 322 235 322 c 2,20,-1
 215 322 l 2,21,22
 141 322 141 322 98 365.5 c 128,-1,23
 55 409 55 409 55 492 c 2,24,-1
 55 530 l 2,25,26
 55 615 55 615 101.5 657.5 c 128,-1,27
 148 700 148 700 235 700 c 2,28,-1
 368 700 l 1,29,-1
 368 624 l 1,30,-1
 225 624 l 2,31,32
 188 624 188 624 165 602 c 128,-1,33
 142 580 142 580 142 549 c 2,34,-1
 142 473 l 2,35,36
 142 442 142 442 162 421.5 c 128,-1,37
 182 401 182 401 214 401 c 2,38,-1
 234 401 l 2,39,40
 305 401 305 401 344.5 360 c 128,-1,41
 384 319 384 319 384 236 c 2,42,-1
 384 170 l 2,7,8
EndSplineSet
Position2: "'cpsp' Capital Spacing in Latin lookup 0 subtable" dx=5 dy=0 dh=10 dv=0
EndChar

StartChar: scaron
Encoding: 353 353 201
Width: 399
GlyphClass: 2
Flags: W
LayerCount: 2
Fore
SplineSet
344 125 m 2,0,1
 344 0 344 0 194 0 c 2,2,-1
 65 0 l 1,3,-1
 65 75 l 1,4,-1
 204 75 l 2,5,6
 259 75 259 75 259 120 c 2,7,-1
 259 173 l 2,8,9
 259 218 259 218 216 218 c 2,10,-1
 199 218 l 2,11,12
 129 218 129 218 94.5 248.5 c 128,-1,13
 60 279 60 279 60 345 c 2,14,-1
 60 374 l 2,15,16
 60 441 60 441 98 470.5 c 128,-1,17
 136 500 136 500 210 500 c 2,18,-1
 324 500 l 1,19,-1
 324 425 l 1,20,-1
 200 425 l 2,21,22
 175 425 175 425 160 413.5 c 128,-1,23
 145 402 145 402 145 380 c 2,24,-1
 145 344 l 2,25,26
 145 321 145 321 158.5 310 c 128,-1,27
 172 299 172 299 193 299 c 2,28,-1
 207 299 l 2,29,30
 344 299 344 299 344 170 c 2,31,-1
 344 125 l 2,0,1
55 714 m 1,32,-1
 152 714 l 1,33,-1
 212 639 l 1,34,-1
 272 714 l 1,35,-1
 368 714 l 1,36,-1
 256 579 l 1,37,-1
 168 579 l 1,38,-1
 55 714 l 1,32,-1
EndSplineSet
EndChar

StartChar: Ydieresis
Encoding: 376 376 202
Width: 491
GlyphClass: 2
Flags: W
LayerCount: 2
Fore
SplineSet
289 0 m 1,0,-1
 199 0 l 1,1,-1
 199 325 l 1,2,-1
 20 700 l 1,3,-1
 116 700 l 1,4,-1
 248 409 l 1,5,-1
 380 700 l 1,6,-1
 471 700 l 1,7,-1
 289 325 l 1,8,-1
 289 0 l 1,0,-1
392 735 m 1,9,-1
 307 735 l 1,10,-1
 307 815 l 1,11,-1
 392 815 l 1,12,-1
 392 735 l 1,9,-1
192 735 m 1,13,-1
 107 735 l 1,14,-1
 107 815 l 1,15,-1
 192 815 l 1,16,-1
 192 735 l 1,13,-1
EndSplineSet
Position2: "'cpsp' Capital Spacing in Latin lookup 0 subtable" dx=5 dy=0 dh=10 dv=0
EndChar

StartChar: Zcaron
Encoding: 381 381 203
Width: 436
GlyphClass: 2
Flags: W
LayerCount: 2
Fore
SplineSet
72 845 m 1,0,-1
 169 845 l 1,1,-1
 229 778 l 1,2,-1
 289 845 l 1,3,-1
 385 845 l 1,4,-1
 273 730 l 1,5,-1
 185 730 l 1,6,-1
 72 845 l 1,0,-1
381 74 m 1,7,-1
 381 0 l 1,8,-1
 45 0 l 1,9,-1
 45 88 l 1,10,-1
 303 626 l 1,11,-1
 68 626 l 1,12,-1
 68 700 l 1,13,-1
 391 700 l 1,14,-1
 391 612 l 1,15,-1
 134 74 l 1,16,-1
 381 74 l 1,7,-1
EndSplineSet
Position2: "'cpsp' Capital Spacing in Latin lookup 0 subtable" dx=5 dy=0 dh=10 dv=0
EndChar

StartChar: zcaron
Encoding: 382 382 204
Width: 403
GlyphClass: 2
Flags: W
LayerCount: 2
Fore
SplineSet
343 74 m 1,0,-1
 343 0 l 1,1,-1
 45 0 l 1,2,-1
 45 80 l 1,3,-1
 262 426 l 1,4,-1
 65 426 l 1,5,-1
 65 500 l 1,6,-1
 353 500 l 1,7,-1
 353 411 l 1,8,-1
 137 74 l 1,9,-1
 343 74 l 1,0,-1
60 714 m 1,10,-1
 157 714 l 1,11,-1
 217 639 l 1,12,-1
 277 714 l 1,13,-1
 373 714 l 1,14,-1
 261 579 l 1,15,-1
 173 579 l 1,16,-1
 60 714 l 1,10,-1
EndSplineSet
EndChar

StartChar: florin
Encoding: 402 402 205
Width: 310
GlyphClass: 2
Flags: W
LayerCount: 2
Fore
SplineSet
311 625 m 1,0,-1
 215 625 l 2,1,2
 199 625 199 625 189.5 616.5 c 128,-1,3
 180 608 180 608 180 595 c 2,4,-1
 180 500 l 1,5,-1
 301 500 l 1,6,-1
 301 425 l 1,7,-1
 180 425 l 1,8,-1
 180 -60 l 2,9,10
 180 -111 180 -111 151 -140.5 c 128,-1,11
 122 -170 122 -170 76 -170 c 2,12,-1
 -31 -170 l 1,13,-1
 -31 -95 l 1,14,-1
 60 -95 l 2,15,16
 76 -95 76 -95 85.5 -86.5 c 128,-1,17
 95 -78 95 -78 95 -65 c 2,18,-1
 95 425 l 1,19,-1
 30 425 l 1,20,-1
 30 500 l 1,21,-1
 95 500 l 1,22,-1
 95 590 l 2,23,24
 95 641 95 641 124 670.5 c 128,-1,25
 153 700 153 700 199 700 c 2,26,-1
 311 700 l 1,27,-1
 311 625 l 1,0,-1
EndSplineSet
EndChar

StartChar: circumflex
Encoding: 710 710 206
Width: 383
GlyphClass: 2
Flags: W
LayerCount: 2
Fore
SplineSet
348 580 m 1,0,-1
 251 580 l 1,1,-1
 191 655 l 1,2,-1
 131 580 l 1,3,-1
 35 580 l 1,4,-1
 147 715 l 1,5,-1
 235 715 l 1,6,-1
 348 580 l 1,0,-1
EndSplineSet
EndChar

StartChar: caron
Encoding: 711 711 207
Width: 383
GlyphClass: 2
Flags: W
LayerCount: 2
Fore
SplineSet
35 714 m 1,0,-1
 132 714 l 1,1,-1
 192 639 l 1,2,-1
 252 714 l 1,3,-1
 348 714 l 1,4,-1
 236 579 l 1,5,-1
 148 579 l 1,6,-1
 35 714 l 1,0,-1
EndSplineSet
EndChar

StartChar: uni02C9
Encoding: 713 713 208
Width: 325
GlyphClass: 2
Flags: W
LayerCount: 2
Fore
SplineSet
290 605 m 1,0,-1
 35 605 l 1,1,-1
 35 675 l 1,2,-1
 290 675 l 1,3,-1
 290 605 l 1,0,-1
EndSplineSet
EndChar

StartChar: breve
Encoding: 728 728 209
Width: 354
GlyphClass: 2
Flags: W
LayerCount: 2
Fore
SplineSet
187 649 m 2,0,1
 217 649 217 649 227 666 c 128,-1,2
 237 683 237 683 237 715 c 1,3,-1
 319 715 l 1,4,5
 319 664 319 664 288.5 624.5 c 128,-1,6
 258 585 258 585 187 585 c 2,7,-1
 167 585 l 2,8,9
 96 585 96 585 65.5 624.5 c 128,-1,10
 35 664 35 664 35 715 c 1,11,-1
 117 715 l 1,12,13
 117 683 117 683 127 666 c 128,-1,14
 137 649 137 649 167 649 c 2,15,-1
 187 649 l 2,0,1
EndSplineSet
EndChar

StartChar: dotaccent
Encoding: 729 729 210
Width: 164
GlyphClass: 2
Flags: W
LayerCount: 2
Fore
SplineSet
120 615 m 1,0,-1
 35 615 l 1,1,-1
 35 700 l 1,2,-1
 120 700 l 1,3,-1
 120 615 l 1,0,-1
EndSplineSet
EndChar

StartChar: ring
Encoding: 730 730 211
Width: 260
GlyphClass: 2
Flags: W
LayerCount: 2
Fore
SplineSet
222 633 m 2,0,1
 222 592 222 592 197 570 c 128,-1,2
 172 548 172 548 133 548 c 2,3,-1
 127 548 l 2,4,5
 88 548 88 548 63 570 c 128,-1,6
 38 592 38 592 38 633 c 2,7,-1
 38 662 l 2,8,9
 38 704 38 704 62.5 725.5 c 128,-1,10
 87 747 87 747 127 747 c 2,11,-1
 133 747 l 2,12,13
 173 747 173 747 197.5 725.5 c 128,-1,14
 222 704 222 704 222 662 c 2,15,-1
 222 633 l 2,0,1
165 632 m 2,16,-1
 165 663 l 2,17,18
 165 701 165 701 133 701 c 2,19,-1
 127 701 l 2,20,21
 93 701 93 701 93 663 c 2,22,-1
 93 632 l 2,23,24
 93 594 93 594 127 594 c 2,25,-1
 133 594 l 2,26,27
 165 594 165 594 165 632 c 2,16,-1
EndSplineSet
EndChar

StartChar: ogonek
Encoding: 731 731 212
Width: 318
GlyphClass: 2
Flags: W
LayerCount: 2
Fore
SplineSet
252 -180 m 1,0,-1
 163 -180 l 2,1,2
 102 -180 102 -180 84 -136 c 0,3,4
 75 -116 75 -116 75 -85 c 2,5,-1
 75 60 l 1,6,-1
 149 60 l 1,7,-1
 149 -85 l 2,8,9
 149 -113 149 -113 181 -113 c 2,10,-1
 252 -113 l 1,11,-1
 252 -180 l 1,0,-1
EndSplineSet
EndChar

StartChar: tilde
Encoding: 732 732 213
Width: 350
GlyphClass: 2
Flags: W
LayerCount: 2
Fore
SplineSet
112 700 m 2,0,-1
 127 700 l 2,1,2
 139 700 139 700 183 680 c 128,-1,3
 227 660 227 660 238 660 c 2,4,-1
 248 660 l 2,5,6
 259 660 259 660 301 687 c 2,7,-1
 315 696 l 1,8,-1
 315 624 l 1,9,10
 264 591 264 591 247 591 c 2,11,-1
 232 591 l 2,12,13
 226 591 226 591 179.5 611 c 128,-1,14
 133 631 133 631 122 631 c 2,15,-1
 112 631 l 2,16,17
 99 631 99 631 51 604 c 2,18,-1
 35 595 l 1,19,-1
 35 667 l 1,20,21
 93 700 93 700 112 700 c 2,0,-1
EndSplineSet
EndChar

StartChar: hungarumlaut
Encoding: 733 733 214
Width: 463
GlyphClass: 2
Flags: W
LayerCount: 2
Fore
SplineSet
258 745 m 1,0,-1
 131 598 l 1,1,-1
 40 598 l 1,2,-1
 143 745 l 1,3,-1
 258 745 l 1,0,-1
428 745 m 1,4,-1
 301 598 l 1,5,-1
 210 598 l 1,6,-1
 313 745 l 1,7,-1
 428 745 l 1,4,-1
EndSplineSet
EndChar

StartChar: uni03BC
Encoding: 956 956 215
Width: 494
GlyphClass: 2
Flags: W
LayerCount: 2
Fore
SplineSet
165 -170 m 1,0,-1
 80 -170 l 1,1,-1
 80 500 l 1,2,-1
 165 500 l 1,3,-1
 165 140 l 2,4,5
 165 110 165 110 182.5 92.5 c 128,-1,6
 200 75 200 75 230 75 c 2,7,-1
 264 75 l 2,8,9
 297 75 297 75 313 92.5 c 128,-1,10
 329 110 329 110 329 130 c 2,11,-1
 329 500 l 1,12,-1
 414 500 l 1,13,-1
 414 0 l 1,14,-1
 334 0 l 1,15,-1
 334 23 l 1,16,17
 301 0 301 0 254 0 c 2,18,-1
 240 0 l 2,19,20
 195 0 195 0 165 10 c 1,21,-1
 165 -170 l 1,0,-1
EndSplineSet
EndChar

StartChar: pi
Encoding: 960 960 216
Width: 554
GlyphClass: 2
Flags: W
LayerCount: 2
Fore
SplineSet
209 0 m 1,0,-1
 124 0 l 1,1,-1
 124 427 l 1,2,-1
 45 427 l 1,3,-1
 45 500 l 1,4,-1
 509 500 l 1,5,-1
 509 427 l 1,6,-1
 419 427 l 1,7,-1
 419 105 l 2,8,9
 419 89 419 89 427 82 c 128,-1,10
 435 75 435 75 454 75 c 2,11,-1
 469 75 l 1,12,-1
 469 0 l 1,13,-1
 419 0 l 2,14,15
 385 0 385 0 359.5 24 c 128,-1,16
 334 48 334 48 334 100 c 2,17,-1
 334 427 l 1,18,-1
 209 427 l 1,19,-1
 209 0 l 1,0,-1
EndSplineSet
EndChar

StartChar: endash
Encoding: 8211 8211 217
Width: 550
GlyphClass: 2
Flags: W
LayerCount: 2
Fore
SplineSet
465 275 m 1,0,-1
 85 275 l 1,1,-1
 85 350 l 1,2,-1
 465 350 l 1,3,-1
 465 275 l 1,0,-1
EndSplineSet
EndChar

StartChar: emdash
Encoding: 8212 8212 218
Width: 605
GlyphClass: 2
Flags: W
LayerCount: 2
Fore
SplineSet
540 275 m 1,0,-1
 65 275 l 1,1,-1
 65 350 l 1,2,-1
 540 350 l 1,3,-1
 540 275 l 1,0,-1
EndSplineSet
EndChar

StartChar: quoteleft
Encoding: 8216 8216 219
Width: 225
GlyphClass: 2
Flags: W
LayerCount: 2
Fore
SplineSet
150 452 m 1,0,-1
 55 452 l 1,1,-1
 55 542 l 1,2,-1
 110 699 l 1,3,-1
 180 699 l 1,4,-1
 150 542 l 1,5,-1
 150 452 l 1,0,-1
EndSplineSet
EndChar

StartChar: quoteright
Encoding: 8217 8217 220
Width: 225
GlyphClass: 2
Flags: W
LayerCount: 2
Fore
SplineSet
75 700 m 1,0,-1
 170 700 l 1,1,-1
 170 610 l 1,2,-1
 115 453 l 1,3,-1
 45 453 l 1,4,-1
 75 610 l 1,5,-1
 75 700 l 1,0,-1
EndSplineSet
EndChar

StartChar: quotesinglbase
Encoding: 8218 8218 221
Width: 220
GlyphClass: 2
Flags: W
LayerCount: 2
Fore
SplineSet
80 90 m 1,0,-1
 175 90 l 1,1,-1
 175 0 l 1,2,-1
 120 -157 l 1,3,-1
 50 -157 l 1,4,-1
 80 0 l 1,5,-1
 80 90 l 1,0,-1
EndSplineSet
EndChar

StartChar: quotedblleft
Encoding: 8220 8220 222
Width: 380
GlyphClass: 2
Flags: W
LayerCount: 2
Fore
SplineSet
150 452 m 1,0,-1
 55 452 l 1,1,-1
 55 542 l 1,2,-1
 110 699 l 1,3,-1
 180 699 l 1,4,-1
 150 542 l 1,5,-1
 150 452 l 1,0,-1
305 452 m 1,6,-1
 210 452 l 1,7,-1
 210 542 l 1,8,-1
 265 699 l 1,9,-1
 335 699 l 1,10,-1
 305 542 l 1,11,-1
 305 452 l 1,6,-1
EndSplineSet
EndChar

StartChar: quotedblright
Encoding: 8221 8221 223
Width: 380
GlyphClass: 2
Flags: W
LayerCount: 2
Fore
SplineSet
230 700 m 1,0,-1
 325 700 l 1,1,-1
 325 610 l 1,2,-1
 270 453 l 1,3,-1
 200 453 l 1,4,-1
 230 610 l 1,5,-1
 230 700 l 1,0,-1
75 700 m 1,6,-1
 170 700 l 1,7,-1
 170 610 l 1,8,-1
 115 453 l 1,9,-1
 45 453 l 1,10,-1
 75 610 l 1,11,-1
 75 700 l 1,6,-1
EndSplineSet
EndChar

StartChar: quotedblbase
Encoding: 8222 8222 224
Width: 375
GlyphClass: 2
Flags: W
LayerCount: 2
Fore
SplineSet
235 90 m 1,0,-1
 330 90 l 1,1,-1
 330 0 l 1,2,-1
 275 -157 l 1,3,-1
 205 -157 l 1,4,-1
 235 0 l 1,5,-1
 235 90 l 1,0,-1
80 90 m 1,6,-1
 175 90 l 1,7,-1
 175 0 l 1,8,-1
 120 -157 l 1,9,-1
 50 -157 l 1,10,-1
 80 0 l 1,11,-1
 80 90 l 1,6,-1
EndSplineSet
EndChar

StartChar: dagger
Encoding: 8224 8224 225
Width: 470
GlyphClass: 2
Flags: W
LayerCount: 2
Fore
SplineSet
276 0 m 1,0,-1
 196 0 l 1,1,-1
 196 425 l 1,2,-1
 55 425 l 1,3,-1
 55 500 l 1,4,-1
 196 500 l 1,5,-1
 196 700 l 1,6,-1
 276 700 l 1,7,-1
 276 500 l 1,8,-1
 416 500 l 1,9,-1
 416 425 l 1,10,-1
 276 425 l 1,11,-1
 276 0 l 1,0,-1
EndSplineSet
EndChar

StartChar: daggerdbl
Encoding: 8225 8225 226
Width: 470
GlyphClass: 2
Flags: W
LayerCount: 2
Fore
SplineSet
276 0 m 1,0,-1
 196 0 l 1,1,-1
 196 210 l 1,2,-1
 55 210 l 1,3,-1
 55 285 l 1,4,-1
 196 285 l 1,5,-1
 196 425 l 1,6,-1
 55 425 l 1,7,-1
 55 500 l 1,8,-1
 196 500 l 1,9,-1
 196 700 l 1,10,-1
 276 700 l 1,11,-1
 276 500 l 1,12,-1
 416 500 l 1,13,-1
 416 425 l 1,14,-1
 276 425 l 1,15,-1
 276 285 l 1,16,-1
 416 285 l 1,17,-1
 416 210 l 1,18,-1
 276 210 l 1,19,-1
 276 0 l 1,0,-1
EndSplineSet
EndChar

StartChar: bullet
Encoding: 8226 8226 227
Width: 290
GlyphClass: 2
Flags: W
LayerCount: 2
Fore
SplineSet
220 235 m 1,0,-1
 70 235 l 1,1,-1
 70 390 l 1,2,-1
 220 390 l 1,3,-1
 220 235 l 1,0,-1
EndSplineSet
EndChar

StartChar: ellipsis
Encoding: 8230 8230 228
Width: 670
GlyphClass: 2
Flags: W
LayerCount: 2
Fore
SplineSet
165 0 m 1,0,-1
 65 0 l 1,1,-1
 65 100 l 1,2,-1
 165 100 l 1,3,-1
 165 0 l 1,0,-1
385 0 m 1,4,-1
 285 0 l 1,5,-1
 285 100 l 1,6,-1
 385 100 l 1,7,-1
 385 0 l 1,4,-1
605 0 m 1,8,-1
 505 0 l 1,9,-1
 505 100 l 1,10,-1
 605 100 l 1,11,-1
 605 0 l 1,8,-1
EndSplineSet
EndChar

StartChar: perthousand
Encoding: 8240 8240 229
Width: 1178
GlyphClass: 3
Flags: W
LayerCount: 2
Fore
SplineSet
590 700 m 1,0,-1
 351 0 l 1,1,-1
 267 0 l 1,2,-1
 512 700 l 1,3,-1
 590 700 l 1,0,-1
351 412 m 2,4,5
 351 349 351 349 319 316.5 c 128,-1,6
 287 284 287 284 229 284 c 2,7,-1
 211 284 l 2,8,9
 153 284 153 284 121 316.5 c 128,-1,10
 89 349 89 349 89 412 c 2,11,-1
 89 572 l 2,12,13
 89 635 89 635 121 667.5 c 128,-1,14
 153 700 153 700 211 700 c 2,15,-1
 229 700 l 2,16,17
 287 700 287 700 319 667.5 c 128,-1,18
 351 635 351 635 351 572 c 2,19,-1
 351 412 l 2,4,5
281 401 m 2,20,-1
 281 583 l 2,21,22
 281 608 281 608 268 624 c 128,-1,23
 255 640 255 640 229 640 c 2,24,-1
 211 640 l 2,25,26
 185 640 185 640 172 624 c 128,-1,27
 159 608 159 608 159 583 c 2,28,-1
 159 401 l 2,29,30
 159 376 159 376 172 360 c 128,-1,31
 185 344 185 344 211 344 c 2,32,-1
 229 344 l 2,33,34
 255 344 255 344 268 360 c 128,-1,35
 281 376 281 376 281 401 c 2,20,-1
765 128 m 2,36,37
 765 65 765 65 733 32.5 c 128,-1,38
 701 0 701 0 643 0 c 2,39,-1
 625 0 l 2,40,41
 567 0 567 0 535 32.5 c 128,-1,42
 503 65 503 65 503 128 c 2,43,-1
 503 288 l 2,44,45
 503 351 503 351 535 383.5 c 128,-1,46
 567 416 567 416 625 416 c 2,47,-1
 643 416 l 2,48,49
 701 416 701 416 733 383.5 c 128,-1,50
 765 351 765 351 765 288 c 2,51,-1
 765 128 l 2,36,37
695 117 m 2,52,-1
 695 299 l 2,53,54
 695 324 695 324 682 340 c 128,-1,55
 669 356 669 356 643 356 c 2,56,-1
 625 356 l 2,57,58
 599 356 599 356 586 340 c 128,-1,59
 573 324 573 324 573 299 c 2,60,-1
 573 117 l 2,61,62
 573 92 573 92 586 76 c 128,-1,63
 599 60 599 60 625 60 c 2,64,-1
 643 60 l 2,65,66
 669 60 669 60 682 76 c 128,-1,67
 695 92 695 92 695 117 c 2,52,-1
1089 128 m 2,68,69
 1089 65 1089 65 1057 32.5 c 128,-1,70
 1025 0 1025 0 967 0 c 2,71,-1
 949 0 l 2,72,73
 891 0 891 0 859 32.5 c 128,-1,74
 827 65 827 65 827 128 c 2,75,-1
 827 288 l 2,76,77
 827 351 827 351 859 383.5 c 128,-1,78
 891 416 891 416 949 416 c 2,79,-1
 967 416 l 2,80,81
 1025 416 1025 416 1057 383.5 c 128,-1,82
 1089 351 1089 351 1089 288 c 2,83,-1
 1089 128 l 2,68,69
1019 117 m 2,84,-1
 1019 299 l 2,85,86
 1019 324 1019 324 1006 340 c 128,-1,87
 993 356 993 356 967 356 c 2,88,-1
 949 356 l 2,89,90
 923 356 923 356 910 340 c 128,-1,91
 897 324 897 324 897 299 c 2,92,-1
 897 117 l 2,93,94
 897 92 897 92 910 76 c 128,-1,95
 923 60 923 60 949 60 c 2,96,-1
 967 60 l 2,97,98
 993 60 993 60 1006 76 c 128,-1,99
 1019 92 1019 92 1019 117 c 2,84,-1
EndSplineSet
Ligature2: "'frac' Diagonal Fractions in Latin lookup 1 subtable" zero fraction zero zero
Ligature2: "'frac' Diagonal Fractions in Latin lookup 1 subtable" zero slash zero zero
EndChar

StartChar: guilsinglleft
Encoding: 8249 8249 230
Width: 305
GlyphClass: 2
Flags: W
LayerCount: 2
Fore
SplineSet
230 92 m 1,0,-1
 164 92 l 1,1,-1
 75 299 l 1,2,-1
 164 506 l 1,3,-1
 230 506 l 1,4,-1
 167 299 l 1,5,-1
 230 92 l 1,0,-1
EndSplineSet
EndChar

StartChar: guilsinglright
Encoding: 8250 8250 231
Width: 305
GlyphClass: 2
Flags: W
LayerCount: 2
Fore
SplineSet
141 92 m 1,0,-1
 75 92 l 1,1,-1
 138 299 l 1,2,-1
 75 506 l 1,3,-1
 141 506 l 1,4,-1
 230 299 l 1,5,-1
 141 92 l 1,0,-1
EndSplineSet
EndChar

StartChar: fraction
Encoding: 8260 8260 232
Width: 230
GlyphClass: 2
Flags: W
LayerCount: 2
Fore
SplineSet
315 810 m 1,0,-1
 -5 -100 l 1,1,-1
 -85 -100 l 1,2,-1
 235 810 l 1,3,-1
 315 810 l 1,0,-1
EndSplineSet
EndChar

StartChar: Euro
Encoding: 8364 8364 233
Width: 470
GlyphClass: 2
Flags: W
LayerCount: 2
Fore
SplineSet
381 480 m 1,0,-1
 381 407 l 1,1,-1
 212 407 l 1,2,-1
 212 310 l 1,3,-1
 381 310 l 1,4,-1
 381 237 l 1,5,-1
 212 237 l 1,6,-1
 212 151 l 2,7,8
 212 120 212 120 235 98 c 128,-1,9
 258 76 258 76 295 76 c 2,10,-1
 417 76 l 1,11,-1
 417 0 l 1,12,-1
 305 0 l 2,13,14
 218 0 218 0 171.5 42.5 c 128,-1,15
 125 85 125 85 125 170 c 2,16,-1
 125 237 l 1,17,-1
 55 237 l 1,18,-1
 55 310 l 1,19,-1
 125 310 l 1,20,-1
 125 407 l 1,21,-1
 55 407 l 1,22,-1
 55 480 l 1,23,-1
 125 480 l 1,24,-1
 125 530 l 2,25,26
 125 615 125 615 171.5 657.5 c 128,-1,27
 218 700 218 700 305 700 c 2,28,-1
 417 700 l 1,29,-1
 417 624 l 1,30,-1
 295 624 l 2,31,32
 258 624 258 624 235 602 c 128,-1,33
 212 580 212 580 212 549 c 2,34,-1
 212 480 l 1,35,-1
 381 480 l 1,0,-1
EndSplineSet
EndChar

StartChar: trademark
Encoding: 8482 8482 234
Width: 740
GlyphClass: 2
Flags: W
LayerCount: 2
Fore
SplineSet
675 194 m 1,0,-1
 609 194 l 1,1,-1
 609 644 l 1,2,-1
 531 361 l 1,3,-1
 468 361 l 1,4,-1
 389 644 l 1,5,-1
 389 194 l 1,6,-1
 324 194 l 1,7,-1
 324 641 l 1,8,-1
 224 641 l 1,9,-1
 224 194 l 1,10,-1
 156 194 l 1,11,-1
 156 641 l 1,12,-1
 40 641 l 1,13,-1
 40 700 l 1,14,-1
 440 700 l 1,15,-1
 502 463 l 1,16,-1
 562 700 l 1,17,-1
 675 700 l 1,18,-1
 675 194 l 1,0,-1
EndSplineSet
EndChar

StartChar: Omega
Encoding: 8486 8486 235
Width: 548
GlyphClass: 2
Flags: W
LayerCount: 2
Fore
SplineSet
500 0 m 1,0,-1
 317 0 l 1,1,-1
 317 76 l 1,2,3
 344 76 344 76 363 98.5 c 128,-1,4
 382 121 382 121 382 151 c 2,5,-1
 382 549 l 2,6,7
 382 580 382 580 359 602 c 128,-1,8
 336 624 336 624 299 624 c 2,9,-1
 245 624 l 2,10,11
 208 624 208 624 185 602 c 128,-1,12
 162 580 162 580 162 549 c 2,13,-1
 162 151 l 2,14,15
 162 121 162 121 182.5 98.5 c 128,-1,16
 203 76 203 76 233 76 c 1,17,-1
 233 0 l 1,18,-1
 50 0 l 1,19,-1
 50 76 l 1,20,-1
 99 76 l 1,21,22
 75 119 75 119 75 170 c 2,23,-1
 75 530 l 2,24,25
 75 615 75 615 121.5 657.5 c 128,-1,26
 168 700 168 700 255 700 c 2,27,-1
 289 700 l 2,28,29
 376 700 376 700 422.5 657.5 c 128,-1,30
 469 615 469 615 469 530 c 2,31,-1
 469 170 l 2,32,33
 469 117 469 117 446 76 c 1,34,-1
 500 76 l 1,35,-1
 500 0 l 1,0,-1
EndSplineSet
Position2: "'cpsp' Capital Spacing in Latin lookup 0 subtable" dx=5 dy=0 dh=10 dv=0
EndChar

StartChar: partialdiff
Encoding: 8706 8706 236
Width: 470
GlyphClass: 2
Flags: W
LayerCount: 2
Fore
SplineSet
65 170 m 2,0,-1
 65 280 l 2,1,2
 65 364 65 364 106 402 c 128,-1,3
 147 440 147 440 233 440 c 2,4,-1
 321 440 l 1,5,-1
 321 549 l 2,6,7
 321 580 321 580 298 602 c 128,-1,8
 275 624 275 624 238 624 c 2,9,-1
 113 624 l 1,10,-1
 113 700 l 1,11,-1
 228 700 l 2,12,13
 406 700 406 700 406 530 c 2,14,-1
 406 170 l 2,15,16
 406 88 406 88 361 44 c 128,-1,17
 316 0 316 0 248 0 c 2,18,-1
 223 0 l 2,19,20
 155 0 155 0 110 44 c 128,-1,21
 65 88 65 88 65 170 c 2,0,-1
321 365 m 1,22,-1
 223 365 l 2,23,24
 150 365 150 365 150 299 c 2,25,-1
 150 151 l 2,26,27
 150 119 150 119 171 97 c 128,-1,28
 192 75 192 75 228 75 c 2,29,-1
 243 75 l 2,30,31
 279 75 279 75 300 97 c 128,-1,32
 321 119 321 119 321 151 c 2,33,-1
 321 365 l 1,22,-1
EndSplineSet
EndChar

StartChar: Delta
Encoding: 8710 8710 237
Width: 510
GlyphClass: 2
Flags: W
LayerCount: 2
Fore
SplineSet
485 0 m 1,0,-1
 25 0 l 1,1,-1
 203 700 l 1,2,-1
 314 700 l 1,3,-1
 485 0 l 1,0,-1
377 75 m 1,4,-1
 258 625 l 1,5,-1
 133 75 l 1,6,-1
 377 75 l 1,4,-1
EndSplineSet
Position2: "'cpsp' Capital Spacing in Latin lookup 0 subtable" dx=5 dy=0 dh=10 dv=0
EndChar

StartChar: product
Encoding: 8719 8719 238
Width: 564
GlyphClass: 2
Flags: W
LayerCount: 2
Fore
SplineSet
211 0 m 1,0,-1
 124 0 l 1,1,-1
 124 625 l 1,2,-1
 45 625 l 1,3,-1
 45 700 l 1,4,-1
 519 700 l 1,5,-1
 519 625 l 1,6,-1
 428 625 l 1,7,-1
 428 105 l 2,8,9
 428 89 428 89 435 82 c 128,-1,10
 442 75 442 75 461 75 c 2,11,-1
 476 75 l 1,12,-1
 476 0 l 1,13,-1
 426 0 l 2,14,15
 392 0 392 0 366.5 24 c 128,-1,16
 341 48 341 48 341 100 c 2,17,-1
 341 625 l 1,18,-1
 211 625 l 1,19,-1
 211 0 l 1,0,-1
EndSplineSet
EndChar

StartChar: summation
Encoding: 8721 8721 239
Width: 470
GlyphClass: 2
Flags: W
LayerCount: 2
Fore
SplineSet
425 -170 m 1,0,-1
 40 -170 l 1,1,-1
 40 -76 l 1,2,-1
 208 267 l 1,3,-1
 53 605 l 1,4,-1
 53 700 l 1,5,-1
 414 700 l 1,6,-1
 414 625 l 1,7,-1
 141 625 l 1,8,-1
 303 267 l 1,9,-1
 126 -96 l 1,10,-1
 425 -96 l 1,11,-1
 425 -170 l 1,0,-1
EndSplineSet
EndChar

StartChar: minus
Encoding: 8722 8722 240
Width: 550
GlyphClass: 2
Flags: W
LayerCount: 2
Fore
SplineSet
465 275 m 1,0,-1
 85 275 l 1,1,-1
 85 350 l 1,2,-1
 465 350 l 1,3,-1
 465 275 l 1,0,-1
EndSplineSet
EndChar

StartChar: uni2215
Encoding: 8725 8725 241
Width: 230
GlyphClass: 2
Flags: W
LayerCount: 2
Fore
SplineSet
315 810 m 1,0,-1
 -5 -100 l 1,1,-1
 -85 -100 l 1,2,-1
 235 810 l 1,3,-1
 315 810 l 1,0,-1
EndSplineSet
EndChar

StartChar: uni2219
Encoding: 8729 8729 242
Width: 230
GlyphClass: 2
Flags: W
LayerCount: 2
Fore
SplineSet
165 260 m 1,0,-1
 65 260 l 1,1,-1
 65 360 l 1,2,-1
 165 360 l 1,3,-1
 165 260 l 1,0,-1
EndSplineSet
EndChar

StartChar: radical
Encoding: 8730 8730 243
Width: 555
GlyphClass: 2
Flags: W
LayerCount: 2
Fore
SplineSet
570 745 m 1,0,-1
 457 745 l 1,1,-1
 282 0 l 1,2,-1
 154 0 l 1,3,-1
 35 392 l 1,4,-1
 124 392 l 1,5,-1
 216 61 l 1,6,-1
 393 820 l 1,7,-1
 570 820 l 1,8,-1
 570 745 l 1,0,-1
EndSplineSet
EndChar

StartChar: infinity
Encoding: 8734 8734 244
Width: 730
GlyphClass: 2
Flags: W
LayerCount: 2
Fore
SplineSet
249 141 m 2,0,-1
 199 141 l 2,1,2
 119 141 119 141 83.5 180.5 c 128,-1,3
 48 220 48 220 48 298 c 2,4,-1
 48 318 l 2,5,6
 48 396 48 396 83.5 435.5 c 128,-1,7
 119 475 119 475 199 475 c 2,8,-1
 249 475 l 2,9,10
 330 475 330 475 367 422 c 1,11,12
 404 475 404 475 481 475 c 2,13,-1
 531 475 l 2,14,15
 611 475 611 475 646.5 435.5 c 128,-1,16
 682 396 682 396 682 318 c 2,17,-1
 682 303 l 2,18,19
 682 141 682 141 531 141 c 2,20,-1
 481 141 l 2,21,22
 402 141 402 141 365 194 c 1,23,24
 328 141 328 141 249 141 c 2,0,-1
598 286 m 2,25,-1
 598 338 l 2,26,27
 598 401 598 401 526 401 c 2,28,-1
 479 401 l 2,29,30
 447 401 447 401 426.5 382.5 c 128,-1,31
 406 364 406 364 406 336 c 2,32,-1
 406 286 l 2,33,34
 406 255 406 255 426 235 c 128,-1,35
 446 215 446 215 479 215 c 2,36,-1
 526 215 l 2,37,38
 564 215 564 215 581 231.5 c 128,-1,39
 598 248 598 248 598 286 c 2,25,-1
132 330 m 2,40,-1
 132 278 l 2,41,42
 132 215 132 215 204 215 c 2,43,-1
 251 215 l 2,44,45
 283 215 283 215 303.5 233.5 c 128,-1,46
 324 252 324 252 324 280 c 2,47,-1
 324 330 l 2,48,49
 324 361 324 361 304 381 c 128,-1,50
 284 401 284 401 251 401 c 2,51,-1
 204 401 l 2,52,53
 166 401 166 401 149 384.5 c 128,-1,54
 132 368 132 368 132 330 c 2,40,-1
EndSplineSet
EndChar

StartChar: uni2224
Encoding: 8740 8740 245
Width: 230
GlyphClass: 2
Flags: W
LayerCount: 2
Fore
SplineSet
165 260 m 1,0,-1
 65 260 l 1,1,-1
 65 360 l 1,2,-1
 165 360 l 1,3,-1
 165 260 l 1,0,-1
EndSplineSet
EndChar

StartChar: logicaland
Encoding: 8743 8743 246
Width: 230
GlyphClass: 2
Flags: W
LayerCount: 2
Fore
SplineSet
165 260 m 1,0,-1
 65 260 l 1,1,-1
 65 360 l 1,2,-1
 165 360 l 1,3,-1
 165 260 l 1,0,-1
EndSplineSet
EndChar

StartChar: integral
Encoding: 8747 8747 247
Width: 325
GlyphClass: 2
Flags: W
LayerCount: 2
Fore
SplineSet
-10 -160 m 1,0,-1
 81 -160 l 2,1,2
 97 -160 97 -160 106.5 -151.5 c 128,-1,3
 116 -143 116 -143 116 -130 c 2,4,-1
 116 710 l 2,5,6
 116 761 116 761 145 790.5 c 128,-1,7
 174 820 174 820 220 820 c 2,8,-1
 332 820 l 1,9,-1
 332 745 l 1,10,-1
 236 745 l 2,11,12
 220 745 220 745 210.5 736.5 c 128,-1,13
 201 728 201 728 201 715 c 2,14,-1
 201 -125 l 2,15,16
 201 -176 201 -176 172 -205.5 c 128,-1,17
 143 -235 143 -235 97 -235 c 2,18,-1
 -10 -235 l 1,19,-1
 -10 -160 l 1,0,-1
EndSplineSet
EndChar

StartChar: approxequal
Encoding: 8776 8776 248
Width: 510
GlyphClass: 2
Flags: W
LayerCount: 2
Fore
SplineSet
182 458 m 2,0,-1
 197 458 l 2,1,2
 209 458 209 458 263 438 c 128,-1,3
 317 418 317 418 328 418 c 2,4,-1
 338 418 l 2,5,6
 349 418 349 418 406 445 c 2,7,-1
 425 454 l 1,8,-1
 425 374 l 1,9,10
 354 339 354 339 337 339 c 2,11,-1
 322 339 l 2,12,13
 316 339 316 339 259.5 359 c 128,-1,14
 203 379 203 379 192 379 c 2,15,-1
 182 379 l 2,16,17
 169 379 169 379 106 352 c 2,18,-1
 85 343 l 1,19,-1
 85 423 l 1,20,21
 163 458 163 458 182 458 c 2,0,-1
182 289 m 2,22,-1
 197 289 l 2,23,24
 209 289 209 289 263 269 c 128,-1,25
 317 249 317 249 328 249 c 2,26,-1
 338 249 l 2,27,28
 349 249 349 249 406 276 c 2,29,-1
 425 285 l 1,30,-1
 425 205 l 1,31,32
 354 170 354 170 337 170 c 2,33,-1
 322 170 l 2,34,35
 316 170 316 170 259.5 190 c 128,-1,36
 203 210 203 210 192 210 c 2,37,-1
 182 210 l 2,38,39
 169 210 169 210 106 183 c 2,40,-1
 85 174 l 1,41,-1
 85 254 l 1,42,43
 163 289 163 289 182 289 c 2,22,-1
EndSplineSet
EndChar

StartChar: notequal
Encoding: 8800 8800 249
Width: 550
GlyphClass: 2
Flags: W
LayerCount: 2
Fore
SplineSet
465 375 m 1,0,-1
 354 375 l 1,1,-1
 276 250 l 1,2,-1
 465 250 l 1,3,-1
 465 175 l 1,4,-1
 230 175 l 1,5,-1
 165 70 l 1,6,-1
 85 70 l 1,7,-1
 150 175 l 1,8,-1
 85 175 l 1,9,-1
 85 250 l 1,10,-1
 196 250 l 1,11,-1
 274 375 l 1,12,-1
 85 375 l 1,13,-1
 85 450 l 1,14,-1
 320 450 l 1,15,-1
 385 555 l 1,16,-1
 465 555 l 1,17,-1
 400 450 l 1,18,-1
 465 450 l 1,19,-1
 465 375 l 1,0,-1
EndSplineSet
EndChar

StartChar: lessequal
Encoding: 8804 8804 250
Width: 550
GlyphClass: 2
Flags: W
LayerCount: 2
Fore
SplineSet
465 125 m 1,0,-1
 85 280 l 1,1,-1
 85 385 l 1,2,-1
 465 564 l 1,3,-1
 465 472 l 1,4,-1
 157 336 l 1,5,-1
 465 219 l 1,6,-1
 465 125 l 1,0,-1
465 0 m 1,7,-1
 85 0 l 1,8,-1
 85 75 l 1,9,-1
 465 75 l 1,10,-1
 465 0 l 1,7,-1
EndSplineSet
EndChar

StartChar: greaterequal
Encoding: 8805 8805 251
Width: 550
GlyphClass: 2
Flags: W
LayerCount: 2
Fore
SplineSet
465 280 m 1,0,-1
 85 125 l 1,1,-1
 85 219 l 1,2,-1
 393 336 l 1,3,-1
 85 472 l 1,4,-1
 85 564 l 1,5,-1
 465 385 l 1,6,-1
 465 280 l 1,0,-1
465 0 m 1,7,-1
 85 0 l 1,8,-1
 85 75 l 1,9,-1
 465 75 l 1,10,-1
 465 0 l 1,7,-1
EndSplineSet
EndChar

StartChar: dotmath
Encoding: 8901 8901 252
Width: 230
GlyphClass: 2
Flags: W
LayerCount: 2
Fore
SplineSet
165 260 m 1,0,-1
 65 260 l 1,1,-1
 65 360 l 1,2,-1
 165 360 l 1,3,-1
 165 260 l 1,0,-1
EndSplineSet
EndChar

StartChar: uni25AF
Encoding: 9647 9647 253
Width: 502
GlyphClass: 2
Flags: W
LayerCount: 2
Fore
SplineSet
65 0 m 1,0,-1
 65 700 l 1,1,-1
 437 700 l 1,2,-1
 437 0 l 1,3,-1
 65 0 l 1,0,-1
140 72 m 1,4,-1
 362 72 l 1,5,-1
 362 628 l 1,6,-1
 140 628 l 1,7,-1
 140 72 l 1,4,-1
EndSplineSet
EndChar

StartChar: lozenge
Encoding: 9674 9674 254
Width: 470
GlyphClass: 2
Flags: W
LayerCount: 2
Fore
SplineSet
430 350 m 1,0,-1
 290 0 l 1,1,-1
 178 0 l 1,2,-1
 40 350 l 1,3,-1
 180 700 l 1,4,-1
 290 700 l 1,5,-1
 430 350 l 1,0,-1
343 350 m 1,6,-1
 235 630 l 1,7,-1
 127 350 l 1,8,-1
 235 70 l 1,9,-1
 343 350 l 1,6,-1
EndSplineSet
EndChar

StartChar: fi
Encoding: 64257 64257 255
Width: 515
GlyphClass: 3
Flags: W
LayerCount: 2
Fore
SplineSet
414 625 m 1,0,-1
 215 625 l 2,1,2
 199 625 199 625 189.5 616.5 c 128,-1,3
 180 608 180 608 180 595 c 2,4,-1
 180 500 l 1,5,-1
 435 500 l 1,6,-1
 435 0 l 1,7,-1
 350 0 l 1,8,-1
 350 425 l 1,9,-1
 180 425 l 1,10,-1
 180 0 l 1,11,-1
 95 0 l 1,12,-1
 95 425 l 1,13,-1
 30 425 l 1,14,-1
 30 500 l 1,15,-1
 95 500 l 1,16,-1
 95 590 l 2,17,18
 95 641 95 641 124 670.5 c 128,-1,19
 153 700 153 700 199 700 c 2,20,-1
 414 700 l 1,21,-1
 414 625 l 1,0,-1
EndSplineSet
Ligature2: "'liga' Standard Ligatures in Latin lookup 3 subtable" f i
EndChar

StartChar: fl
Encoding: 64258 64258 256
Width: 530
GlyphClass: 3
Flags: W
LayerCount: 2
Fore
SplineSet
490 0 m 1,0,-1
 435 0 l 2,1,2
 401 0 401 0 375.5 24 c 128,-1,3
 350 48 350 48 350 100 c 2,4,-1
 350 625 l 1,5,-1
 215 625 l 2,6,7
 199 625 199 625 189.5 616.5 c 128,-1,8
 180 608 180 608 180 595 c 2,9,-1
 180 500 l 1,10,-1
 272 500 l 1,11,-1
 272 425 l 1,12,-1
 180 425 l 1,13,-1
 180 0 l 1,14,-1
 95 0 l 1,15,-1
 95 425 l 1,16,-1
 30 425 l 1,17,-1
 30 500 l 1,18,-1
 95 500 l 1,19,-1
 95 590 l 2,20,21
 95 641 95 641 124 670.5 c 128,-1,22
 153 700 153 700 199 700 c 2,23,-1
 435 700 l 1,24,-1
 435 105 l 2,25,26
 435 89 435 89 443 82 c 128,-1,27
 451 75 451 75 470 75 c 2,28,-1
 490 75 l 1,29,-1
 490 0 l 1,0,-1
EndSplineSet
Ligature2: "'liga' Standard Ligatures in Latin lookup 3 subtable" f l
EndChar
